<svg width="860" height="605" viewBox="0 0 860 605" fill="none" xmlns="http://www.w3.org/2000/svg">
<g clip-path="url(#clip0_1_124)">
<rect x="3.25" y="127.25" width="121.5" height="94.5" fill="white" stroke="#D9D9D9" stroke-width="0.5"/>
<rect x="125.25" y="127.25" width="121.5" height="94.5" fill="white" stroke="#D9D9D9" stroke-width="0.5"/>
<rect x="247.25" y="127.25" width="121.5" height="94.5" fill="white" stroke="#D9D9D9" stroke-width="0.5"/>
<rect x="369.25" y="127.25" width="121.5" height="94.5" fill="white" stroke="#D9D9D9" stroke-width="0.5"/>
<rect x="491.25" y="127.25" width="121.5" height="94.5" fill="#FAFAFA" stroke="#D9D9D9" stroke-width="0.5"/>
<rect x="613.25" y="127.25" width="121.5" height="94.5" fill="#FAFAFA" stroke="#D9D9D9" stroke-width="0.5"/>
<rect x="735.25" y="127.25" width="121.5" height="94.5" fill="#FAFAFA" stroke="#D9D9D9" stroke-width="0.5"/>
<rect x="3.25" y="222.25" width="121.5" height="94.5" fill="#FAFAFA" stroke="#D9D9D9" stroke-width="0.5"/>
<rect x="125.25" y="222.25" width="121.5" height="94.5" fill="#FAFAFA" stroke="#D9D9D9" stroke-width="0.5"/>
<rect x="247.25" y="222.25" width="121.5" height="94.5" fill="#FAFAFA" stroke="#D9D9D9" stroke-width="0.5"/>
<rect x="369.25" y="222.25" width="121.5" height="94.5" fill="#FAFAFA" stroke="#D9D9D9" stroke-width="0.5"/>
<rect x="491.25" y="222.25" width="121.5" height="94.5" fill="#FAFAFA" stroke="#D9D9D9" stroke-width="0.5"/>
<rect x="613.25" y="222.25" width="121.5" height="94.5" fill="#FAFAFA" stroke="#D9D9D9" stroke-width="0.5"/>
<rect x="735.25" y="222.25" width="121.5" height="94.5" fill="#FAFAFA" stroke="#D9D9D9" stroke-width="0.5"/>
<rect x="3.25" y="317.25" width="121.5" height="94.5" fill="#FAFAFA" stroke="#D9D9D9" stroke-width="0.5"/>
<rect x="125.25" y="317.25" width="121.5" height="94.5" fill="#FAFAFA" stroke="#D9D9D9" stroke-width="0.5"/>
<rect x="247.25" y="317.25" width="121.5" height="94.5" fill="#3272EC" fill-opacity="0.1" stroke="#D9D9D9" stroke-width="0.5"/>
<path d="M292.844 382.536C292.844 381.636 292.199 381.096 291.179 381.096H289.109V383.916H291.224C292.244 383.916 292.844 383.421 292.844 382.536ZM292.589 378.171C292.589 377.331 292.019 376.851 291.029 376.851H289.109V379.476H291.029C292.019 379.476 292.589 379.026 292.589 378.171ZM294.974 382.791C294.974 384.456 293.699 385.626 291.524 385.626H287.009V375.156H291.329C293.519 375.156 294.734 376.296 294.734 377.856C294.734 379.131 293.969 379.926 292.949 380.256C294.134 380.466 294.974 381.561 294.974 382.791ZM296.648 385.626V377.316H298.748V385.626H296.648ZM297.713 376.326C296.963 376.326 296.423 375.786 296.423 375.096C296.423 374.406 296.963 373.866 297.713 373.866C298.448 373.866 299.003 374.406 299.003 375.096C299.003 375.786 298.448 376.326 297.713 376.326ZM302.923 381.486V385.626H300.823V377.316H302.923V378.606C303.448 377.751 304.318 377.196 305.473 377.196V379.401H304.918C303.673 379.401 302.923 379.881 302.923 381.486ZM307.217 383.046V379.041H306.227V377.316H307.217V375.261H309.332V377.316H311.192V379.041H309.332V383.061C309.332 383.616 309.557 383.856 310.217 383.856H311.192V385.626H309.872C308.282 385.626 307.217 384.951 307.217 383.046ZM312.703 385.626V374.526H314.803V378.351C315.343 377.646 316.273 377.196 317.383 377.196C319.258 377.196 320.623 378.456 320.623 380.751V385.626H318.523V381.036C318.523 379.701 317.788 378.981 316.678 378.981C315.538 378.981 314.803 379.701 314.803 381.036V385.626H312.703ZM322.08 381.441C322.08 378.846 323.76 377.181 325.89 377.181C326.985 377.181 328.035 377.691 328.605 378.471V374.526H330.735V385.626H328.605V384.396C328.11 385.161 327.18 385.761 325.875 385.761C323.76 385.761 322.08 384.036 322.08 381.441ZM328.62 381.471C328.62 379.896 327.57 379.026 326.415 379.026C325.29 379.026 324.225 379.866 324.225 381.441C324.225 383.016 325.29 383.916 326.415 383.916C327.57 383.916 328.62 383.046 328.62 381.471ZM332.246 381.441C332.246 378.846 333.926 377.181 336.041 377.181C337.376 377.181 338.291 377.811 338.786 378.501V377.316H340.901V385.626H338.786V384.411C338.291 385.131 337.346 385.761 336.026 385.761C333.926 385.761 332.246 384.036 332.246 381.441ZM338.786 381.471C338.786 379.896 337.736 379.026 336.581 379.026C335.456 379.026 334.391 379.866 334.391 381.441C334.391 383.016 335.456 383.916 336.581 383.916C337.736 383.916 338.786 383.046 338.786 381.471ZM346.492 383.121L348.667 377.316H350.902L345.757 389.556H343.522L345.322 385.416L341.992 377.316H344.347L346.492 383.121Z" fill="#3272EC"/>
<rect x="369.25" y="317.25" width="121.5" height="94.5" fill="#FAFAFA" stroke="#D9D9D9" stroke-width="0.5"/>
<rect x="491.25" y="317.25" width="121.5" height="94.5" fill="#3272EC" fill-opacity="0.1" stroke="#D9D9D9" stroke-width="0.5"/>
<rect x="613.25" y="317.25" width="121.5" height="94.5" fill="#FAFAFA" stroke="#D9D9D9" stroke-width="0.5"/>
<rect x="735.25" y="317.25" width="121.5" height="94.5" fill="#FAFAFA" stroke="#D9D9D9" stroke-width="0.5"/>
<rect x="3.25" y="412.25" width="121.5" height="94.5" fill="#FAFAFA" stroke="#D9D9D9" stroke-width="0.5"/>
<rect x="125.25" y="412.25" width="121.5" height="94.5" fill="#FAFAFA" stroke="#D9D9D9" stroke-width="0.5"/>
<rect x="247.25" y="412.25" width="121.5" height="94.5" fill="#FAFAFA" stroke="#D9D9D9" stroke-width="0.5"/>
<rect x="369.25" y="412.25" width="121.5" height="94.5" fill="#FAFAFA" stroke="#D9D9D9" stroke-width="0.5"/>
<rect x="491.25" y="412.25" width="121.5" height="94.5" fill="#FAFAFA" stroke="#D9D9D9" stroke-width="0.5"/>
<rect x="613.25" y="412.25" width="121.5" height="94.5" fill="#FAFAFA" stroke="#D9D9D9" stroke-width="0.5"/>
<rect x="735.25" y="412.25" width="121.5" height="94.5" fill="#FAFAFA" stroke="#D9D9D9" stroke-width="0.5"/>
<rect x="3.25" y="507.25" width="121.5" height="94.5" fill="#FAFAFA" stroke="#D9D9D9" stroke-width="0.5"/>
<rect x="125.25" y="507.25" width="121.5" height="94.5" fill="#FAFAFA" stroke="#D9D9D9" stroke-width="0.5"/>
<rect x="247.25" y="507.25" width="121.5" height="94.5" fill="#FAFAFA" stroke="#D9D9D9" stroke-width="0.5"/>
<rect x="369.25" y="507.25" width="121.5" height="94.5" fill="#FAFAFA" stroke="#D9D9D9" stroke-width="0.5"/>
<rect x="491.25" y="507.25" width="121.5" height="94.5" fill="#FAFAFA" stroke="#D9D9D9" stroke-width="0.5"/>
<rect x="613.25" y="507.25" width="121.5" height="94.5" fill="white" stroke="#D9D9D9" stroke-width="0.5"/>
<rect x="735.25" y="507.25" width="121.5" height="94.5" fill="white" stroke="#D9D9D9" stroke-width="0.5"/>
<path d="M592.218 142.559V159H590.141V145.153L585.952 146.68V144.805L591.893 142.559H592.218Z" fill="#666666"/>
<path d="M717.104 157.293V159H706.401V157.506L711.758 151.543C712.417 150.809 712.926 150.188 713.286 149.679C713.653 149.162 713.907 148.702 714.049 148.297C714.199 147.886 714.274 147.466 714.274 147.04C714.274 146.5 714.162 146.014 713.937 145.58C713.72 145.138 713.398 144.786 712.971 144.524C712.544 144.262 712.028 144.131 711.421 144.131C710.695 144.131 710.089 144.273 709.602 144.558C709.123 144.835 708.764 145.224 708.524 145.726C708.284 146.227 708.165 146.804 708.165 147.455H706.087C706.087 146.534 706.289 145.692 706.693 144.928C707.098 144.165 707.697 143.558 708.49 143.109C709.284 142.652 710.261 142.424 711.421 142.424C712.455 142.424 713.338 142.607 714.072 142.974C714.806 143.333 715.367 143.843 715.756 144.501C716.153 145.153 716.352 145.917 716.352 146.792C716.352 147.272 716.269 147.758 716.104 148.252C715.947 148.739 715.726 149.226 715.442 149.712C715.165 150.199 714.839 150.678 714.465 151.15C714.098 151.622 713.705 152.086 713.286 152.542L708.906 157.293H717.104Z" fill="#666666"/>
<path d="M828.422 149.802H829.905C830.631 149.802 831.23 149.682 831.702 149.443C832.181 149.196 832.536 148.863 832.769 148.443C833.008 148.017 833.128 147.537 833.128 147.006C833.128 146.377 833.023 145.849 832.813 145.422C832.604 144.996 832.289 144.674 831.87 144.457C831.451 144.239 830.919 144.131 830.275 144.131C829.691 144.131 829.175 144.247 828.726 144.479C828.284 144.704 827.936 145.026 827.681 145.445C827.434 145.864 827.311 146.358 827.311 146.927H825.233C825.233 146.096 825.443 145.34 825.862 144.659C826.281 143.977 826.869 143.435 827.625 143.03C828.389 142.626 829.272 142.424 830.275 142.424C831.264 142.424 832.128 142.6 832.87 142.952C833.611 143.296 834.187 143.813 834.599 144.501C835.011 145.183 835.217 146.033 835.217 147.051C835.217 147.463 835.119 147.904 834.925 148.376C834.738 148.84 834.442 149.274 834.038 149.679C833.641 150.083 833.124 150.416 832.488 150.678C831.851 150.933 831.088 151.06 830.197 151.06H828.422V149.802ZM828.422 151.509V150.263H830.197C831.237 150.263 832.098 150.386 832.78 150.633C833.461 150.88 833.996 151.21 834.386 151.622C834.783 152.033 835.06 152.486 835.217 152.98C835.382 153.467 835.464 153.954 835.464 154.44C835.464 155.204 835.333 155.882 835.071 156.473C834.816 157.065 834.453 157.566 833.981 157.978C833.517 158.39 832.971 158.701 832.342 158.91C831.713 159.12 831.028 159.225 830.287 159.225C829.575 159.225 828.905 159.124 828.276 158.921C827.655 158.719 827.105 158.427 826.625 158.045C826.146 157.656 825.772 157.181 825.502 156.619C825.233 156.05 825.098 155.403 825.098 154.676H827.176C827.176 155.245 827.299 155.743 827.546 156.17C827.801 156.597 828.16 156.93 828.625 157.169C829.096 157.402 829.65 157.518 830.287 157.518C830.923 157.518 831.47 157.409 831.926 157.192C832.39 156.967 832.746 156.63 832.993 156.181C833.248 155.732 833.375 155.167 833.375 154.485C833.375 153.804 833.233 153.246 832.948 152.812C832.664 152.37 832.259 152.045 831.735 151.835C831.219 151.618 830.609 151.509 829.905 151.509H828.422Z" fill="#666666"/>
<path d="M108.441 244.497V246.204H96.6265V244.98L103.949 233.648H105.645L103.825 236.928L98.9849 244.497H108.441ZM106.161 233.648V250H104.083V233.648H106.161Z" fill="#666666"/>
<path d="M224.018 242.217L222.356 241.791L223.176 233.648H231.565V235.569H224.939L224.445 240.016C224.744 239.844 225.122 239.683 225.579 239.533C226.043 239.383 226.575 239.309 227.174 239.309C227.93 239.309 228.608 239.44 229.207 239.702C229.806 239.956 230.315 240.323 230.734 240.802C231.161 241.281 231.486 241.858 231.711 242.532C231.936 243.206 232.048 243.958 232.048 244.789C232.048 245.575 231.939 246.298 231.722 246.957C231.513 247.615 231.194 248.192 230.768 248.686C230.341 249.173 229.802 249.551 229.15 249.82C228.507 250.09 227.747 250.225 226.871 250.225C226.212 250.225 225.587 250.135 224.995 249.955C224.411 249.768 223.887 249.487 223.423 249.113C222.966 248.731 222.592 248.259 222.3 247.698C222.015 247.129 221.836 246.462 221.761 245.699H223.737C223.827 246.313 224.007 246.829 224.276 247.249C224.546 247.668 224.898 247.986 225.332 248.203C225.774 248.413 226.287 248.518 226.871 248.518C227.365 248.518 227.803 248.431 228.185 248.259C228.566 248.087 228.888 247.84 229.15 247.518C229.412 247.196 229.611 246.807 229.746 246.35C229.888 245.893 229.959 245.381 229.959 244.812C229.959 244.295 229.888 243.816 229.746 243.374C229.603 242.932 229.39 242.547 229.105 242.217C228.828 241.888 228.488 241.633 228.083 241.454C227.679 241.266 227.215 241.173 226.691 241.173C225.995 241.173 225.467 241.266 225.107 241.454C224.756 241.641 224.392 241.895 224.018 242.217Z" fill="#666666"/>
<path d="M347.364 233.626H347.543V235.389H347.364C346.263 235.389 345.342 235.569 344.601 235.928C343.86 236.28 343.272 236.756 342.838 237.354C342.404 237.946 342.089 238.612 341.895 239.354C341.707 240.095 341.614 240.847 341.614 241.611V244.014C341.614 244.74 341.7 245.384 341.872 245.946C342.044 246.5 342.28 246.968 342.58 247.35C342.879 247.731 343.216 248.02 343.59 248.214C343.972 248.409 344.369 248.506 344.781 248.506C345.26 248.506 345.687 248.417 346.061 248.237C346.435 248.05 346.75 247.791 347.004 247.462C347.266 247.125 347.465 246.728 347.6 246.271C347.734 245.815 347.802 245.313 347.802 244.767C347.802 244.28 347.742 243.812 347.622 243.363C347.502 242.906 347.319 242.502 347.072 242.15C346.825 241.791 346.514 241.51 346.14 241.308C345.773 241.098 345.335 240.993 344.826 240.993C344.249 240.993 343.71 241.135 343.208 241.42C342.714 241.697 342.306 242.064 341.984 242.521C341.67 242.97 341.49 243.46 341.445 243.992L340.345 243.98C340.45 243.142 340.644 242.427 340.929 241.835C341.221 241.236 341.58 240.75 342.007 240.375C342.441 239.994 342.924 239.717 343.456 239.544C343.995 239.365 344.564 239.275 345.163 239.275C345.979 239.275 346.682 239.428 347.274 239.735C347.865 240.042 348.352 240.454 348.734 240.971C349.116 241.48 349.396 242.056 349.576 242.7C349.763 243.337 349.857 243.992 349.857 244.666C349.857 245.437 349.748 246.159 349.531 246.833C349.314 247.507 348.988 248.098 348.554 248.607C348.127 249.117 347.6 249.513 346.971 249.798C346.342 250.082 345.612 250.225 344.781 250.225C343.897 250.225 343.126 250.045 342.467 249.686C341.808 249.319 341.262 248.832 340.828 248.226C340.393 247.619 340.068 246.945 339.851 246.204C339.633 245.463 339.525 244.71 339.525 243.947V242.97C339.525 241.817 339.641 240.686 339.873 239.578C340.105 238.47 340.506 237.467 341.075 236.568C341.651 235.67 342.449 234.955 343.467 234.423C344.485 233.892 345.784 233.626 347.364 233.626Z" fill="#666666"/>
<path d="M474.958 233.648V234.816L468.186 250H465.996L472.757 235.355H463.907V233.648H474.958Z" fill="#666666"/>
<path d="M596.7 245.575C596.7 246.571 596.468 247.417 596.003 248.113C595.547 248.802 594.925 249.326 594.139 249.686C593.361 250.045 592.481 250.225 591.5 250.225C590.519 250.225 589.636 250.045 588.85 249.686C588.063 249.326 587.442 248.802 586.985 248.113C586.529 247.417 586.3 246.571 586.3 245.575C586.3 244.924 586.424 244.329 586.671 243.79C586.925 243.243 587.281 242.768 587.738 242.363C588.202 241.959 588.749 241.648 589.377 241.431C590.014 241.207 590.714 241.094 591.478 241.094C592.481 241.094 593.375 241.289 594.162 241.678C594.948 242.06 595.565 242.588 596.015 243.262C596.471 243.936 596.7 244.707 596.7 245.575ZM594.611 245.53C594.611 244.924 594.48 244.389 594.218 243.924C593.956 243.453 593.589 243.086 593.117 242.824C592.646 242.562 592.099 242.431 591.478 242.431C590.841 242.431 590.291 242.562 589.827 242.824C589.37 243.086 589.014 243.453 588.76 243.924C588.505 244.389 588.378 244.924 588.378 245.53C588.378 246.159 588.501 246.698 588.749 247.147C589.003 247.589 589.362 247.93 589.827 248.169C590.298 248.402 590.856 248.518 591.5 248.518C592.144 248.518 592.698 248.402 593.162 248.169C593.626 247.93 593.982 247.589 594.229 247.147C594.484 246.698 594.611 246.159 594.611 245.53ZM596.318 237.905C596.318 238.698 596.108 239.413 595.689 240.05C595.27 240.686 594.697 241.188 593.971 241.555C593.244 241.922 592.421 242.105 591.5 242.105C590.564 242.105 589.729 241.922 588.996 241.555C588.269 241.188 587.7 240.686 587.289 240.05C586.877 239.413 586.671 238.698 586.671 237.905C586.671 236.954 586.877 236.145 587.289 235.479C587.708 234.813 588.281 234.304 589.007 233.952C589.733 233.6 590.56 233.424 591.489 233.424C592.425 233.424 593.256 233.6 593.982 233.952C594.708 234.304 595.277 234.813 595.689 235.479C596.108 236.145 596.318 236.954 596.318 237.905ZM594.24 237.938C594.24 237.392 594.124 236.909 593.892 236.49C593.66 236.07 593.338 235.741 592.926 235.501C592.514 235.254 592.035 235.131 591.489 235.131C590.942 235.131 590.463 235.247 590.051 235.479C589.647 235.704 589.329 236.026 589.097 236.445C588.872 236.864 588.76 237.362 588.76 237.938C588.76 238.5 588.872 238.99 589.097 239.41C589.329 239.829 589.651 240.155 590.062 240.387C590.474 240.619 590.953 240.735 591.5 240.735C592.047 240.735 592.522 240.619 592.926 240.387C593.338 240.155 593.66 239.829 593.892 239.41C594.124 238.99 594.24 238.5 594.24 237.938Z" fill="#666666"/>
<path d="M709.457 248.259H709.67C710.868 248.259 711.841 248.091 712.59 247.754C713.339 247.417 713.915 246.964 714.319 246.395C714.724 245.826 715.001 245.186 715.15 244.475C715.3 243.756 715.375 243.018 715.375 242.262V239.758C715.375 239.017 715.289 238.358 715.117 237.781C714.952 237.205 714.72 236.722 714.42 236.333C714.128 235.943 713.795 235.647 713.421 235.445C713.047 235.243 712.65 235.142 712.23 235.142C711.751 235.142 711.321 235.239 710.939 235.434C710.565 235.621 710.246 235.887 709.984 236.231C709.73 236.576 709.535 236.98 709.4 237.444C709.266 237.909 709.198 238.414 709.198 238.96C709.198 239.447 709.258 239.919 709.378 240.375C709.498 240.832 709.681 241.244 709.928 241.611C710.175 241.978 710.482 242.27 710.849 242.487C711.223 242.696 711.661 242.801 712.163 242.801C712.627 242.801 713.062 242.711 713.466 242.532C713.878 242.345 714.241 242.094 714.555 241.779C714.877 241.457 715.132 241.094 715.319 240.69C715.514 240.286 715.626 239.863 715.656 239.421H716.644C716.644 240.042 716.521 240.656 716.273 241.263C716.034 241.862 715.697 242.408 715.263 242.902C714.828 243.396 714.319 243.793 713.735 244.093C713.151 244.385 712.515 244.531 711.826 244.531C711.018 244.531 710.318 244.374 709.726 244.059C709.135 243.745 708.648 243.325 708.266 242.801C707.892 242.277 707.611 241.693 707.424 241.049C707.244 240.398 707.154 239.739 707.154 239.073C707.154 238.294 707.263 237.564 707.48 236.883C707.697 236.201 708.019 235.603 708.446 235.086C708.873 234.562 709.4 234.154 710.029 233.862C710.666 233.57 711.399 233.424 712.23 233.424C713.166 233.424 713.964 233.611 714.623 233.985C715.281 234.36 715.817 234.861 716.229 235.49C716.648 236.119 716.955 236.827 717.149 237.613C717.344 238.399 717.441 239.208 717.441 240.039V240.791C717.441 241.637 717.385 242.498 717.273 243.374C717.168 244.243 716.962 245.074 716.655 245.867C716.356 246.661 715.918 247.372 715.341 248.001C714.765 248.622 714.012 249.117 713.084 249.483C712.163 249.843 711.025 250.022 709.67 250.022H709.457V248.259Z" fill="#666666"/>
<path d="M818.48 233.559V250H816.402V236.153L812.213 237.68V235.805L818.154 233.559H818.48ZM834.394 240.521V243.015C834.394 244.355 834.274 245.485 834.034 246.406C833.795 247.327 833.45 248.068 833.001 248.63C832.552 249.191 832.009 249.599 831.373 249.854C830.744 250.101 830.032 250.225 829.239 250.225C828.61 250.225 828.03 250.146 827.498 249.989C826.966 249.832 826.487 249.581 826.061 249.236C825.641 248.884 825.282 248.428 824.982 247.866C824.683 247.305 824.455 246.623 824.297 245.822C824.14 245.021 824.062 244.085 824.062 243.015V240.521C824.062 239.181 824.181 238.058 824.421 237.152C824.668 236.246 825.016 235.52 825.465 234.974C825.915 234.42 826.454 234.023 827.082 233.783C827.719 233.544 828.43 233.424 829.216 233.424C829.853 233.424 830.437 233.502 830.968 233.66C831.507 233.809 831.986 234.053 832.406 234.39C832.825 234.719 833.181 235.161 833.473 235.715C833.772 236.261 834 236.931 834.158 237.725C834.315 238.519 834.394 239.451 834.394 240.521ZM832.305 243.352V240.173C832.305 239.44 832.26 238.796 832.17 238.242C832.088 237.68 831.964 237.201 831.799 236.804C831.635 236.407 831.425 236.085 831.17 235.838C830.923 235.591 830.635 235.412 830.306 235.299C829.984 235.18 829.621 235.12 829.216 235.12C828.722 235.12 828.284 235.213 827.902 235.4C827.52 235.58 827.199 235.868 826.937 236.265C826.682 236.662 826.487 237.182 826.353 237.826C826.218 238.47 826.15 239.252 826.15 240.173V243.352C826.15 244.085 826.192 244.733 826.274 245.294C826.364 245.856 826.495 246.343 826.667 246.754C826.839 247.159 827.049 247.492 827.296 247.754C827.543 248.016 827.827 248.211 828.149 248.338C828.479 248.458 828.842 248.518 829.239 248.518C829.748 248.518 830.193 248.42 830.575 248.226C830.957 248.031 831.275 247.728 831.53 247.316C831.792 246.897 831.986 246.361 832.114 245.71C832.241 245.051 832.305 244.265 832.305 243.352Z" fill="#666666"/>
<path d="M91.4795 333.559V350H89.4019V336.153L85.2129 337.68V335.805L91.1538 333.559H91.4795ZM103.957 333.559V350H101.879V336.153L97.6904 337.68V335.805L103.631 333.559H103.957Z" fill="#666666"/>
<path d="M215.48 333.559V350H213.402V336.153L209.213 337.68V335.805L215.154 333.559H215.48ZM231.843 348.293V350H221.14V348.506L226.497 342.543C227.156 341.809 227.665 341.188 228.024 340.679C228.391 340.162 228.646 339.702 228.788 339.297C228.938 338.886 229.013 338.466 229.013 338.04C229.013 337.5 228.9 337.014 228.676 336.58C228.459 336.138 228.137 335.786 227.71 335.524C227.283 335.262 226.767 335.131 226.16 335.131C225.434 335.131 224.827 335.273 224.341 335.558C223.862 335.835 223.502 336.224 223.263 336.726C223.023 337.227 222.903 337.804 222.903 338.455H220.826C220.826 337.534 221.028 336.692 221.432 335.928C221.836 335.165 222.435 334.558 223.229 334.109C224.023 333.652 225 333.424 226.16 333.424C227.193 333.424 228.077 333.607 228.811 333.974C229.544 334.333 230.106 334.843 230.495 335.501C230.892 336.153 231.09 336.917 231.09 337.792C231.09 338.272 231.008 338.758 230.843 339.252C230.686 339.739 230.465 340.226 230.181 340.712C229.904 341.199 229.578 341.678 229.204 342.15C228.837 342.622 228.444 343.086 228.024 343.542L223.645 348.293H231.843Z" fill="#666666"/>
<path d="M333.48 333.559V350H331.402V336.153L327.213 337.68V335.805L333.154 333.559H333.48ZM342.161 340.802H343.644C344.37 340.802 344.969 340.682 345.44 340.443C345.92 340.196 346.275 339.863 346.507 339.443C346.747 339.017 346.867 338.537 346.867 338.006C346.867 337.377 346.762 336.849 346.552 336.422C346.343 335.996 346.028 335.674 345.609 335.457C345.19 335.239 344.658 335.131 344.014 335.131C343.43 335.131 342.914 335.247 342.464 335.479C342.023 335.704 341.674 336.026 341.42 336.445C341.173 336.864 341.049 337.358 341.049 337.927H338.972C338.972 337.096 339.181 336.34 339.601 335.659C340.02 334.977 340.608 334.435 341.364 334.03C342.127 333.626 343.011 333.424 344.014 333.424C345.002 333.424 345.867 333.6 346.608 333.952C347.35 334.296 347.926 334.813 348.338 335.501C348.75 336.183 348.956 337.033 348.956 338.051C348.956 338.463 348.858 338.904 348.664 339.376C348.476 339.84 348.181 340.274 347.776 340.679C347.38 341.083 346.863 341.416 346.227 341.678C345.59 341.933 344.826 342.06 343.936 342.06H342.161V340.802ZM342.161 342.509V341.263H343.936C344.976 341.263 345.837 341.386 346.519 341.633C347.2 341.88 347.735 342.21 348.124 342.622C348.521 343.033 348.798 343.486 348.956 343.98C349.12 344.467 349.203 344.954 349.203 345.44C349.203 346.204 349.072 346.882 348.81 347.473C348.555 348.065 348.192 348.566 347.72 348.978C347.256 349.39 346.709 349.701 346.081 349.91C345.452 350.12 344.767 350.225 344.025 350.225C343.314 350.225 342.644 350.124 342.015 349.921C341.394 349.719 340.843 349.427 340.364 349.045C339.885 348.656 339.511 348.181 339.241 347.619C338.972 347.05 338.837 346.403 338.837 345.676H340.915C340.915 346.245 341.038 346.743 341.285 347.17C341.54 347.597 341.899 347.93 342.363 348.169C342.835 348.402 343.389 348.518 344.025 348.518C344.662 348.518 345.208 348.409 345.665 348.192C346.129 347.967 346.485 347.63 346.732 347.181C346.986 346.732 347.114 346.167 347.114 345.485C347.114 344.804 346.971 344.246 346.687 343.812C346.402 343.37 345.998 343.045 345.474 342.835C344.957 342.618 344.347 342.509 343.644 342.509H342.161Z" fill="#666666"/>
<path d="M458.48 333.559V350H456.402V336.153L452.213 337.68V335.805L458.154 333.559H458.48ZM475.18 344.497V346.204H463.365V344.98L470.687 333.648H472.383L470.564 336.928L465.724 344.497H475.18ZM472.9 333.648V350H470.822V333.648H472.9Z" fill="#666666"/>
<path d="M579.48 333.559V350H577.402V336.153L573.213 337.68V335.805L579.154 333.559H579.48ZM587.757 342.217L586.095 341.791L586.915 333.648H595.304V335.569H588.678L588.184 340.016C588.483 339.844 588.861 339.683 589.318 339.533C589.782 339.383 590.314 339.309 590.913 339.309C591.669 339.309 592.346 339.44 592.945 339.702C593.544 339.956 594.053 340.323 594.473 340.802C594.899 341.281 595.225 341.858 595.45 342.532C595.674 343.206 595.787 343.958 595.787 344.789C595.787 345.575 595.678 346.298 595.461 346.957C595.251 347.615 594.933 348.192 594.506 348.686C594.08 349.173 593.541 349.551 592.889 349.82C592.245 350.09 591.485 350.225 590.609 350.225C589.951 350.225 589.325 350.135 588.734 349.955C588.15 349.768 587.626 349.487 587.162 349.113C586.705 348.731 586.331 348.259 586.039 347.698C585.754 347.129 585.574 346.462 585.499 345.699H587.476C587.566 346.313 587.746 346.829 588.015 347.249C588.285 347.668 588.637 347.986 589.071 348.203C589.513 348.413 590.025 348.518 590.609 348.518C591.103 348.518 591.541 348.431 591.923 348.259C592.305 348.087 592.627 347.84 592.889 347.518C593.151 347.196 593.35 346.807 593.484 346.35C593.627 345.893 593.698 345.381 593.698 344.812C593.698 344.295 593.627 343.816 593.484 343.374C593.342 342.932 593.129 342.547 592.844 342.217C592.567 341.888 592.227 341.633 591.822 341.454C591.418 341.266 590.954 341.173 590.43 341.173C589.733 341.173 589.206 341.266 588.846 341.454C588.494 341.641 588.131 341.895 587.757 342.217Z" fill="#666666"/>
<path d="M700.48 333.559V350H698.402V336.153L694.213 337.68V335.805L700.154 333.559H700.48ZM714.103 333.626H714.282V335.389H714.103C713.002 335.389 712.081 335.569 711.34 335.928C710.599 336.28 710.011 336.756 709.577 337.354C709.142 337.946 708.828 338.612 708.633 339.354C708.446 340.095 708.353 340.847 708.353 341.611V344.014C708.353 344.74 708.439 345.384 708.611 345.946C708.783 346.5 709.019 346.968 709.318 347.35C709.618 347.731 709.955 348.02 710.329 348.214C710.711 348.409 711.108 348.506 711.52 348.506C711.999 348.506 712.425 348.417 712.8 348.237C713.174 348.05 713.489 347.791 713.743 347.462C714.005 347.125 714.204 346.728 714.338 346.271C714.473 345.815 714.541 345.313 714.541 344.767C714.541 344.28 714.481 343.812 714.361 343.363C714.241 342.906 714.058 342.502 713.811 342.15C713.563 341.791 713.253 341.51 712.878 341.308C712.512 341.098 712.074 340.993 711.564 340.993C710.988 340.993 710.449 341.135 709.947 341.42C709.453 341.697 709.045 342.064 708.723 342.521C708.409 342.97 708.229 343.46 708.184 343.992L707.083 343.98C707.188 343.142 707.383 342.427 707.667 341.835C707.959 341.236 708.319 340.75 708.746 340.375C709.18 339.994 709.663 339.717 710.194 339.544C710.733 339.365 711.302 339.275 711.901 339.275C712.717 339.275 713.421 339.428 714.013 339.735C714.604 340.042 715.091 340.454 715.473 340.971C715.854 341.48 716.135 342.056 716.315 342.7C716.502 343.337 716.596 343.992 716.596 344.666C716.596 345.437 716.487 346.159 716.27 346.833C716.053 347.507 715.727 348.098 715.293 348.607C714.866 349.117 714.338 349.513 713.709 349.798C713.081 350.082 712.351 350.225 711.52 350.225C710.636 350.225 709.865 350.045 709.206 349.686C708.547 349.319 708.001 348.832 707.566 348.226C707.132 347.619 706.806 346.945 706.589 346.204C706.372 345.463 706.264 344.71 706.264 343.947V342.97C706.264 341.817 706.38 340.686 706.612 339.578C706.844 338.47 707.244 337.467 707.813 336.568C708.39 335.67 709.187 334.955 710.206 334.423C711.224 333.892 712.523 333.626 714.103 333.626Z" fill="#666666"/>
<path d="M819.48 333.559V350H817.402V336.153L813.213 337.68V335.805L819.154 333.559H819.48ZM835.697 333.648V334.816L828.925 350H826.735L833.496 335.355H824.646V333.648H835.697Z" fill="#666666"/>
<path d="M91.4795 430.559V447H89.4019V433.153L85.2129 434.68V432.805L91.1538 430.559H91.4795ZM107.438 442.575C107.438 443.571 107.206 444.417 106.742 445.113C106.285 445.802 105.664 446.326 104.878 446.686C104.099 447.045 103.22 447.225 102.239 447.225C101.258 447.225 100.374 447.045 99.5884 446.686C98.8022 446.326 98.1808 445.802 97.7241 445.113C97.2674 444.417 97.039 443.571 97.039 442.575C97.039 441.924 97.1626 441.329 97.4096 440.79C97.6642 440.243 98.0198 439.768 98.4765 439.363C98.9407 438.959 99.4873 438.648 100.116 438.431C100.753 438.207 101.453 438.094 102.216 438.094C103.22 438.094 104.114 438.289 104.9 438.678C105.687 439.06 106.304 439.588 106.753 440.262C107.21 440.936 107.438 441.707 107.438 442.575ZM105.35 442.53C105.35 441.924 105.219 441.389 104.957 440.924C104.694 440.453 104.328 440.086 103.856 439.824C103.384 439.562 102.838 439.431 102.216 439.431C101.58 439.431 101.03 439.562 100.565 439.824C100.109 440.086 99.7531 440.453 99.4985 440.924C99.244 441.389 99.1167 441.924 99.1167 442.53C99.1167 443.159 99.2402 443.698 99.4873 444.147C99.7418 444.589 100.101 444.93 100.565 445.169C101.037 445.402 101.595 445.518 102.239 445.518C102.883 445.518 103.437 445.402 103.901 445.169C104.365 444.93 104.721 444.589 104.968 444.147C105.222 443.698 105.35 443.159 105.35 442.53ZM107.057 434.905C107.057 435.698 106.847 436.413 106.428 437.05C106.008 437.686 105.436 438.188 104.709 438.555C103.983 438.922 103.16 439.105 102.239 439.105C101.303 439.105 100.468 438.922 99.7344 438.555C99.0081 438.188 98.4391 437.686 98.0273 437.05C97.6155 436.413 97.4096 435.698 97.4096 434.905C97.4096 433.954 97.6155 433.145 98.0273 432.479C98.4466 431.813 99.0193 431.304 99.7456 430.952C100.472 430.6 101.299 430.424 102.228 430.424C103.163 430.424 103.994 430.6 104.721 430.952C105.447 431.304 106.016 431.813 106.428 432.479C106.847 433.145 107.057 433.954 107.057 434.905ZM104.979 434.938C104.979 434.392 104.863 433.909 104.631 433.49C104.399 433.07 104.077 432.741 103.665 432.501C103.253 432.254 102.774 432.131 102.228 432.131C101.681 432.131 101.202 432.247 100.79 432.479C100.386 432.704 100.068 433.026 99.8354 433.445C99.6108 433.864 99.4985 434.362 99.4985 434.938C99.4985 435.5 99.6108 435.99 99.8354 436.41C100.068 436.829 100.389 437.155 100.801 437.387C101.213 437.619 101.692 437.735 102.239 437.735C102.785 437.735 103.261 437.619 103.665 437.387C104.077 437.155 104.399 436.829 104.631 436.41C104.863 435.99 104.979 435.5 104.979 434.938Z" fill="#666666"/>
<path d="M215.48 430.559V447H213.402V433.153L209.213 434.68V432.805L215.154 430.559H215.48ZM223.195 445.259H223.409C224.607 445.259 225.58 445.091 226.329 444.754C227.077 444.417 227.654 443.964 228.058 443.395C228.462 442.826 228.739 442.186 228.889 441.475C229.039 440.756 229.114 440.018 229.114 439.262V436.758C229.114 436.017 229.028 435.358 228.855 434.781C228.691 434.205 228.459 433.722 228.159 433.333C227.867 432.943 227.534 432.647 227.16 432.445C226.785 432.243 226.388 432.142 225.969 432.142C225.49 432.142 225.06 432.239 224.678 432.434C224.303 432.621 223.985 432.887 223.723 433.231C223.469 433.576 223.274 433.98 223.139 434.444C223.004 434.909 222.937 435.414 222.937 435.96C222.937 436.447 222.997 436.919 223.117 437.375C223.236 437.832 223.42 438.244 223.667 438.611C223.914 438.978 224.221 439.27 224.588 439.487C224.962 439.696 225.4 439.801 225.902 439.801C226.366 439.801 226.8 439.711 227.205 439.532C227.616 439.345 227.979 439.094 228.294 438.779C228.616 438.457 228.87 438.094 229.058 437.69C229.252 437.286 229.365 436.863 229.395 436.421H230.383C230.383 437.042 230.259 437.656 230.012 438.263C229.773 438.862 229.436 439.408 229.001 439.902C228.567 440.396 228.058 440.793 227.474 441.093C226.89 441.385 226.254 441.531 225.565 441.531C224.756 441.531 224.056 441.374 223.465 441.059C222.873 440.745 222.387 440.325 222.005 439.801C221.631 439.277 221.35 438.693 221.163 438.049C220.983 437.398 220.893 436.739 220.893 436.073C220.893 435.294 221.002 434.564 221.219 433.883C221.436 433.201 221.758 432.603 222.185 432.086C222.611 431.562 223.139 431.154 223.768 430.862C224.404 430.57 225.138 430.424 225.969 430.424C226.905 430.424 227.702 430.611 228.361 430.985C229.02 431.36 229.555 431.861 229.967 432.49C230.387 433.119 230.694 433.827 230.888 434.613C231.083 435.399 231.18 436.208 231.18 437.039V437.791C231.18 438.637 231.124 439.498 231.012 440.374C230.907 441.243 230.701 442.074 230.394 442.867C230.095 443.661 229.657 444.372 229.08 445.001C228.504 445.622 227.751 446.117 226.823 446.483C225.902 446.843 224.764 447.022 223.409 447.022H223.195V445.259Z" fill="#666666"/>
<path d="M337.365 445.293V447H326.663V445.506L332.02 439.543C332.678 438.809 333.188 438.188 333.547 437.679C333.914 437.162 334.168 436.702 334.311 436.297C334.46 435.886 334.535 435.466 334.535 435.04C334.535 434.5 334.423 434.014 334.198 433.58C333.981 433.138 333.659 432.786 333.232 432.524C332.806 432.262 332.289 432.131 331.683 432.131C330.956 432.131 330.35 432.273 329.863 432.558C329.384 432.835 329.025 433.224 328.785 433.726C328.546 434.227 328.426 434.804 328.426 435.455H326.348C326.348 434.534 326.55 433.692 326.955 432.928C327.359 432.165 327.958 431.558 328.751 431.109C329.545 430.652 330.522 430.424 331.683 430.424C332.716 430.424 333.599 430.607 334.333 430.974C335.067 431.333 335.628 431.843 336.018 432.501C336.414 433.153 336.613 433.917 336.613 434.792C336.613 435.272 336.53 435.758 336.366 436.252C336.209 436.739 335.988 437.226 335.703 437.712C335.426 438.199 335.1 438.678 334.726 439.15C334.359 439.622 333.966 440.086 333.547 440.542L329.167 445.293H337.365ZM349.394 437.521V440.015C349.394 441.355 349.274 442.485 349.034 443.406C348.795 444.327 348.45 445.068 348.001 445.63C347.552 446.191 347.009 446.599 346.373 446.854C345.744 447.101 345.032 447.225 344.239 447.225C343.61 447.225 343.03 447.146 342.498 446.989C341.966 446.832 341.487 446.581 341.061 446.236C340.641 445.884 340.282 445.428 339.982 444.866C339.683 444.305 339.455 443.623 339.297 442.822C339.14 442.021 339.062 441.085 339.062 440.015V437.521C339.062 436.181 339.181 435.058 339.421 434.152C339.668 433.246 340.016 432.52 340.465 431.974C340.915 431.42 341.454 431.023 342.082 430.783C342.719 430.544 343.43 430.424 344.216 430.424C344.853 430.424 345.437 430.502 345.968 430.66C346.507 430.809 346.986 431.053 347.406 431.39C347.825 431.719 348.181 432.161 348.473 432.715C348.772 433.261 349 433.931 349.158 434.725C349.315 435.519 349.394 436.451 349.394 437.521ZM347.305 440.352V437.173C347.305 436.44 347.26 435.796 347.17 435.242C347.088 434.68 346.964 434.201 346.799 433.804C346.635 433.407 346.425 433.085 346.17 432.838C345.923 432.591 345.635 432.412 345.306 432.299C344.984 432.18 344.621 432.12 344.216 432.12C343.722 432.12 343.284 432.213 342.902 432.4C342.52 432.58 342.199 432.868 341.937 433.265C341.682 433.662 341.487 434.182 341.353 434.826C341.218 435.47 341.15 436.252 341.15 437.173V440.352C341.15 441.085 341.192 441.733 341.274 442.294C341.364 442.856 341.495 443.343 341.667 443.754C341.839 444.159 342.049 444.492 342.296 444.754C342.543 445.016 342.827 445.211 343.149 445.338C343.479 445.458 343.842 445.518 344.239 445.518C344.748 445.518 345.193 445.42 345.575 445.226C345.957 445.031 346.275 444.728 346.53 444.316C346.792 443.897 346.986 443.361 347.114 442.71C347.241 442.051 347.305 441.265 347.305 440.352Z" fill="#666666"/>
<path d="M462.365 445.293V447H451.663V445.506L457.02 439.543C457.678 438.809 458.188 438.188 458.547 437.679C458.914 437.162 459.168 436.702 459.311 436.297C459.46 435.886 459.535 435.466 459.535 435.04C459.535 434.5 459.423 434.014 459.198 433.58C458.981 433.138 458.659 432.786 458.232 432.524C457.806 432.262 457.289 432.131 456.683 432.131C455.956 432.131 455.35 432.273 454.863 432.558C454.384 432.835 454.025 433.224 453.785 433.726C453.546 434.227 453.426 434.804 453.426 435.455H451.348C451.348 434.534 451.55 433.692 451.955 432.928C452.359 432.165 452.958 431.558 453.751 431.109C454.545 430.652 455.522 430.424 456.683 430.424C457.716 430.424 458.599 430.607 459.333 430.974C460.067 431.333 460.628 431.843 461.018 432.501C461.414 433.153 461.613 433.917 461.613 434.792C461.613 435.272 461.53 435.758 461.366 436.252C461.209 436.739 460.988 437.226 460.703 437.712C460.426 438.199 460.1 438.678 459.726 439.15C459.359 439.622 458.966 440.086 458.547 440.542L454.167 445.293H462.365ZM470.957 430.559V447H468.879V433.153L464.69 434.68V432.805L470.631 430.559H470.957Z" fill="#666666"/>
<path d="M583.365 445.293V447H572.663V445.506L578.02 439.543C578.678 438.809 579.188 438.188 579.547 437.679C579.914 437.162 580.168 436.702 580.311 436.297C580.46 435.886 580.535 435.466 580.535 435.04C580.535 434.5 580.423 434.014 580.198 433.58C579.981 433.138 579.659 432.786 579.232 432.524C578.806 432.262 578.289 432.131 577.683 432.131C576.956 432.131 576.35 432.273 575.863 432.558C575.384 432.835 575.025 433.224 574.785 433.726C574.546 434.227 574.426 434.804 574.426 435.455H572.348C572.348 434.534 572.55 433.692 572.955 432.928C573.359 432.165 573.958 431.558 574.751 431.109C575.545 430.652 576.522 430.424 577.683 430.424C578.716 430.424 579.599 430.607 580.333 430.974C581.067 431.333 581.628 431.843 582.018 432.501C582.414 433.153 582.613 433.917 582.613 434.792C582.613 435.272 582.53 435.758 582.366 436.252C582.209 436.739 581.988 437.226 581.703 437.712C581.426 438.199 581.1 438.678 580.726 439.15C580.359 439.622 579.966 440.086 579.547 440.542L575.167 445.293H583.365ZM595.843 445.293V447H585.14V445.506L590.497 439.543C591.156 438.809 591.665 438.188 592.024 437.679C592.391 437.162 592.646 436.702 592.788 436.297C592.938 435.886 593.013 435.466 593.013 435.04C593.013 434.5 592.9 434.014 592.676 433.58C592.459 433.138 592.137 432.786 591.71 432.524C591.283 432.262 590.767 432.131 590.16 432.131C589.434 432.131 588.827 432.273 588.341 432.558C587.862 432.835 587.502 433.224 587.263 433.726C587.023 434.227 586.903 434.804 586.903 435.455H584.826C584.826 434.534 585.028 433.692 585.432 432.928C585.836 432.165 586.435 431.558 587.229 431.109C588.023 430.652 589 430.424 590.16 430.424C591.193 430.424 592.077 430.607 592.811 430.974C593.544 431.333 594.106 431.843 594.495 432.501C594.892 433.153 595.09 433.917 595.09 434.792C595.09 435.272 595.008 435.758 594.843 436.252C594.686 436.739 594.465 437.226 594.181 437.712C593.904 438.199 593.578 438.678 593.204 439.15C592.837 439.622 592.444 440.086 592.024 440.542L587.645 445.293H595.843Z" fill="#666666"/>
<path d="M704.365 445.293V447H693.663V445.506L699.02 439.543C699.678 438.809 700.188 438.188 700.547 437.679C700.914 437.162 701.168 436.702 701.311 436.297C701.46 435.886 701.535 435.466 701.535 435.04C701.535 434.5 701.423 434.014 701.198 433.58C700.981 433.138 700.659 432.786 700.232 432.524C699.806 432.262 699.289 432.131 698.683 432.131C697.956 432.131 697.35 432.273 696.863 432.558C696.384 432.835 696.025 433.224 695.785 433.726C695.546 434.227 695.426 434.804 695.426 435.455H693.348C693.348 434.534 693.55 433.692 693.955 432.928C694.359 432.165 694.958 431.558 695.751 431.109C696.545 430.652 697.522 430.424 698.683 430.424C699.716 430.424 700.599 430.607 701.333 430.974C702.067 431.333 702.628 431.843 703.018 432.501C703.414 433.153 703.613 433.917 703.613 434.792C703.613 435.272 703.53 435.758 703.366 436.252C703.209 436.739 702.988 437.226 702.703 437.712C702.426 438.199 702.1 438.678 701.726 439.15C701.359 439.622 700.966 440.086 700.547 440.542L696.167 445.293H704.365ZM709.161 437.802H710.644C711.37 437.802 711.969 437.682 712.44 437.443C712.92 437.196 713.275 436.863 713.507 436.443C713.747 436.017 713.867 435.537 713.867 435.006C713.867 434.377 713.762 433.849 713.552 433.422C713.343 432.996 713.028 432.674 712.609 432.457C712.19 432.239 711.658 432.131 711.014 432.131C710.43 432.131 709.914 432.247 709.464 432.479C709.023 432.704 708.674 433.026 708.42 433.445C708.173 433.864 708.049 434.358 708.049 434.927H705.972C705.972 434.096 706.181 433.34 706.601 432.659C707.02 431.977 707.608 431.435 708.364 431.03C709.127 430.626 710.011 430.424 711.014 430.424C712.002 430.424 712.867 430.6 713.608 430.952C714.35 431.296 714.926 431.813 715.338 432.501C715.75 433.183 715.956 434.033 715.956 435.051C715.956 435.463 715.858 435.904 715.664 436.376C715.476 436.84 715.181 437.274 714.776 437.679C714.38 438.083 713.863 438.416 713.227 438.678C712.59 438.933 711.826 439.06 710.936 439.06H709.161V437.802ZM709.161 439.509V438.263H710.936C711.976 438.263 712.837 438.386 713.519 438.633C714.2 438.88 714.735 439.21 715.124 439.622C715.521 440.033 715.798 440.486 715.956 440.98C716.12 441.467 716.203 441.954 716.203 442.44C716.203 443.204 716.072 443.882 715.81 444.473C715.555 445.065 715.192 445.566 714.72 445.978C714.256 446.39 713.709 446.701 713.081 446.91C712.452 447.12 711.767 447.225 711.025 447.225C710.314 447.225 709.644 447.124 709.015 446.921C708.394 446.719 707.843 446.427 707.364 446.045C706.885 445.656 706.511 445.181 706.241 444.619C705.972 444.05 705.837 443.403 705.837 442.676H707.915C707.915 443.245 708.038 443.743 708.285 444.17C708.54 444.597 708.899 444.93 709.363 445.169C709.835 445.402 710.389 445.518 711.025 445.518C711.662 445.518 712.208 445.409 712.665 445.192C713.129 444.967 713.485 444.63 713.732 444.181C713.986 443.732 714.114 443.167 714.114 442.485C714.114 441.804 713.971 441.246 713.687 440.812C713.402 440.37 712.998 440.045 712.474 439.835C711.957 439.618 711.347 439.509 710.644 439.509H709.161Z" fill="#666666"/>
<path d="M823.365 445.293V447H812.663V445.506L818.02 439.543C818.678 438.809 819.188 438.188 819.547 437.679C819.914 437.162 820.168 436.702 820.311 436.297C820.46 435.886 820.535 435.466 820.535 435.04C820.535 434.5 820.423 434.014 820.198 433.58C819.981 433.138 819.659 432.786 819.232 432.524C818.806 432.262 818.289 432.131 817.683 432.131C816.956 432.131 816.35 432.273 815.863 432.558C815.384 432.835 815.025 433.224 814.785 433.726C814.546 434.227 814.426 434.804 814.426 435.455H812.348C812.348 434.534 812.55 433.692 812.955 432.928C813.359 432.165 813.958 431.558 814.751 431.109C815.545 430.652 816.522 430.424 817.683 430.424C818.716 430.424 819.599 430.607 820.333 430.974C821.067 431.333 821.628 431.843 822.018 432.501C822.414 433.153 822.613 433.917 822.613 434.792C822.613 435.272 822.53 435.758 822.366 436.252C822.209 436.739 821.988 437.226 821.703 437.712C821.426 438.199 821.1 438.678 820.726 439.15C820.359 439.622 819.966 440.086 819.547 440.542L815.167 445.293H823.365ZM836.18 441.497V443.204H824.365V441.98L831.687 430.648H833.383L831.564 433.928L826.724 441.497H836.18ZM833.9 430.648V447H831.822V430.648H833.9Z" fill="#666666"/>
<path d="M95.3653 539.293V541H84.6626V539.506L90.0196 533.543C90.6784 532.809 91.1875 532.188 91.5469 531.679C91.9138 531.162 92.1683 530.702 92.3106 530.297C92.4603 529.886 92.5352 529.466 92.5352 529.04C92.5352 528.5 92.4229 528.014 92.1983 527.58C91.9811 527.138 91.6592 526.786 91.2324 526.524C90.8057 526.262 90.2891 526.131 89.6826 526.131C88.9564 526.131 88.35 526.273 87.8633 526.558C87.3841 526.835 87.0248 527.224 86.7852 527.726C86.5456 528.227 86.4258 528.804 86.4258 529.455H84.3482C84.3482 528.534 84.5503 527.692 84.9546 526.928C85.3589 526.165 85.9579 525.558 86.7515 525.109C87.5451 524.652 88.5222 524.424 89.6826 524.424C90.7158 524.424 91.5993 524.607 92.333 524.974C93.0668 525.333 93.6283 525.843 94.0176 526.501C94.4144 527.153 94.6128 527.917 94.6128 528.792C94.6128 529.272 94.5305 529.758 94.3657 530.252C94.2085 530.739 93.9876 531.226 93.7031 531.712C93.4261 532.199 93.1004 532.678 92.7261 533.15C92.3592 533.622 91.9662 534.086 91.5469 534.542L87.167 539.293H95.3653ZM99.7568 533.217L98.0947 532.791L98.9145 524.648H107.304V526.569H100.678L100.184 531.016C100.483 530.844 100.861 530.683 101.318 530.533C101.782 530.383 102.314 530.309 102.913 530.309C103.669 530.309 104.346 530.44 104.945 530.702C105.544 530.956 106.053 531.323 106.473 531.802C106.899 532.281 107.225 532.858 107.45 533.532C107.674 534.206 107.787 534.958 107.787 535.789C107.787 536.575 107.678 537.298 107.461 537.957C107.251 538.615 106.933 539.192 106.506 539.686C106.08 540.173 105.541 540.551 104.889 540.82C104.245 541.09 103.485 541.225 102.609 541.225C101.951 541.225 101.325 541.135 100.734 540.955C100.15 540.768 99.6258 540.487 99.1616 540.113C98.7049 539.731 98.3305 539.259 98.0386 538.698C97.754 538.129 97.5744 537.462 97.4995 536.699H99.4761C99.5659 537.313 99.7456 537.829 100.015 538.249C100.285 538.668 100.637 538.986 101.071 539.203C101.513 539.413 102.025 539.518 102.609 539.518C103.103 539.518 103.541 539.431 103.923 539.259C104.305 539.087 104.627 538.84 104.889 538.518C105.151 538.196 105.35 537.807 105.484 537.35C105.627 536.893 105.698 536.381 105.698 535.812C105.698 535.295 105.627 534.816 105.484 534.374C105.342 533.932 105.129 533.547 104.844 533.217C104.567 532.888 104.227 532.633 103.822 532.454C103.418 532.266 102.954 532.173 102.43 532.173C101.733 532.173 101.206 532.266 100.846 532.454C100.494 532.641 100.131 532.895 99.7568 533.217Z" fill="#666666"/>
<path d="M219.365 539.293V541H208.663V539.506L214.02 533.543C214.678 532.809 215.188 532.188 215.547 531.679C215.914 531.162 216.168 530.702 216.311 530.297C216.46 529.886 216.535 529.466 216.535 529.04C216.535 528.5 216.423 528.014 216.198 527.58C215.981 527.138 215.659 526.786 215.232 526.524C214.806 526.262 214.289 526.131 213.683 526.131C212.956 526.131 212.35 526.273 211.863 526.558C211.384 526.835 211.025 527.224 210.785 527.726C210.546 528.227 210.426 528.804 210.426 529.455H208.348C208.348 528.534 208.55 527.692 208.955 526.928C209.359 526.165 209.958 525.558 210.751 525.109C211.545 524.652 212.522 524.424 213.683 524.424C214.716 524.424 215.599 524.607 216.333 524.974C217.067 525.333 217.628 525.843 218.018 526.501C218.414 527.153 218.613 527.917 218.613 528.792C218.613 529.272 218.53 529.758 218.366 530.252C218.209 530.739 217.988 531.226 217.703 531.712C217.426 532.199 217.1 532.678 216.726 533.15C216.359 533.622 215.966 534.086 215.547 534.542L211.167 539.293H219.365ZM229.103 524.626H229.282V526.389H229.103C228.002 526.389 227.081 526.569 226.34 526.928C225.599 527.28 225.011 527.756 224.577 528.354C224.142 528.946 223.828 529.612 223.633 530.354C223.446 531.095 223.353 531.847 223.353 532.611V535.014C223.353 535.74 223.439 536.384 223.611 536.946C223.783 537.5 224.019 537.968 224.318 538.35C224.618 538.731 224.955 539.02 225.329 539.214C225.711 539.409 226.108 539.506 226.52 539.506C226.999 539.506 227.425 539.417 227.8 539.237C228.174 539.05 228.489 538.791 228.743 538.462C229.005 538.125 229.204 537.728 229.338 537.271C229.473 536.815 229.541 536.313 229.541 535.767C229.541 535.28 229.481 534.812 229.361 534.363C229.241 533.906 229.058 533.502 228.811 533.15C228.563 532.791 228.253 532.51 227.878 532.308C227.512 532.098 227.074 531.993 226.564 531.993C225.988 531.993 225.449 532.135 224.947 532.42C224.453 532.697 224.045 533.064 223.723 533.521C223.409 533.97 223.229 534.46 223.184 534.992L222.083 534.98C222.188 534.142 222.383 533.427 222.667 532.835C222.959 532.236 223.319 531.75 223.746 531.375C224.18 530.994 224.663 530.717 225.194 530.544C225.733 530.365 226.302 530.275 226.901 530.275C227.717 530.275 228.421 530.428 229.013 530.735C229.604 531.042 230.091 531.454 230.473 531.971C230.854 532.48 231.135 533.056 231.315 533.7C231.502 534.337 231.596 534.992 231.596 535.666C231.596 536.437 231.487 537.159 231.27 537.833C231.053 538.507 230.727 539.098 230.293 539.607C229.866 540.117 229.338 540.513 228.709 540.798C228.081 541.082 227.351 541.225 226.52 541.225C225.636 541.225 224.865 541.045 224.206 540.686C223.547 540.319 223.001 539.832 222.566 539.226C222.132 538.619 221.806 537.945 221.589 537.204C221.372 536.463 221.264 535.71 221.264 534.947V533.97C221.264 532.817 221.38 531.686 221.612 530.578C221.844 529.47 222.244 528.467 222.813 527.568C223.39 526.67 224.187 525.955 225.206 525.423C226.224 524.892 227.523 524.626 229.103 524.626Z" fill="#666666"/>
<path d="M337.365 539.293V541H326.663V539.506L332.02 533.543C332.678 532.809 333.188 532.188 333.547 531.679C333.914 531.162 334.168 530.702 334.311 530.297C334.46 529.886 334.535 529.466 334.535 529.04C334.535 528.5 334.423 528.014 334.198 527.58C333.981 527.138 333.659 526.786 333.232 526.524C332.806 526.262 332.289 526.131 331.683 526.131C330.956 526.131 330.35 526.273 329.863 526.558C329.384 526.835 329.025 527.224 328.785 527.726C328.546 528.227 328.426 528.804 328.426 529.455H326.348C326.348 528.534 326.55 527.692 326.955 526.928C327.359 526.165 327.958 525.558 328.751 525.109C329.545 524.652 330.522 524.424 331.683 524.424C332.716 524.424 333.599 524.607 334.333 524.974C335.067 525.333 335.628 525.843 336.018 526.501C336.414 527.153 336.613 527.917 336.613 528.792C336.613 529.272 336.53 529.758 336.366 530.252C336.209 530.739 335.988 531.226 335.703 531.712C335.426 532.199 335.1 532.678 334.726 533.15C334.359 533.622 333.966 534.086 333.547 534.542L329.167 539.293H337.365ZM349.697 524.648V525.816L342.925 541H340.735L347.496 526.355H338.646V524.648H349.697Z" fill="#666666"/>
<path d="M462.365 539.293V541H451.663V539.506L457.02 533.543C457.678 532.809 458.188 532.188 458.547 531.679C458.914 531.162 459.168 530.702 459.311 530.297C459.46 529.886 459.535 529.466 459.535 529.04C459.535 528.5 459.423 528.014 459.198 527.58C458.981 527.138 458.659 526.786 458.232 526.524C457.806 526.262 457.289 526.131 456.683 526.131C455.956 526.131 455.35 526.273 454.863 526.558C454.384 526.835 454.025 527.224 453.785 527.726C453.546 528.227 453.426 528.804 453.426 529.455H451.348C451.348 528.534 451.55 527.692 451.955 526.928C452.359 526.165 452.958 525.558 453.751 525.109C454.545 524.652 455.522 524.424 456.683 524.424C457.716 524.424 458.599 524.607 459.333 524.974C460.067 525.333 460.628 525.843 461.018 526.501C461.414 527.153 461.613 527.917 461.613 528.792C461.613 529.272 461.53 529.758 461.366 530.252C461.209 530.739 460.988 531.226 460.703 531.712C460.426 532.199 460.1 532.678 459.726 533.15C459.359 533.622 458.966 534.086 458.547 534.542L454.167 539.293H462.365ZM474.438 536.575C474.438 537.571 474.206 538.417 473.742 539.113C473.285 539.802 472.664 540.326 471.878 540.686C471.099 541.045 470.22 541.225 469.239 541.225C468.258 541.225 467.374 541.045 466.588 540.686C465.802 540.326 465.181 539.802 464.724 539.113C464.267 538.417 464.039 537.571 464.039 536.575C464.039 535.924 464.163 535.329 464.41 534.79C464.664 534.243 465.02 533.768 465.477 533.363C465.941 532.959 466.487 532.648 467.116 532.431C467.753 532.207 468.453 532.094 469.216 532.094C470.22 532.094 471.114 532.289 471.9 532.678C472.687 533.06 473.304 533.588 473.753 534.262C474.21 534.936 474.438 535.707 474.438 536.575ZM472.35 536.53C472.35 535.924 472.219 535.389 471.957 534.924C471.694 534.453 471.328 534.086 470.856 533.824C470.384 533.562 469.838 533.431 469.216 533.431C468.58 533.431 468.03 533.562 467.565 533.824C467.109 534.086 466.753 534.453 466.499 534.924C466.244 535.389 466.117 535.924 466.117 536.53C466.117 537.159 466.24 537.698 466.487 538.147C466.742 538.589 467.101 538.93 467.565 539.169C468.037 539.402 468.595 539.518 469.239 539.518C469.883 539.518 470.437 539.402 470.901 539.169C471.365 538.93 471.721 538.589 471.968 538.147C472.222 537.698 472.35 537.159 472.35 536.53ZM474.057 528.905C474.057 529.698 473.847 530.413 473.428 531.05C473.008 531.686 472.436 532.188 471.709 532.555C470.983 532.922 470.16 533.105 469.239 533.105C468.303 533.105 467.468 532.922 466.734 532.555C466.008 532.188 465.439 531.686 465.027 531.05C464.616 530.413 464.41 529.698 464.41 528.905C464.41 527.954 464.616 527.145 465.027 526.479C465.447 525.813 466.019 525.304 466.746 524.952C467.472 524.6 468.299 524.424 469.228 524.424C470.163 524.424 470.994 524.6 471.721 524.952C472.447 525.304 473.016 525.813 473.428 526.479C473.847 527.145 474.057 527.954 474.057 528.905ZM471.979 528.938C471.979 528.392 471.863 527.909 471.631 527.49C471.399 527.07 471.077 526.741 470.665 526.501C470.253 526.254 469.774 526.131 469.228 526.131C468.681 526.131 468.202 526.247 467.79 526.479C467.386 526.704 467.068 527.026 466.835 527.445C466.611 527.864 466.499 528.362 466.499 528.938C466.499 529.5 466.611 529.99 466.835 530.41C467.068 530.829 467.389 531.155 467.801 531.387C468.213 531.619 468.692 531.735 469.239 531.735C469.785 531.735 470.261 531.619 470.665 531.387C471.077 531.155 471.399 530.829 471.631 530.41C471.863 529.99 471.979 529.5 471.979 528.938Z" fill="#666666"/>
<path d="M584.365 539.293V541H573.663V539.506L579.02 533.543C579.678 532.809 580.188 532.188 580.547 531.679C580.914 531.162 581.168 530.702 581.311 530.297C581.46 529.886 581.535 529.466 581.535 529.04C581.535 528.5 581.423 528.014 581.198 527.58C580.981 527.138 580.659 526.786 580.232 526.524C579.806 526.262 579.289 526.131 578.683 526.131C577.956 526.131 577.35 526.273 576.863 526.558C576.384 526.835 576.025 527.224 575.785 527.726C575.546 528.227 575.426 528.804 575.426 529.455H573.348C573.348 528.534 573.55 527.692 573.955 526.928C574.359 526.165 574.958 525.558 575.751 525.109C576.545 524.652 577.522 524.424 578.683 524.424C579.716 524.424 580.599 524.607 581.333 524.974C582.067 525.333 582.628 525.843 583.018 526.501C583.414 527.153 583.613 527.917 583.613 528.792C583.613 529.272 583.53 529.758 583.366 530.252C583.209 530.739 582.988 531.226 582.703 531.712C582.426 532.199 582.1 532.678 581.726 533.15C581.359 533.622 580.966 534.086 580.547 534.542L576.167 539.293H584.365ZM588.195 539.259H588.409C589.607 539.259 590.58 539.091 591.329 538.754C592.077 538.417 592.654 537.964 593.058 537.395C593.462 536.826 593.739 536.186 593.889 535.475C594.039 534.756 594.114 534.018 594.114 533.262V530.758C594.114 530.017 594.028 529.358 593.855 528.781C593.691 528.205 593.459 527.722 593.159 527.333C592.867 526.943 592.534 526.647 592.16 526.445C591.785 526.243 591.388 526.142 590.969 526.142C590.49 526.142 590.06 526.239 589.678 526.434C589.303 526.621 588.985 526.887 588.723 527.231C588.469 527.576 588.274 527.98 588.139 528.444C588.004 528.909 587.937 529.414 587.937 529.96C587.937 530.447 587.997 530.919 588.117 531.375C588.236 531.832 588.42 532.244 588.667 532.611C588.914 532.978 589.221 533.27 589.588 533.487C589.962 533.696 590.4 533.801 590.902 533.801C591.366 533.801 591.8 533.711 592.205 533.532C592.616 533.345 592.979 533.094 593.294 532.779C593.616 532.457 593.87 532.094 594.058 531.69C594.252 531.286 594.365 530.863 594.395 530.421H595.383C595.383 531.042 595.259 531.656 595.012 532.263C594.773 532.862 594.436 533.408 594.001 533.902C593.567 534.396 593.058 534.793 592.474 535.093C591.89 535.385 591.254 535.531 590.565 535.531C589.756 535.531 589.056 535.374 588.465 535.059C587.873 534.745 587.387 534.325 587.005 533.801C586.631 533.277 586.35 532.693 586.163 532.049C585.983 531.398 585.893 530.739 585.893 530.073C585.893 529.294 586.002 528.564 586.219 527.883C586.436 527.201 586.758 526.603 587.185 526.086C587.611 525.562 588.139 525.154 588.768 524.862C589.404 524.57 590.138 524.424 590.969 524.424C591.905 524.424 592.702 524.611 593.361 524.985C594.02 525.36 594.555 525.861 594.967 526.49C595.387 527.119 595.694 527.827 595.888 528.613C596.083 529.399 596.18 530.208 596.18 531.039V531.791C596.18 532.637 596.124 533.498 596.012 534.374C595.907 535.243 595.701 536.074 595.394 536.867C595.095 537.661 594.657 538.372 594.08 539.001C593.504 539.622 592.751 540.117 591.823 540.483C590.902 540.843 589.764 541.022 588.409 541.022H588.195V539.259Z" fill="#666666"/>
<rect x="3.25" y="62.25" width="121.5" height="64.5" fill="white" stroke="#D9D9D9" stroke-width="0.5"/>
<path d="M51.4245 97.7041C51.4245 97.4404 51.3834 97.2061 51.3014 97.001C51.2252 96.7959 51.0875 96.6084 50.8883 96.4385C50.6891 96.2686 50.4079 96.1045 50.0446 95.9463C49.6871 95.7822 49.2301 95.6152 48.6735 95.4453C48.0641 95.2578 47.5016 95.0498 46.986 94.8213C46.4762 94.5869 46.0309 94.3174 45.65 94.0127C45.2692 93.7021 44.9733 93.3477 44.7623 92.9492C44.5514 92.5449 44.4459 92.0791 44.4459 91.5518C44.4459 91.0303 44.5543 90.5557 44.7711 90.1279C44.9938 89.7002 45.3073 89.3311 45.7116 89.0205C46.1217 88.7041 46.6051 88.4609 47.1618 88.291C47.7184 88.1152 48.3336 88.0273 49.0075 88.0273C49.9567 88.0273 50.7741 88.2031 51.4596 88.5547C52.151 88.9062 52.6813 89.3779 53.0504 89.9697C53.4254 90.5615 53.6129 91.2148 53.6129 91.9297H51.4245C51.4245 91.5078 51.3336 91.1357 51.152 90.8135C50.9762 90.4854 50.7067 90.2275 50.3434 90.04C49.986 89.8525 49.5319 89.7588 48.9811 89.7588C48.4596 89.7588 48.026 89.8379 47.6803 89.9961C47.3346 90.1543 47.0768 90.3682 46.9069 90.6377C46.737 90.9072 46.652 91.2119 46.652 91.5518C46.652 91.792 46.7077 92.0117 46.819 92.2109C46.9303 92.4043 47.1002 92.5859 47.3287 92.7559C47.5573 92.9199 47.8444 93.0752 48.1901 93.2217C48.5358 93.3682 48.943 93.5088 49.4118 93.6436C50.1207 93.8545 50.7389 94.0889 51.2662 94.3467C51.7936 94.5986 52.233 94.8857 52.5846 95.208C52.9362 95.5303 53.1998 95.8965 53.3756 96.3066C53.5514 96.7109 53.6393 97.1709 53.6393 97.6865C53.6393 98.2256 53.5309 98.7119 53.3141 99.1455C53.0973 99.5732 52.7868 99.9395 52.3825 100.244C51.984 100.543 51.5036 100.774 50.9411 100.938C50.3844 101.097 49.7633 101.176 49.0778 101.176C48.4625 101.176 47.8561 101.094 47.2584 100.93C46.6666 100.766 46.1276 100.517 45.6412 100.183C45.1549 99.8428 44.7682 99.4209 44.4811 98.917C44.194 98.4072 44.0504 97.8125 44.0504 97.1328H46.2565C46.2565 97.5488 46.3268 97.9033 46.4674 98.1963C46.6139 98.4893 46.8161 98.7295 47.0739 98.917C47.3317 99.0986 47.6305 99.2334 47.9704 99.3213C48.3161 99.4092 48.6852 99.4531 49.0778 99.4531C49.5934 99.4531 50.0241 99.3799 50.3698 99.2334C50.7213 99.0869 50.985 98.8818 51.1608 98.6182C51.3366 98.3545 51.4245 98.0498 51.4245 97.7041ZM60.7412 98.7588V91.4902H62.8682V101H60.8643L60.7412 98.7588ZM61.04 96.7812L61.752 96.7637C61.752 97.4023 61.6816 97.9912 61.541 98.5303C61.4004 99.0635 61.1836 99.5293 60.8906 99.9277C60.5977 100.32 60.2227 100.628 59.7656 100.851C59.3086 101.067 58.7607 101.176 58.1221 101.176C57.6592 101.176 57.2344 101.108 56.8477 100.974C56.4609 100.839 56.127 100.631 55.8457 100.35C55.5703 100.068 55.3564 99.7021 55.2041 99.251C55.0518 98.7998 54.9756 98.2607 54.9756 97.6338V91.4902H57.0938V97.6514C57.0938 97.9971 57.1348 98.2871 57.2168 98.5215C57.2988 98.75 57.4102 98.9346 57.5508 99.0752C57.6914 99.2158 57.8555 99.3154 58.043 99.374C58.2305 99.4326 58.4297 99.4619 58.6406 99.4619C59.2441 99.4619 59.7188 99.3447 60.0645 99.1104C60.416 98.8701 60.665 98.5479 60.8115 98.1436C60.9639 97.7393 61.04 97.2852 61.04 96.7812ZM66.7796 93.5205V101H64.6615V91.4902H66.6566L66.7796 93.5205ZM66.4017 95.8936L65.7162 95.8848C65.722 95.2109 65.8158 94.5928 65.9974 94.0303C66.1849 93.4678 66.4427 92.9844 66.7709 92.5801C67.1048 92.1758 67.5033 91.8652 67.9662 91.6484C68.4291 91.4258 68.9447 91.3145 69.513 91.3145C69.9701 91.3145 70.3832 91.3789 70.7523 91.5078C71.1273 91.6309 71.4466 91.833 71.7103 92.1143C71.9798 92.3955 72.1849 92.7617 72.3255 93.2129C72.4662 93.6582 72.5365 94.2061 72.5365 94.8564V101H70.4095V94.8477C70.4095 94.3906 70.3421 94.0303 70.2074 93.7666C70.0785 93.4971 69.888 93.3066 69.6361 93.1953C69.39 93.0781 69.0824 93.0195 68.7132 93.0195C68.35 93.0195 68.0248 93.0957 67.7377 93.248C67.4505 93.4004 67.2074 93.6084 67.0082 93.8721C66.8148 94.1357 66.6654 94.4404 66.5599 94.7861C66.4545 95.1318 66.4017 95.501 66.4017 95.8936Z" fill="#666666"/>
<rect x="125.25" y="62.25" width="121.5" height="64.5" fill="white" stroke="#D9D9D9" stroke-width="0.5"/>
<path d="M170.566 88.2031H172.535L176.235 98.0732L179.926 88.2031H181.895L177.008 101H175.444L170.566 88.2031ZM169.67 88.2031H171.542L171.867 96.7461V101H169.67V88.2031ZM180.92 88.2031H182.8V101H180.594V96.7461L180.92 88.2031ZM184.444 96.3506V96.1484C184.444 95.4629 184.544 94.8271 184.743 94.2412C184.942 93.6494 185.229 93.1367 185.604 92.7031C185.985 92.2637 186.448 91.9238 186.993 91.6836C187.544 91.4375 188.165 91.3145 188.856 91.3145C189.554 91.3145 190.175 91.4375 190.72 91.6836C191.271 91.9238 191.736 92.2637 192.117 92.7031C192.498 93.1367 192.788 93.6494 192.987 94.2412C193.187 94.8271 193.286 95.4629 193.286 96.1484V96.3506C193.286 97.0361 193.187 97.6719 192.987 98.2578C192.788 98.8438 192.498 99.3564 192.117 99.7959C191.736 100.229 191.273 100.569 190.729 100.815C190.184 101.056 189.565 101.176 188.874 101.176C188.177 101.176 187.553 101.056 187.002 100.815C186.457 100.569 185.994 100.229 185.613 99.7959C185.232 99.3564 184.942 98.8438 184.743 98.2578C184.544 97.6719 184.444 97.0361 184.444 96.3506ZM186.563 96.1484V96.3506C186.563 96.7783 186.606 97.1826 186.694 97.5635C186.782 97.9443 186.92 98.2783 187.107 98.5654C187.295 98.8525 187.535 99.0781 187.828 99.2422C188.121 99.4062 188.47 99.4883 188.874 99.4883C189.267 99.4883 189.606 99.4062 189.894 99.2422C190.187 99.0781 190.427 98.8525 190.614 98.5654C190.802 98.2783 190.939 97.9443 191.027 97.5635C191.121 97.1826 191.168 96.7783 191.168 96.3506V96.1484C191.168 95.7266 191.121 95.3281 191.027 94.9531C190.939 94.5723 190.799 94.2354 190.605 93.9424C190.418 93.6494 190.178 93.4209 189.885 93.2568C189.598 93.0869 189.255 93.002 188.856 93.002C188.458 93.002 188.112 93.0869 187.819 93.2568C187.532 93.4209 187.295 93.6494 187.107 93.9424C186.92 94.2354 186.782 94.5723 186.694 94.9531C186.606 95.3281 186.563 95.7266 186.563 96.1484ZM196.802 93.5205V101H194.684V91.4902H196.679L196.802 93.5205ZM196.424 95.8936L195.739 95.8848C195.744 95.2109 195.838 94.5928 196.02 94.0303C196.207 93.4678 196.465 92.9844 196.793 92.5801C197.127 92.1758 197.526 91.8652 197.989 91.6484C198.452 91.4258 198.967 91.3145 199.536 91.3145C199.993 91.3145 200.406 91.3789 200.775 91.5078C201.15 91.6309 201.469 91.833 201.733 92.1143C202.002 92.3955 202.207 92.7617 202.348 93.2129C202.489 93.6582 202.559 94.2061 202.559 94.8564V101H200.432V94.8477C200.432 94.3906 200.365 94.0303 200.23 93.7666C200.101 93.4971 199.911 93.3066 199.659 93.1953C199.412 93.0781 199.105 93.0195 198.736 93.0195C198.372 93.0195 198.047 93.0957 197.76 93.248C197.473 93.4004 197.23 93.6084 197.031 93.8721C196.837 94.1357 196.688 94.4404 196.582 94.7861C196.477 95.1318 196.424 95.501 196.424 95.8936Z" fill="#666666"/>
<rect x="247.25" y="62.25" width="121.5" height="64.5" fill="white" stroke="#D9D9D9" stroke-width="0.5"/>
<path d="M299.975 88.2031V101H297.787V88.2031H299.975ZM303.992 88.2031V89.9609H293.805V88.2031H303.992ZM310.092 98.7588V91.4902H312.219V101H310.215L310.092 98.7588ZM310.391 96.7812L311.103 96.7637C311.103 97.4023 311.032 97.9912 310.892 98.5303C310.751 99.0635 310.534 99.5293 310.241 99.9277C309.948 100.32 309.573 100.628 309.116 100.851C308.659 101.067 308.111 101.176 307.473 101.176C307.01 101.176 306.585 101.108 306.198 100.974C305.812 100.839 305.478 100.631 305.196 100.35C304.921 100.068 304.707 99.7021 304.555 99.251C304.402 98.7998 304.326 98.2607 304.326 97.6338V91.4902H306.444V97.6514C306.444 97.9971 306.485 98.2871 306.567 98.5215C306.649 98.75 306.761 98.9346 306.901 99.0752C307.042 99.2158 307.206 99.3154 307.394 99.374C307.581 99.4326 307.78 99.4619 307.991 99.4619C308.595 99.4619 309.069 99.3447 309.415 99.1104C309.767 98.8701 310.016 98.5479 310.162 98.1436C310.314 97.7393 310.391 97.2852 310.391 96.7812ZM318.222 101.176C317.519 101.176 316.883 101.062 316.315 100.833C315.752 100.599 315.272 100.273 314.873 99.8574C314.481 99.4414 314.179 98.9521 313.968 98.3896C313.757 97.8271 313.652 97.2207 313.652 96.5703V96.2188C313.652 95.4746 313.76 94.8008 313.977 94.1973C314.194 93.5938 314.495 93.0781 314.882 92.6504C315.269 92.2168 315.726 91.8857 316.253 91.6572C316.781 91.4287 317.352 91.3145 317.967 91.3145C318.647 91.3145 319.242 91.4287 319.751 91.6572C320.261 91.8857 320.683 92.208 321.017 92.624C321.357 93.0342 321.609 93.5234 321.773 94.0918C321.943 94.6602 322.028 95.2871 322.028 95.9727V96.8779H314.68V95.3574H319.936V95.1904C319.924 94.8096 319.848 94.4521 319.707 94.1182C319.573 93.7842 319.365 93.5146 319.083 93.3096C318.802 93.1045 318.427 93.002 317.958 93.002C317.607 93.002 317.293 93.0781 317.018 93.2305C316.748 93.377 316.523 93.5908 316.341 93.8721C316.16 94.1533 316.019 94.4932 315.919 94.8916C315.826 95.2842 315.779 95.7266 315.779 96.2188V96.5703C315.779 96.9863 315.834 97.373 315.946 97.7305C316.063 98.082 316.233 98.3896 316.455 98.6533C316.678 98.917 316.948 99.125 317.264 99.2773C317.58 99.4238 317.941 99.4971 318.345 99.4971C318.855 99.4971 319.309 99.3945 319.707 99.1895C320.106 98.9844 320.452 98.6943 320.744 98.3193L321.861 99.4004C321.656 99.6992 321.389 99.9863 321.061 100.262C320.733 100.531 320.331 100.751 319.857 100.921C319.388 101.091 318.843 101.176 318.222 101.176Z" fill="#666666"/>
<rect x="369.25" y="62.25" width="121.5" height="64.5" fill="white" stroke="#D9D9D9" stroke-width="0.5"/>
<path d="M417.685 98.126L420.234 88.2031H421.57L421.421 90.7607L418.696 101H417.307L417.685 98.126ZM415.778 88.2031L417.843 98.0469L418.028 101H416.551L413.589 88.2031H415.778ZM424.462 98.0205L426.501 88.2031H428.698L425.736 101H424.259L424.462 98.0205ZM422.089 88.2031L424.611 98.1523L424.98 101H423.591L420.911 90.7607L420.77 88.2031H422.089ZM433.673 101.176C432.97 101.176 432.334 101.062 431.766 100.833C431.203 100.599 430.723 100.273 430.324 99.8574C429.932 99.4414 429.63 98.9521 429.419 98.3896C429.208 97.8271 429.103 97.2207 429.103 96.5703V96.2188C429.103 95.4746 429.211 94.8008 429.428 94.1973C429.645 93.5938 429.946 93.0781 430.333 92.6504C430.72 92.2168 431.177 91.8857 431.704 91.6572C432.231 91.4287 432.803 91.3145 433.418 91.3145C434.098 91.3145 434.692 91.4287 435.202 91.6572C435.712 91.8857 436.134 92.208 436.468 92.624C436.808 93.0342 437.06 93.5234 437.224 94.0918C437.394 94.6602 437.479 95.2871 437.479 95.9727V96.8779H430.131V95.3574H435.387V95.1904C435.375 94.8096 435.299 94.4521 435.158 94.1182C435.023 93.7842 434.815 93.5146 434.534 93.3096C434.253 93.1045 433.878 93.002 433.409 93.002C433.058 93.002 432.744 93.0781 432.469 93.2305C432.199 93.377 431.974 93.5908 431.792 93.8721C431.61 94.1533 431.47 94.4932 431.37 94.8916C431.276 95.2842 431.229 95.7266 431.229 96.2188V96.5703C431.229 96.9863 431.285 97.373 431.396 97.7305C431.514 98.082 431.684 98.3896 431.906 98.6533C432.129 98.917 432.398 99.125 432.715 99.2773C433.031 99.4238 433.392 99.4971 433.796 99.4971C434.306 99.4971 434.76 99.3945 435.158 99.1895C435.557 98.9844 435.902 98.6943 436.195 98.3193L437.312 99.4004C437.106 99.6992 436.84 99.9863 436.512 100.262C436.184 100.531 435.782 100.751 435.308 100.921C434.839 101.091 434.294 101.176 433.673 101.176ZM444.572 99.0312V87.5H446.699V101H444.774L444.572 99.0312ZM438.384 96.3506V96.166C438.384 95.4453 438.469 94.7891 438.639 94.1973C438.809 93.5996 439.055 93.0869 439.377 92.6592C439.7 92.2256 440.092 91.8945 440.555 91.666C441.018 91.4316 441.539 91.3145 442.119 91.3145C442.694 91.3145 443.198 91.4258 443.631 91.6484C444.065 91.8711 444.434 92.1904 444.739 92.6064C445.043 93.0166 445.286 93.5088 445.468 94.083C445.65 94.6514 445.779 95.2842 445.855 95.9814V96.5703C445.779 97.25 445.65 97.8711 445.468 98.4336C445.286 98.9961 445.043 99.4824 444.739 99.8926C444.434 100.303 444.062 100.619 443.622 100.842C443.189 101.064 442.682 101.176 442.102 101.176C441.528 101.176 441.009 101.056 440.546 100.815C440.089 100.575 439.7 100.238 439.377 99.8047C439.055 99.3711 438.809 98.8613 438.639 98.2754C438.469 97.6836 438.384 97.042 438.384 96.3506ZM440.502 96.166V96.3506C440.502 96.7842 440.54 97.1885 440.617 97.5635C440.699 97.9385 440.825 98.2695 440.994 98.5566C441.164 98.8379 441.384 99.0605 441.654 99.2246C441.929 99.3828 442.257 99.4619 442.638 99.4619C443.119 99.4619 443.514 99.3564 443.825 99.1455C444.135 98.9346 444.378 98.6504 444.554 98.293C444.736 97.9297 444.859 97.5254 444.923 97.0801V95.4893C444.888 95.1436 444.815 94.8213 444.703 94.5225C444.598 94.2236 444.454 93.9629 444.273 93.7402C444.091 93.5117 443.866 93.3359 443.596 93.2129C443.332 93.084 443.019 93.0195 442.656 93.0195C442.269 93.0195 441.941 93.1016 441.671 93.2656C441.402 93.4297 441.179 93.6553 441.003 93.9424C440.833 94.2295 440.707 94.5635 440.625 94.9443C440.543 95.3252 440.502 95.7324 440.502 96.166Z" fill="#666666"/>
<rect x="491.25" y="62.25" width="121.5" height="64.5" fill="white" stroke="#D9D9D9" stroke-width="0.5"/>
<path d="M543.93 88.2031V101H541.742V88.2031H543.93ZM547.947 88.2031V89.9609H537.76V88.2031H547.947ZM551.155 87.5V101H549.046V87.5H551.155ZM550.786 95.8936L550.101 95.8848C550.106 95.2285 550.197 94.6221 550.373 94.0654C550.555 93.5088 550.807 93.0254 551.129 92.6152C551.457 92.1992 551.85 91.8799 552.307 91.6572C552.764 91.4287 553.271 91.3145 553.827 91.3145C554.296 91.3145 554.718 91.3789 555.093 91.5078C555.474 91.6367 555.802 91.8447 556.077 92.1318C556.353 92.4131 556.561 92.7822 556.701 93.2393C556.848 93.6904 556.921 94.2412 556.921 94.8916V101H554.794V94.874C554.794 94.417 554.727 94.0537 554.592 93.7842C554.463 93.5146 554.272 93.3213 554.021 93.2041C553.769 93.0811 553.461 93.0195 553.098 93.0195C552.717 93.0195 552.38 93.0957 552.087 93.248C551.8 93.4004 551.56 93.6084 551.366 93.8721C551.173 94.1357 551.026 94.4404 550.927 94.7861C550.833 95.1318 550.786 95.501 550.786 95.8936ZM564.427 98.7588V91.4902H566.554V101H564.55L564.427 98.7588ZM564.726 96.7812L565.438 96.7637C565.438 97.4023 565.368 97.9912 565.227 98.5303C565.086 99.0635 564.869 99.5293 564.577 99.9277C564.284 100.32 563.909 100.628 563.452 100.851C562.994 101.067 562.447 101.176 561.808 101.176C561.345 101.176 560.92 101.108 560.534 100.974C560.147 100.839 559.813 100.631 559.532 100.35C559.256 100.068 559.042 99.7021 558.89 99.251C558.738 98.7998 558.661 98.2607 558.661 97.6338V91.4902H560.78V97.6514C560.78 97.9971 560.821 98.2871 560.903 98.5215C560.985 98.75 561.096 98.9346 561.237 99.0752C561.377 99.2158 561.541 99.3154 561.729 99.374C561.916 99.4326 562.116 99.4619 562.327 99.4619C562.93 99.4619 563.405 99.3447 563.75 99.1104C564.102 98.8701 564.351 98.5479 564.497 98.1436C564.65 97.7393 564.726 97.2852 564.726 96.7812Z" fill="#666666"/>
<rect x="613.25" y="62.25" width="121.5" height="64.5" fill="white" stroke="#D9D9D9" stroke-width="0.5"/>
<path d="M667.548 88.2031V101H665.342V88.2031H667.548ZM672.769 93.8018V95.5508H666.986V93.8018H672.769ZM673.499 88.2031V89.9609H666.986V88.2031H673.499ZM676.584 93.3008V101H674.466V91.4902H676.487L676.584 93.3008ZM679.493 91.4287L679.476 93.3975C679.347 93.374 679.206 93.3564 679.054 93.3447C678.907 93.333 678.761 93.3271 678.614 93.3271C678.251 93.3271 677.932 93.3799 677.656 93.4854C677.381 93.585 677.149 93.7314 676.962 93.9248C676.78 94.1123 676.64 94.3408 676.54 94.6104C676.44 94.8799 676.382 95.1816 676.364 95.5156L675.881 95.5508C675.881 94.9531 675.939 94.3994 676.057 93.8896C676.174 93.3799 676.35 92.9316 676.584 92.5449C676.824 92.1582 677.123 91.8564 677.48 91.6396C677.844 91.4229 678.263 91.3145 678.737 91.3145C678.866 91.3145 679.004 91.3262 679.15 91.3496C679.303 91.373 679.417 91.3994 679.493 91.4287ZM682.728 91.4902V101H680.601V91.4902H682.728ZM680.46 88.9941C680.46 88.6719 680.566 88.4053 680.777 88.1943C680.994 87.9775 681.292 87.8691 681.673 87.8691C682.048 87.8691 682.344 87.9775 682.561 88.1943C682.778 88.4053 682.886 88.6719 682.886 88.9941C682.886 89.3105 682.778 89.5742 682.561 89.7852C682.344 89.9961 682.048 90.1016 681.673 90.1016C681.292 90.1016 680.994 89.9961 680.777 89.7852C680.566 89.5742 680.46 89.3105 680.46 88.9941Z" fill="#666666"/>
<rect x="735.25" y="62.25" width="121.5" height="64.5" fill="white" stroke="#D9D9D9" stroke-width="0.5"/>
<path d="M791.095 97.7041C791.095 97.4404 791.054 97.2061 790.972 97.001C790.896 96.7959 790.758 96.6084 790.559 96.4385C790.36 96.2686 790.079 96.1045 789.715 95.9463C789.358 95.7822 788.901 95.6152 788.344 95.4453C787.735 95.2578 787.172 95.0498 786.657 94.8213C786.147 94.5869 785.702 94.3174 785.321 94.0127C784.94 93.7021 784.644 93.3477 784.433 92.9492C784.222 92.5449 784.117 92.0791 784.117 91.5518C784.117 91.0303 784.225 90.5557 784.442 90.1279C784.665 89.7002 784.978 89.3311 785.382 89.0205C785.793 88.7041 786.276 88.4609 786.833 88.291C787.389 88.1152 788.005 88.0273 788.678 88.0273C789.628 88.0273 790.445 88.2031 791.131 88.5547C791.822 88.9062 792.352 89.3779 792.721 89.9697C793.096 90.5615 793.284 91.2148 793.284 91.9297H791.095C791.095 91.5078 791.005 91.1357 790.823 90.8135C790.647 90.4854 790.378 90.2275 790.014 90.04C789.657 89.8525 789.203 89.7588 788.652 89.7588C788.131 89.7588 787.697 89.8379 787.351 89.9961C787.006 90.1543 786.748 90.3682 786.578 90.6377C786.408 90.9072 786.323 91.2119 786.323 91.5518C786.323 91.792 786.379 92.0117 786.49 92.2109C786.601 92.4043 786.771 92.5859 787 92.7559C787.228 92.9199 787.515 93.0752 787.861 93.2217C788.207 93.3682 788.614 93.5088 789.083 93.6436C789.792 93.8545 790.41 94.0889 790.937 94.3467C791.464 94.5986 791.904 94.8857 792.256 95.208C792.607 95.5303 792.871 95.8965 793.047 96.3066C793.222 96.7109 793.31 97.1709 793.31 97.6865C793.31 98.2256 793.202 98.7119 792.985 99.1455C792.768 99.5732 792.458 99.9395 792.053 100.244C791.655 100.543 791.174 100.774 790.612 100.938C790.055 101.097 789.434 101.176 788.749 101.176C788.133 101.176 787.527 101.094 786.929 100.93C786.338 100.766 785.798 100.517 785.312 100.183C784.826 99.8428 784.439 99.4209 784.152 98.917C783.865 98.4072 783.721 97.8125 783.721 97.1328H785.927C785.927 97.5488 785.998 97.9033 786.138 98.1963C786.285 98.4893 786.487 98.7295 786.745 98.917C787.003 99.0986 787.301 99.2334 787.641 99.3213C787.987 99.4092 788.356 99.4531 788.749 99.4531C789.264 99.4531 789.695 99.3799 790.041 99.2334C790.392 99.0869 790.656 98.8818 790.832 98.6182C791.007 98.3545 791.095 98.0498 791.095 97.7041ZM800.052 99.0928V94.5576C800.052 94.2178 799.99 93.9248 799.867 93.6787C799.744 93.4326 799.557 93.2422 799.305 93.1074C799.059 92.9727 798.748 92.9053 798.373 92.9053C798.027 92.9053 797.729 92.9639 797.477 93.0811C797.225 93.1982 797.028 93.3564 796.888 93.5557C796.747 93.7549 796.677 93.9805 796.677 94.2324H794.567C794.567 93.8574 794.658 93.4941 794.84 93.1426C795.021 92.791 795.285 92.4775 795.631 92.2021C795.977 91.9268 796.39 91.71 796.87 91.5518C797.351 91.3936 797.89 91.3145 798.487 91.3145C799.202 91.3145 799.835 91.4346 800.386 91.6748C800.942 91.915 801.379 92.2783 801.695 92.7646C802.018 93.2451 802.179 93.8486 802.179 94.5752V98.8027C802.179 99.2363 802.208 99.626 802.267 99.9717C802.331 100.312 802.422 100.607 802.539 100.859V101H800.368C800.269 100.771 800.189 100.481 800.131 100.13C800.078 99.7725 800.052 99.4268 800.052 99.0928ZM800.359 95.2168L800.377 96.5264H798.856C798.464 96.5264 798.118 96.5645 797.819 96.6406C797.521 96.7109 797.271 96.8164 797.072 96.957C796.873 97.0977 796.724 97.2676 796.624 97.4668C796.524 97.666 796.475 97.8916 796.475 98.1436C796.475 98.3955 796.533 98.627 796.65 98.8379C796.768 99.043 796.938 99.2041 797.16 99.3213C797.389 99.4385 797.664 99.4971 797.986 99.4971C798.42 99.4971 798.798 99.4092 799.12 99.2334C799.448 99.0518 799.706 98.832 799.894 98.5742C800.081 98.3105 800.181 98.0615 800.192 97.8271L800.878 98.7676C800.808 99.0078 800.688 99.2656 800.518 99.541C800.348 99.8164 800.125 100.08 799.85 100.332C799.58 100.578 799.255 100.78 798.874 100.938C798.499 101.097 798.065 101.176 797.573 101.176C796.952 101.176 796.398 101.053 795.912 100.807C795.426 100.555 795.045 100.218 794.77 99.7959C794.494 99.3682 794.356 98.8848 794.356 98.3457C794.356 97.8418 794.45 97.3965 794.638 97.0098C794.831 96.6172 795.112 96.2891 795.481 96.0254C795.856 95.7617 796.313 95.5625 796.853 95.4277C797.392 95.2871 798.007 95.2168 798.698 95.2168H800.359ZM808.393 91.4902V93.0371H803.032V91.4902H808.393ZM804.578 89.1611H806.697V98.3721C806.697 98.665 806.738 98.8906 806.82 99.0488C806.908 99.2012 807.028 99.3037 807.18 99.3564C807.332 99.4092 807.511 99.4355 807.716 99.4355C807.863 99.4355 808.003 99.4268 808.138 99.4092C808.273 99.3916 808.381 99.374 808.463 99.3564L808.472 100.974C808.296 101.026 808.091 101.073 807.857 101.114C807.628 101.155 807.365 101.176 807.066 101.176C806.579 101.176 806.149 101.091 805.774 100.921C805.399 100.745 805.106 100.461 804.895 100.068C804.684 99.6758 804.578 99.1543 804.578 98.5039V89.1611Z" fill="#666666"/>
<path d="M12.68 16.1V17.96H6.78V22.06H11.38V23.92H6.78V30H4.5V16.1H12.68ZM24.893 24.22C24.893 24.6333 24.8663 25.0067 24.813 25.34H16.393C16.4596 26.22 16.7863 26.9267 17.373 27.46C17.9596 27.9933 18.6796 28.26 19.533 28.26C20.7596 28.26 21.6263 27.7467 22.133 26.72H24.593C24.2596 27.7333 23.653 28.5667 22.773 29.22C21.9063 29.86 20.8263 30.18 19.533 30.18C18.4796 30.18 17.533 29.9467 16.693 29.48C15.8663 29 15.213 28.3333 14.733 27.48C14.2663 26.6133 14.033 25.6133 14.033 24.48C14.033 23.3467 14.2596 22.3533 14.713 21.5C15.1796 20.6333 15.8263 19.9667 16.653 19.5C17.493 19.0333 18.453 18.8 19.533 18.8C20.573 18.8 21.4996 19.0267 22.313 19.48C23.1263 19.9333 23.7596 20.5733 24.213 21.4C24.6663 22.2133 24.893 23.1533 24.893 24.22ZM22.513 23.5C22.4996 22.66 22.1996 21.9867 21.613 21.48C21.0263 20.9733 20.2996 20.72 19.433 20.72C18.6463 20.72 17.973 20.9733 17.413 21.48C16.853 21.9733 16.5196 22.6467 16.413 23.5H22.513ZM29.4167 20.62C29.8034 20.0867 30.3301 19.6533 30.9967 19.32C31.6767 18.9733 32.4301 18.8 33.2567 18.8C34.2301 18.8 35.1101 19.0333 35.8967 19.5C36.6834 19.9667 37.3034 20.6333 37.7567 21.5C38.2101 22.3533 38.4367 23.3333 38.4367 24.44C38.4367 25.5467 38.2101 26.54 37.7567 27.42C37.3034 28.2867 36.6767 28.9667 35.8767 29.46C35.0901 29.94 34.2167 30.18 33.2567 30.18C32.4034 30.18 31.6434 30.0133 30.9767 29.68C30.3234 29.3467 29.8034 28.92 29.4167 28.4V30H27.1367V15.2H29.4167V20.62ZM36.1167 24.44C36.1167 23.68 35.9567 23.0267 35.6367 22.48C35.3301 21.92 34.9167 21.5 34.3967 21.22C33.8901 20.9267 33.3434 20.78 32.7567 20.78C32.1834 20.78 31.6367 20.9267 31.1167 21.22C30.6101 21.5133 30.1967 21.94 29.8767 22.5C29.5701 23.06 29.4167 23.72 29.4167 24.48C29.4167 25.24 29.5701 25.9067 29.8767 26.48C30.1967 27.04 30.6101 27.4667 31.1167 27.76C31.6367 28.0533 32.1834 28.2 32.7567 28.2C33.3434 28.2 33.8901 28.0533 34.3967 27.76C34.9167 27.4533 35.3301 27.0133 35.6367 26.44C35.9567 25.8667 36.1167 25.2 36.1167 24.44ZM42.9714 20.58C43.3047 20.02 43.7447 19.5867 44.2914 19.28C44.8514 18.96 45.5114 18.8 46.2714 18.8V21.16H45.6914C44.7981 21.16 44.1181 21.3867 43.6514 21.84C43.1981 22.2933 42.9714 23.08 42.9714 24.2V30H40.6914V18.98H42.9714V20.58ZM58.3472 18.98V30H56.0672V28.7C55.7072 29.1533 55.2339 29.5133 54.6472 29.78C54.0739 30.0333 53.4605 30.16 52.8072 30.16C51.9405 30.16 51.1605 29.98 50.4672 29.62C49.7872 29.26 49.2472 28.7267 48.8472 28.02C48.4605 27.3133 48.2672 26.46 48.2672 25.46V18.98H50.5272V25.12C50.5272 26.1067 50.7739 26.8667 51.2672 27.4C51.7605 27.92 52.4339 28.18 53.2872 28.18C54.1405 28.18 54.8139 27.92 55.3072 27.4C55.8139 26.8667 56.0672 26.1067 56.0672 25.12V18.98H58.3472ZM60.5955 24.44C60.5955 23.3333 60.8221 22.3533 61.2755 21.5C61.7421 20.6467 62.3688 19.9867 63.1555 19.52C63.9555 19.04 64.8355 18.8 65.7955 18.8C66.6621 18.8 67.4155 18.9733 68.0555 19.32C68.7088 19.6533 69.2288 20.0733 69.6155 20.58V18.98H71.9155V30H69.6155V28.36C69.2288 28.88 68.7021 29.3133 68.0355 29.66C67.3688 30.0067 66.6088 30.18 65.7555 30.18C64.8088 30.18 63.9421 29.94 63.1555 29.46C62.3688 28.9667 61.7421 28.2867 61.2755 27.42C60.8221 26.54 60.5955 25.5467 60.5955 24.44ZM69.6155 24.48C69.6155 23.72 69.4555 23.06 69.1355 22.5C68.8288 21.94 68.4221 21.5133 67.9155 21.22C67.4088 20.9267 66.8621 20.78 66.2755 20.78C65.6888 20.78 65.1421 20.9267 64.6355 21.22C64.1288 21.5 63.7155 21.92 63.3955 22.48C63.0888 23.0267 62.9355 23.68 62.9355 24.44C62.9355 25.2 63.0888 25.8667 63.3955 26.44C63.7155 27.0133 64.1288 27.4533 64.6355 27.76C65.1555 28.0533 65.7021 28.2 66.2755 28.2C66.8621 28.2 67.4088 28.0533 67.9155 27.76C68.4221 27.4667 68.8288 27.04 69.1355 26.48C69.4555 25.9067 69.6155 25.24 69.6155 24.48ZM77.1902 20.58C77.5235 20.02 77.9635 19.5867 78.5102 19.28C79.0702 18.96 79.7302 18.8 80.4902 18.8V21.16H79.9102C79.0168 21.16 78.3368 21.3867 77.8702 21.84C77.4168 22.2933 77.1902 23.08 77.1902 24.2V30H74.9102V18.98H77.1902V20.58ZM92.5059 18.98L85.7459 35.18H83.3859L85.6259 29.82L81.2859 18.98H83.8259L86.9259 27.38L90.1459 18.98H92.5059ZM100.382 26.9C101.662 25.7933 102.669 24.8867 103.402 24.18C104.149 23.46 104.769 22.7133 105.262 21.94C105.755 21.1667 106.002 20.3933 106.002 19.62C106.002 18.82 105.809 18.1933 105.422 17.74C105.049 17.2867 104.455 17.06 103.642 17.06C102.855 17.06 102.242 17.3133 101.802 17.82C101.375 18.3133 101.149 18.98 101.122 19.82H98.9219C98.9619 18.3 99.4152 17.14 100.282 16.34C101.162 15.5267 102.275 15.12 103.622 15.12C105.075 15.12 106.209 15.52 107.022 16.32C107.849 17.12 108.262 18.1867 108.262 19.52C108.262 20.48 108.015 21.4067 107.522 22.3C107.042 23.18 106.462 23.9733 105.782 24.68C105.115 25.3733 104.262 26.18 103.222 27.1L102.322 27.9H108.662V29.8H98.9419V28.14L100.382 26.9ZM110.665 22.52C110.665 20.2133 111.052 18.4133 111.825 17.12C112.612 15.8133 113.958 15.16 115.865 15.16C117.772 15.16 119.112 15.8133 119.885 17.12C120.672 18.4133 121.065 20.2133 121.065 22.52C121.065 24.8533 120.672 26.68 119.885 28C119.112 29.3067 117.772 29.96 115.865 29.96C113.958 29.96 112.612 29.3067 111.825 28C111.052 26.68 110.665 24.8533 110.665 22.52ZM118.825 22.52C118.825 21.44 118.752 20.5267 118.605 19.78C118.472 19.0333 118.192 18.4267 117.765 17.96C117.338 17.48 116.705 17.24 115.865 17.24C115.025 17.24 114.392 17.48 113.965 17.96C113.538 18.4267 113.252 19.0333 113.105 19.78C112.972 20.5267 112.905 21.44 112.905 22.52C112.905 23.64 112.972 24.58 113.105 25.34C113.238 26.1 113.518 26.7133 113.945 27.18C114.385 27.6467 115.025 27.88 115.865 27.88C116.705 27.88 117.338 27.6467 117.765 27.18C118.205 26.7133 118.492 26.1 118.625 25.34C118.758 24.58 118.825 23.64 118.825 22.52ZM124.737 26.9C126.017 25.7933 127.024 24.8867 127.757 24.18C128.504 23.46 129.124 22.7133 129.617 21.94C130.111 21.1667 130.357 20.3933 130.357 19.62C130.357 18.82 130.164 18.1933 129.777 17.74C129.404 17.2867 128.811 17.06 127.997 17.06C127.211 17.06 126.597 17.3133 126.157 17.82C125.731 18.3133 125.504 18.98 125.477 19.82H123.277C123.317 18.3 123.771 17.14 124.637 16.34C125.517 15.5267 126.631 15.12 127.977 15.12C129.431 15.12 130.564 15.52 131.377 16.32C132.204 17.12 132.617 18.1867 132.617 19.52C132.617 20.48 132.371 21.4067 131.877 22.3C131.397 23.18 130.817 23.9733 130.137 24.68C129.471 25.3733 128.617 26.18 127.577 27.1L126.677 27.9H133.017V29.8H123.297V28.14L124.737 26.9ZM134.74 26.96V25.24L141.46 15.6H144.22V24.98H146.08V26.96H144.22V30H141.98V26.96H134.74ZM142.08 17.92L137.36 24.98H142.08V17.92Z" fill="#363636"/>
<g filter="url(#filter0_d_1_124)">
<rect x="680" y="3" width="127" height="40" rx="5" fill="#3272EC" shape-rendering="crispEdges"/>
</g>
<g filter="url(#filter1_d_1_124)">
<rect x="820.5" y="3.5" width="36" height="39" rx="4.5" stroke="#3272EC" shape-rendering="crispEdges"/>
<path d="M835.5 29.25L841.75 23L835.5 16.75L835.5 29.25Z" fill="#3272EC"/>
</g>
<g filter="url(#filter2_d_1_124)">
<rect x="630.5" y="3.5" width="36" height="39" rx="4.5" stroke="#3272EC" shape-rendering="crispEdges"/>
<path d="M650.5 16.75L644.25 23L650.5 29.25V16.75Z" fill="#3272EC"/>
</g>
<path d="M725.547 19.745V18.635H732.627V19.745H729.777V29.09H728.412V19.745H725.547ZM742.108 24.965C742.108 27.575 740.233 29.225 737.893 29.225C735.568 29.225 733.798 27.575 733.798 24.965C733.798 22.37 735.628 20.735 737.953 20.735C740.293 20.735 742.108 22.37 742.108 24.965ZM735.193 24.965C735.193 27.05 736.468 28.025 737.893 28.025C739.318 28.025 740.713 27.05 740.713 24.965C740.713 22.895 739.348 21.92 737.938 21.92C736.498 21.92 735.193 22.895 735.193 24.965ZM743.392 24.95C743.392 22.385 745.087 20.735 747.307 20.735C748.597 20.735 749.782 21.395 750.352 22.34V17.99H751.732V29.09H750.352V27.545C749.857 28.46 748.792 29.225 747.292 29.225C745.087 29.225 743.392 27.5 743.392 24.95ZM750.352 24.965C750.352 23.06 749.062 21.92 747.562 21.92C746.062 21.92 744.787 23.015 744.787 24.95C744.787 26.885 746.062 28.025 747.562 28.025C749.062 28.025 750.352 26.9 750.352 24.965ZM753.529 24.95C753.529 22.385 755.224 20.735 757.429 20.735C758.959 20.735 760.009 21.515 760.489 22.37V20.87H761.869V29.09H760.489V27.56C759.994 28.445 758.929 29.225 757.414 29.225C755.224 29.225 753.529 27.5 753.529 24.95ZM760.489 24.965C760.489 23.06 759.199 21.92 757.699 21.92C756.199 21.92 754.924 23.015 754.924 24.95C754.924 26.885 756.199 28.025 757.699 28.025C759.199 28.025 760.489 26.9 760.489 24.965ZM767.296 27.53L769.846 20.87H771.256L766.306 32.96H764.896L766.516 29L763.201 20.87H764.716L767.296 27.53Z" fill="white"/>
<path d="M506.993 376.851V375.156H514.673V376.851H511.883V385.626H509.783V376.851H506.993ZM519.775 378.906C518.77 378.906 517.975 379.551 517.81 380.691H521.755C521.725 379.596 520.855 378.906 519.775 378.906ZM523.72 383.016C523.27 384.546 521.89 385.761 519.835 385.761C517.42 385.761 515.665 384.081 515.665 381.471C515.665 378.846 517.375 377.181 519.835 377.181C522.235 377.181 523.93 378.816 523.93 381.291C523.93 381.561 523.915 381.831 523.87 382.101H517.795C517.9 383.331 518.74 384.021 519.79 384.021C520.69 384.021 521.185 383.571 521.455 383.016H523.72ZM524.923 381.441C524.923 378.846 526.603 377.181 528.718 377.181C530.053 377.181 530.968 377.811 531.463 378.501V377.316H533.578V385.626H531.463V384.411C530.968 385.131 530.023 385.761 528.703 385.761C526.603 385.761 524.923 384.036 524.923 381.441ZM531.463 381.471C531.463 379.896 530.413 379.026 529.258 379.026C528.133 379.026 527.068 379.866 527.068 381.441C527.068 383.016 528.133 383.916 529.258 383.916C530.413 383.916 531.463 383.046 531.463 381.471ZM547.254 385.626V381.036C547.254 379.716 546.519 379.026 545.409 379.026C544.284 379.026 543.549 379.716 543.549 381.036V385.626H541.449V381.036C541.449 379.716 540.714 379.026 539.604 379.026C538.464 379.026 537.729 379.716 537.729 381.036V385.626H535.629V377.316H537.729V378.321C538.254 377.631 539.139 377.196 540.174 377.196C541.464 377.196 542.529 377.751 543.099 378.786C543.639 377.841 544.734 377.196 545.949 377.196C547.944 377.196 549.354 378.456 549.354 380.751V385.626H547.254ZM554.921 375.156H557.021V383.961H560.471V385.626H554.921V375.156ZM569.651 377.316V385.626H567.536V384.576C567.011 385.281 566.096 385.731 565.061 385.731C563.126 385.731 561.731 384.471 561.731 382.191V377.316H563.831V381.891C563.831 383.226 564.566 383.946 565.676 383.946C566.816 383.946 567.536 383.226 567.536 381.891V377.316H569.651ZM577.543 385.626V381.036C577.543 379.701 576.808 378.981 575.698 378.981C574.558 378.981 573.823 379.701 573.823 381.036V385.626H571.723V377.316H573.823V378.351C574.363 377.646 575.263 377.196 576.328 377.196C578.263 377.196 579.643 378.456 579.643 380.751V385.626H577.543ZM581.1 381.471C581.1 378.861 582.81 377.181 585.21 377.181C587.28 377.181 588.675 378.261 589.125 380.121H586.86C586.62 379.416 586.065 378.966 585.195 378.966C584.025 378.966 583.245 379.851 583.245 381.471C583.245 383.091 584.025 383.961 585.195 383.961C586.065 383.961 586.605 383.571 586.86 382.821H589.125C588.675 384.591 587.28 385.761 585.21 385.761C582.81 385.761 581.1 384.081 581.1 381.471ZM590.663 385.626V374.526H592.763V378.351C593.303 377.646 594.233 377.196 595.343 377.196C597.218 377.196 598.583 378.456 598.583 380.751V385.626H596.483V381.036C596.483 379.701 595.748 378.981 594.638 378.981C593.498 378.981 592.763 379.701 592.763 381.036V385.626H590.663Z" fill="#3272EC"/>
<path d="M517.207 398.864H514.879L514.479 400H513.527L515.519 394.432H516.575L518.567 400H517.607L517.207 398.864ZM516.951 398.12L516.047 395.536L515.135 398.12H516.951ZM520.345 396.24C520.5 396.037 520.71 395.867 520.977 395.728C521.244 395.589 521.545 395.52 521.881 395.52C522.265 395.52 522.614 395.616 522.929 395.808C523.249 395.995 523.5 396.259 523.681 396.6C523.862 396.941 523.953 397.333 523.953 397.776C523.953 398.219 523.862 398.616 523.681 398.968C523.5 399.315 523.249 399.587 522.929 399.784C522.614 399.976 522.265 400.072 521.881 400.072C521.545 400.072 521.246 400.005 520.985 399.872C520.724 399.733 520.51 399.563 520.345 399.36V402.096H519.433V395.592H520.345V396.24ZM523.025 397.776C523.025 397.472 522.961 397.211 522.833 396.992C522.71 396.768 522.545 396.6 522.337 396.488C522.134 396.371 521.916 396.312 521.681 396.312C521.452 396.312 521.233 396.371 521.025 396.488C520.822 396.605 520.657 396.776 520.529 397C520.406 397.224 520.345 397.488 520.345 397.792C520.345 398.096 520.406 398.363 520.529 398.592C520.657 398.816 520.822 398.987 521.025 399.104C521.233 399.221 521.452 399.28 521.681 399.28C521.916 399.28 522.134 399.221 522.337 399.104C522.545 398.981 522.71 398.805 522.833 398.576C522.961 398.347 523.025 398.08 523.025 397.776ZM525.767 396.24C525.922 396.037 526.132 395.867 526.399 395.728C526.666 395.589 526.967 395.52 527.303 395.52C527.687 395.52 528.036 395.616 528.351 395.808C528.671 395.995 528.922 396.259 529.103 396.6C529.284 396.941 529.375 397.333 529.375 397.776C529.375 398.219 529.284 398.616 529.103 398.968C528.922 399.315 528.671 399.587 528.351 399.784C528.036 399.976 527.687 400.072 527.303 400.072C526.967 400.072 526.668 400.005 526.407 399.872C526.146 399.733 525.932 399.563 525.767 399.36V402.096H524.855V395.592H525.767V396.24ZM528.447 397.776C528.447 397.472 528.383 397.211 528.255 396.992C528.132 396.768 527.967 396.6 527.759 396.488C527.556 396.371 527.338 396.312 527.103 396.312C526.874 396.312 526.655 396.371 526.447 396.488C526.244 396.605 526.079 396.776 525.951 397C525.828 397.224 525.767 397.488 525.767 397.792C525.767 398.096 525.828 398.363 525.951 398.592C526.079 398.816 526.244 398.987 526.447 399.104C526.655 399.221 526.874 399.28 527.103 399.28C527.338 399.28 527.556 399.221 527.759 399.104C527.967 398.981 528.132 398.805 528.255 398.576C528.383 398.347 528.447 398.08 528.447 397.776ZM531.189 396.232C531.322 396.008 531.498 395.835 531.717 395.712C531.941 395.584 532.205 395.52 532.509 395.52V396.464H532.277C531.919 396.464 531.647 396.555 531.461 396.736C531.279 396.917 531.189 397.232 531.189 397.68V400H530.277V395.592H531.189V396.232ZM535.259 400.072C534.843 400.072 534.467 399.979 534.131 399.792C533.795 399.6 533.531 399.333 533.339 398.992C533.147 398.645 533.051 398.245 533.051 397.792C533.051 397.344 533.15 396.947 533.347 396.6C533.544 396.253 533.814 395.987 534.155 395.8C534.496 395.613 534.878 395.52 535.299 395.52C535.72 395.52 536.102 395.613 536.443 395.8C536.784 395.987 537.054 396.253 537.251 396.6C537.448 396.947 537.547 397.344 537.547 397.792C537.547 398.24 537.446 398.637 537.243 398.984C537.04 399.331 536.763 399.6 536.411 399.792C536.064 399.979 535.68 400.072 535.259 400.072ZM535.259 399.28C535.494 399.28 535.712 399.224 535.915 399.112C536.123 399 536.291 398.832 536.419 398.608C536.547 398.384 536.611 398.112 536.611 397.792C536.611 397.472 536.55 397.203 536.427 396.984C536.304 396.76 536.142 396.592 535.939 396.48C535.736 396.368 535.518 396.312 535.283 396.312C535.048 396.312 534.83 396.368 534.627 396.48C534.43 396.592 534.272 396.76 534.155 396.984C534.038 397.203 533.979 397.472 533.979 397.792C533.979 398.267 534.099 398.635 534.339 398.896C534.584 399.152 534.891 399.28 535.259 399.28ZM540.153 399.184L541.401 395.592H542.369L540.689 400H539.601L537.929 395.592H538.905L540.153 399.184ZM542.754 397.776C542.754 397.333 542.845 396.941 543.026 396.6C543.213 396.259 543.463 395.995 543.778 395.808C544.098 395.616 544.45 395.52 544.834 395.52C545.181 395.52 545.482 395.589 545.738 395.728C545.999 395.861 546.207 396.029 546.362 396.232V395.592H547.282V400H546.362V399.344C546.207 399.552 545.997 399.725 545.73 399.864C545.463 400.003 545.159 400.072 544.818 400.072C544.439 400.072 544.093 399.976 543.778 399.784C543.463 399.587 543.213 399.315 543.026 398.968C542.845 398.616 542.754 398.219 542.754 397.776ZM546.362 397.792C546.362 397.488 546.298 397.224 546.17 397C546.047 396.776 545.885 396.605 545.682 396.488C545.479 396.371 545.261 396.312 545.026 396.312C544.791 396.312 544.573 396.371 544.37 396.488C544.167 396.6 544.002 396.768 543.874 396.992C543.751 397.211 543.69 397.472 543.69 397.776C543.69 398.08 543.751 398.347 543.874 398.576C544.002 398.805 544.167 398.981 544.37 399.104C544.578 399.221 544.797 399.28 545.026 399.28C545.261 399.28 545.479 399.221 545.682 399.104C545.885 398.987 546.047 398.816 546.17 398.592C546.298 398.363 546.362 398.096 546.362 397.792ZM549.392 394.08V400H548.48V394.08H549.392ZM556.555 396.096C556.555 396.379 556.489 396.645 556.355 396.896C556.222 397.147 556.009 397.352 555.715 397.512C555.422 397.667 555.046 397.744 554.587 397.744H553.579V400H552.667V394.44H554.587C555.014 394.44 555.374 394.515 555.667 394.664C555.966 394.808 556.187 395.005 556.331 395.256C556.481 395.507 556.555 395.787 556.555 396.096ZM554.587 397C554.934 397 555.193 396.923 555.363 396.768C555.534 396.608 555.619 396.384 555.619 396.096C555.619 395.488 555.275 395.184 554.587 395.184H553.579V397H554.587ZM561.465 397.688C561.465 397.853 561.455 398.003 561.433 398.136H558.065C558.092 398.488 558.223 398.771 558.457 398.984C558.692 399.197 558.98 399.304 559.321 399.304C559.812 399.304 560.159 399.099 560.361 398.688H561.345C561.212 399.093 560.969 399.427 560.617 399.688C560.271 399.944 559.839 400.072 559.321 400.072C558.9 400.072 558.521 399.979 558.185 399.792C557.855 399.6 557.593 399.333 557.401 398.992C557.215 398.645 557.121 398.245 557.121 397.792C557.121 397.339 557.212 396.941 557.393 396.6C557.58 396.253 557.839 395.987 558.169 395.8C558.505 395.613 558.889 395.52 559.321 395.52C559.737 395.52 560.108 395.611 560.433 395.792C560.759 395.973 561.012 396.229 561.193 396.56C561.375 396.885 561.465 397.261 561.465 397.688ZM560.513 397.4C560.508 397.064 560.388 396.795 560.153 396.592C559.919 396.389 559.628 396.288 559.281 396.288C558.967 396.288 558.697 396.389 558.473 396.592C558.249 396.789 558.116 397.059 558.073 397.4H560.513ZM564.587 395.52C564.933 395.52 565.243 395.592 565.515 395.736C565.792 395.88 566.008 396.093 566.163 396.376C566.317 396.659 566.395 397 566.395 397.4V400H565.491V397.536C565.491 397.141 565.392 396.84 565.195 396.632C564.997 396.419 564.728 396.312 564.387 396.312C564.045 396.312 563.773 396.419 563.571 396.632C563.373 396.84 563.275 397.141 563.275 397.536V400H562.363V395.592H563.275V396.096C563.424 395.915 563.613 395.773 563.843 395.672C564.077 395.571 564.325 395.52 564.587 395.52ZM567.254 397.776C567.254 397.333 567.345 396.941 567.526 396.6C567.713 396.259 567.963 395.995 568.278 395.808C568.598 395.616 568.953 395.52 569.342 395.52C569.63 395.52 569.913 395.584 570.19 395.712C570.473 395.835 570.697 396 570.862 396.208V394.08H571.782V400H570.862V399.336C570.713 399.549 570.505 399.725 570.238 399.864C569.977 400.003 569.675 400.072 569.334 400.072C568.95 400.072 568.598 399.976 568.278 399.784C567.963 399.587 567.713 399.315 567.526 398.968C567.345 398.616 567.254 398.219 567.254 397.776ZM570.862 397.792C570.862 397.488 570.798 397.224 570.67 397C570.547 396.776 570.385 396.605 570.182 396.488C569.979 396.371 569.761 396.312 569.526 396.312C569.291 396.312 569.073 396.371 568.87 396.488C568.667 396.6 568.502 396.768 568.374 396.992C568.251 397.211 568.19 397.472 568.19 397.776C568.19 398.08 568.251 398.347 568.374 398.576C568.502 398.805 568.667 398.981 568.87 399.104C569.078 399.221 569.297 399.28 569.526 399.28C569.761 399.28 569.979 399.221 570.182 399.104C570.385 398.987 570.547 398.816 570.67 398.592C570.798 398.363 570.862 398.096 570.862 397.792ZM573.444 395.008C573.279 395.008 573.14 394.952 573.028 394.84C572.916 394.728 572.86 394.589 572.86 394.424C572.86 394.259 572.916 394.12 573.028 394.008C573.14 393.896 573.279 393.84 573.444 393.84C573.604 393.84 573.74 393.896 573.852 394.008C573.964 394.12 574.02 394.259 574.02 394.424C574.02 394.589 573.964 394.728 573.852 394.84C573.74 394.952 573.604 395.008 573.444 395.008ZM573.892 395.592V400H572.98V395.592H573.892ZM577.313 395.52C577.66 395.52 577.969 395.592 578.241 395.736C578.519 395.88 578.735 396.093 578.889 396.376C579.044 396.659 579.121 397 579.121 397.4V400H578.217V397.536C578.217 397.141 578.119 396.84 577.921 396.632C577.724 396.419 577.455 396.312 577.113 396.312C576.772 396.312 576.5 396.419 576.297 396.632C576.1 396.84 576.001 397.141 576.001 397.536V400H575.089V395.592H576.001V396.096C576.151 395.915 576.34 395.773 576.569 395.672C576.804 395.571 577.052 395.52 577.313 395.52ZM582.061 395.52C582.402 395.52 582.703 395.589 582.965 395.728C583.231 395.861 583.439 396.029 583.589 396.232V395.592H584.509V400.072C584.509 400.477 584.423 400.837 584.253 401.152C584.082 401.472 583.834 401.723 583.509 401.904C583.189 402.085 582.805 402.176 582.357 402.176C581.759 402.176 581.263 402.035 580.869 401.752C580.474 401.475 580.25 401.096 580.197 400.616H581.101C581.17 400.845 581.317 401.029 581.541 401.168C581.77 401.312 582.042 401.384 582.357 401.384C582.725 401.384 583.021 401.272 583.245 401.048C583.474 400.824 583.589 400.499 583.589 400.072V399.336C583.434 399.544 583.223 399.72 582.957 399.864C582.695 400.003 582.397 400.072 582.061 400.072C581.677 400.072 581.325 399.976 581.005 399.784C580.69 399.587 580.439 399.315 580.253 398.968C580.071 398.616 579.981 398.219 579.981 397.776C579.981 397.333 580.071 396.941 580.253 396.6C580.439 396.259 580.69 395.995 581.005 395.808C581.325 395.616 581.677 395.52 582.061 395.52ZM583.589 397.792C583.589 397.488 583.525 397.224 583.397 397C583.274 396.776 583.111 396.605 582.909 396.488C582.706 396.371 582.487 396.312 582.253 396.312C582.018 396.312 581.799 396.371 581.597 396.488C581.394 396.6 581.229 396.768 581.101 396.992C580.978 397.211 580.917 397.472 580.917 397.776C580.917 398.08 580.978 398.347 581.101 398.576C581.229 398.805 581.394 398.981 581.597 399.104C581.805 399.221 582.023 399.28 582.253 399.28C582.487 399.28 582.706 399.221 582.909 399.104C583.111 398.987 583.274 398.816 583.397 398.592C583.525 398.363 583.589 398.096 583.589 397.792Z" fill="#FF0000"/>
<circle cx="508.255" cy="397.255" r="2" fill="#FF0000"/>
</g>
<defs>
<filter id="filter0_d_1_124" x="650" y="-27" width="263" height="100" filterUnits="userSpaceOnUse" color-interpolation-filters="sRGB">
<feFlood flood-opacity="0" result="BackgroundImageFix"/>
<feColorMatrix in="SourceAlpha" type="matrix" values="0 0 0 0 0 0 0 0 0 0 0 0 0 0 0 0 0 0 127 0" result="hardAlpha"/>
<feOffset/>
<feGaussianBlur stdDeviation="15"/>
<feComposite in2="hardAlpha" operator="out"/>
<feColorMatrix type="matrix" values="0 0 0 0 0.501961 0 0 0 0 0.501961 0 0 0 0 0.501961 0 0 0 0.15 0"/>
<feBlend mode="normal" in2="BackgroundImageFix" result="effect1_dropShadow_1_124"/>
<feBlend mode="normal" in="SourceGraphic" in2="effect1_dropShadow_1_124" result="shape"/>
</filter>
<filter id="filter1_d_1_124" x="790" y="-27" width="97" height="100" filterUnits="userSpaceOnUse" color-interpolation-filters="sRGB">
<feFlood flood-opacity="0" result="BackgroundImageFix"/>
<feColorMatrix in="SourceAlpha" type="matrix" values="0 0 0 0 0 0 0 0 0 0 0 0 0 0 0 0 0 0 127 0" result="hardAlpha"/>
<feOffset/>
<feGaussianBlur stdDeviation="15"/>
<feComposite in2="hardAlpha" operator="out"/>
<feColorMatrix type="matrix" values="0 0 0 0 0.501961 0 0 0 0 0.501961 0 0 0 0 0.501961 0 0 0 0.15 0"/>
<feBlend mode="normal" in2="BackgroundImageFix" result="effect1_dropShadow_1_124"/>
<feBlend mode="normal" in="SourceGraphic" in2="effect1_dropShadow_1_124" result="shape"/>
</filter>
<filter id="filter2_d_1_124" x="600" y="-27" width="97" height="100" filterUnits="userSpaceOnUse" color-interpolation-filters="sRGB">
<feFlood flood-opacity="0" result="BackgroundImageFix"/>
<feColorMatrix in="SourceAlpha" type="matrix" values="0 0 0 0 0 0 0 0 0 0 0 0 0 0 0 0 0 0 127 0" result="hardAlpha"/>
<feOffset/>
<feGaussianBlur stdDeviation="15"/>
<feComposite in2="hardAlpha" operator="out"/>
<feColorMatrix type="matrix" values="0 0 0 0 0.501961 0 0 0 0 0.501961 0 0 0 0 0.501961 0 0 0 0.15 0"/>
<feBlend mode="normal" in2="BackgroundImageFix" result="effect1_dropShadow_1_124"/>
<feBlend mode="normal" in="SourceGraphic" in2="effect1_dropShadow_1_124" result="shape"/>
</filter>
<clipPath id="clip0_1_124">
<rect width="860" height="605" fill="white"/>
</clipPath>
</defs>
</svg>
