<svg width="21" height="20" viewBox="0 0 21 20" fill="none" xmlns="http://www.w3.org/2000/svg">
<path d="M4.56807 17.9166C4.2099 17.9166 3.90312 17.7889 3.64773 17.5335C3.39234 17.2781 3.26465 16.9714 3.26465 16.6132V4.85041C3.26465 4.49225 3.39234 4.18547 3.64773 3.93008C3.90312 3.6747 4.2099 3.54702 4.56807 3.54702H5.97834V1.98718H7.10546V3.54702H13.6225V1.98718H14.7229V3.54702H16.1279C16.486 3.54702 16.7928 3.6747 17.0482 3.93008C17.3036 4.18547 17.4313 4.49225 17.4313 4.85041V16.6132C17.4313 16.9714 17.3036 17.2781 17.0482 17.5335C16.7928 17.7889 16.486 17.9166 16.1279 17.9166H4.56807ZM4.56807 16.8696H16.1279C16.192 16.8696 16.2507 16.8429 16.3041 16.7895C16.3576 16.7361 16.3843 16.6773 16.3843 16.6132V8.48825H4.31163V16.6132C4.31163 16.6773 4.33834 16.7361 4.39177 16.7895C4.44519 16.8429 4.50395 16.8696 4.56807 16.8696ZM4.31163 7.44127H16.3843V4.85041C16.3843 4.78631 16.3576 4.72755 16.3041 4.67412C16.2507 4.6207 16.192 4.594 16.1279 4.594H4.56807C4.50395 4.594 4.44519 4.6207 4.39177 4.67412C4.33834 4.72755 4.31163 4.78631 4.31163 4.85041V7.44127ZM10.348 11.7307C10.1439 11.7307 9.97003 11.6589 9.82634 11.5152C9.68264 11.3715 9.61079 11.1976 9.61079 10.9936C9.61079 10.7895 9.68264 10.6156 9.82634 10.472C9.97003 10.3283 10.1439 10.2564 10.348 10.2564C10.552 10.2564 10.7259 10.3283 10.8696 10.472C11.0133 10.6156 11.0851 10.7895 11.0851 10.9936C11.0851 11.1976 11.0133 11.3715 10.8696 11.5152C10.7259 11.6589 10.552 11.7307 10.348 11.7307ZM7.01463 11.7307C6.81057 11.7307 6.6367 11.6589 6.493 11.5152C6.34931 11.3715 6.27746 11.1976 6.27746 10.9936C6.27746 10.7895 6.34931 10.6156 6.493 10.472C6.6367 10.3283 6.81057 10.2564 7.01463 10.2564C7.21868 10.2564 7.39256 10.3283 7.53625 10.472C7.67995 10.6156 7.75179 10.7895 7.75179 10.9936C7.75179 11.1976 7.67995 11.3715 7.53625 11.5152C7.39256 11.6589 7.21868 11.7307 7.01463 11.7307ZM13.6813 11.7307C13.4772 11.7307 13.3034 11.6589 13.1597 11.5152C13.016 11.3715 12.9441 11.1976 12.9441 10.9936C12.9441 10.7895 13.016 10.6156 13.1597 10.472C13.3034 10.3283 13.4772 10.2564 13.6813 10.2564C13.8853 10.2564 14.0592 10.3283 14.2029 10.472C14.3466 10.6156 14.4185 10.7895 14.4185 10.9936C14.4185 11.1976 14.3466 11.3715 14.2029 11.5152C14.0592 11.6589 13.8853 11.7307 13.6813 11.7307ZM10.348 15C10.1439 15 9.97003 14.9281 9.82634 14.7844C9.68264 14.6407 9.61079 14.4669 9.61079 14.2628C9.61079 14.0588 9.68264 13.8849 9.82634 13.7412C9.97003 13.5975 10.1439 13.5256 10.348 13.5256C10.552 13.5256 10.7259 13.5975 10.8696 13.7412C11.0133 13.8849 11.0851 14.0588 11.0851 14.2628C11.0851 14.4669 11.0133 14.6407 10.8696 14.7844C10.7259 14.9281 10.552 15 10.348 15ZM7.01463 15C6.81057 15 6.6367 14.9281 6.493 14.7844C6.34931 14.6407 6.27746 14.4669 6.27746 14.2628C6.27746 14.0588 6.34931 13.8849 6.493 13.7412C6.6367 13.5975 6.81057 13.5256 7.01463 13.5256C7.21868 13.5256 7.39256 13.5975 7.53625 13.7412C7.67995 13.8849 7.75179 14.0588 7.75179 14.2628C7.75179 14.4669 7.67995 14.6407 7.53625 14.7844C7.39256 14.9281 7.21868 15 7.01463 15ZM13.6813 15C13.4772 15 13.3034 14.9281 13.1597 14.7844C13.016 14.6407 12.9441 14.4669 12.9441 14.2628C12.9441 14.0588 13.016 13.8849 13.1597 13.7412C13.3034 13.5975 13.4772 13.5256 13.6813 13.5256C13.8853 13.5256 14.0592 13.5975 14.2029 13.7412C14.3466 13.8849 14.4185 14.0588 14.4185 14.2628C14.4185 14.4669 14.3466 14.6407 14.2029 14.7844C14.0592 14.9281 13.8853 15 13.6813 15Z" fill="#3272EC"/>
</svg>
