<svg width="21" height="20" viewBox="0 0 21 20" fill="none" xmlns="http://www.w3.org/2000/svg">
<g clip-path="url(#clip0_1441_12794)">
<path d="M18.0539 15C18.6783 15 19.175 14.6071 19.6209 14.0576C20.5338 12.9329 19.035 12.034 18.4633 11.5938C17.8822 11.1463 17.2334 10.8928 16.5755 10.8333M15.7422 9.16667C16.8928 9.16667 17.8255 8.23393 17.8255 7.08333C17.8255 5.93274 16.8928 5 15.7422 5" stroke="#3272EC" stroke-width="1.5" stroke-linecap="round"/>
<path d="M3.43016 15C2.80574 15 2.30908 14.6071 1.86315 14.0576C0.950269 12.9329 2.44909 12.034 3.02073 11.5938C3.60184 11.1463 4.25068 10.8928 4.90853 10.8333M5.3252 9.16667C4.1746 9.16667 3.24186 8.23393 3.24186 7.08333C3.24186 5.93274 4.1746 5 5.3252 5" stroke="#3272EC" stroke-width="1.5" stroke-linecap="round"/>
<path d="M7.47837 12.5927C6.62688 13.1192 4.39435 14.1943 5.75411 15.5395C6.41834 16.1967 7.15813 16.6667 8.08822 16.6667H13.3955C14.3256 16.6667 15.0654 16.1967 15.7296 15.5395C17.0894 14.1943 14.8568 13.1192 14.0054 12.5927C12.0086 11.358 9.47508 11.358 7.47837 12.5927Z" stroke="#3272EC" stroke-width="1.5" stroke-linecap="round" stroke-linejoin="round"/>
<path d="M13.6585 6.25001C13.6585 7.86084 12.3527 9.16668 10.7419 9.16668C9.13103 9.16668 7.8252 7.86084 7.8252 6.25001C7.8252 4.63918 9.13103 3.33334 10.7419 3.33334C12.3527 3.33334 13.6585 4.63918 13.6585 6.25001Z" stroke="#3272EC" stroke-width="1.5"/>
</g>
<defs>
<clipPath id="clip0_1441_12794">
<rect width="20" height="20" fill="white" transform="translate(0.742188)"/>
</clipPath>
</defs>
</svg>
