<svg width="21" height="20" viewBox="0 0 21 20" fill="none" xmlns="http://www.w3.org/2000/svg">
<g clip-path="url(#clip0_1441_12773)">
<path d="M3.33984 13.79C3.33984 12.7203 3.33984 12.1854 3.58063 11.7925C3.71536 11.5726 3.90021 11.3878 4.12007 11.2531C4.513 11.0123 5.04787 11.0123 6.11762 11.0123C7.18737 11.0123 7.72224 11.0123 8.11517 11.2531C8.33503 11.3878 8.51988 11.5726 8.65461 11.7925C8.8954 12.1854 8.8954 12.7203 8.8954 13.79C8.8954 14.8598 8.8954 15.3947 8.65461 15.7876C8.51988 16.0075 8.33503 16.1923 8.11517 16.327C7.72224 16.5678 7.18737 16.5678 6.11762 16.5678C5.04787 16.5678 4.513 16.5678 4.12007 16.327C3.90021 16.1923 3.71536 16.0075 3.58063 15.7876C3.33984 15.3947 3.33984 14.8598 3.33984 13.79Z" stroke="#3272EC" stroke-width="1.5"/>
<path d="M11.6729 13.79C11.6729 12.7203 11.6729 12.1854 11.9136 11.7925C12.0484 11.5726 12.2332 11.3878 12.4531 11.2531C12.846 11.0123 13.3809 11.0123 14.4506 11.0123C15.5204 11.0123 16.0553 11.0123 16.4482 11.2531C16.668 11.3878 16.8529 11.5726 16.9876 11.7925C17.2284 12.1854 17.2284 12.7203 17.2284 13.79C17.2284 14.8598 17.2284 15.3947 16.9876 15.7876C16.8529 16.0075 16.668 16.1923 16.4482 16.327C16.0553 16.5678 15.5204 16.5678 14.4506 16.5678C13.3809 16.5678 12.846 16.5678 12.4531 16.327C12.2332 16.1923 12.0484 16.0075 11.9136 15.7876C11.6729 15.3947 11.6729 14.8598 11.6729 13.79Z" stroke="#3272EC" stroke-width="1.5"/>
<path d="M3.33984 5.4567C3.33984 4.38695 3.33984 3.85208 3.58063 3.45916C3.71536 3.23929 3.90021 3.05444 4.12007 2.91971C4.513 2.67892 5.04787 2.67892 6.11762 2.67892C7.18737 2.67892 7.72224 2.67892 8.11517 2.91971C8.33503 3.05444 8.51988 3.23929 8.65461 3.45916C8.8954 3.85208 8.8954 4.38695 8.8954 5.4567C8.8954 6.52645 8.8954 7.06132 8.65461 7.45425C8.51988 7.67411 8.33503 7.85896 8.11517 7.9937C7.72224 8.23448 7.18737 8.23448 6.11762 8.23448C5.04787 8.23448 4.513 8.23448 4.12007 7.9937C3.90021 7.85896 3.71536 7.67411 3.58063 7.45425C3.33984 7.06132 3.33984 6.52645 3.33984 5.4567Z" stroke="#3272EC" stroke-width="1.5"/>
<path d="M11.6729 5.4567C11.6729 4.38695 11.6729 3.85208 11.9136 3.45916C12.0484 3.23929 12.2332 3.05444 12.4531 2.91971C12.846 2.67892 13.3809 2.67892 14.4506 2.67892C15.5204 2.67892 16.0553 2.67892 16.4482 2.91971C16.668 3.05444 16.8529 3.23929 16.9876 3.45916C17.2284 3.85208 17.2284 4.38695 17.2284 5.4567C17.2284 6.52645 17.2284 7.06132 16.9876 7.45425C16.8529 7.67411 16.668 7.85896 16.4482 7.9937C16.0553 8.23448 15.5204 8.23448 14.4506 8.23448C13.3809 8.23448 12.846 8.23448 12.4531 7.9937C12.2332 7.85896 12.0484 7.67411 11.9136 7.45425C11.6729 7.06132 11.6729 6.52645 11.6729 5.4567Z" stroke="#3272EC" stroke-width="1.5"/>
</g>
<defs>
<clipPath id="clip0_1441_12773">
<rect width="16.6667" height="16.6667" fill="white" transform="translate(1.95117 1.29004)"/>
</clipPath>
</defs>
</svg>
