<svg width="21" height="20" viewBox="0 0 21 20" fill="none" xmlns="http://www.w3.org/2000/svg">
<path d="M9.42488 14.9647L6.79457 12.3483L7.53492 11.6079L9.42488 13.4755L13.099 9.79596L13.8447 10.5449L9.42488 14.9647ZM4.56807 17.9167C4.2099 17.9167 3.90312 17.789 3.64773 17.5336C3.39234 17.2782 3.26465 16.9714 3.26465 16.6132V4.85044C3.26465 4.49228 3.39234 4.1855 3.64773 3.93011C3.90312 3.67473 4.2099 3.54705 4.56807 3.54705H5.97834V1.98721H7.10546V3.54705H13.6225V1.98721H14.7229V3.54705H16.1279C16.486 3.54705 16.7928 3.67473 17.0482 3.93011C17.3036 4.1855 17.4313 4.49228 17.4313 4.85044V16.6132C17.4313 16.9714 17.3036 17.2782 17.0482 17.5336C16.7928 17.789 16.486 17.9167 16.1279 17.9167H4.56807ZM4.56807 16.8697H16.1279C16.192 16.8697 16.2507 16.843 16.3041 16.7895C16.3576 16.7361 16.3843 16.6773 16.3843 16.6132V8.48828H4.31163V16.6132C4.31163 16.6773 4.33834 16.7361 4.39177 16.7895C4.44519 16.843 4.50395 16.8697 4.56807 16.8697ZM4.31163 7.4413H16.3843V4.85044C16.3843 4.78635 16.3576 4.72758 16.3041 4.67415C16.2507 4.62073 16.192 4.59403 16.1279 4.59403H4.56807C4.50395 4.59403 4.44519 4.62073 4.39177 4.67415C4.33834 4.72758 4.31163 4.78635 4.31163 4.85044V7.4413Z" fill="#3272EC"/>
</svg>
