<svg width="21" height="20" viewBox="0 0 21 20" fill="none" xmlns="http://www.w3.org/2000/svg">
<path d="M12.7604 15.203C12.233 15.203 11.7863 15.019 11.4204 14.651C11.0544 14.2829 10.8715 13.8352 10.8715 13.3077C10.8715 12.7803 11.0555 12.3336 11.4235 11.9677C11.7915 11.6018 12.2393 11.4188 12.7667 11.4188C13.2942 11.4188 13.7409 11.6028 14.1068 11.9708C14.4727 12.3388 14.6556 12.7866 14.6556 13.314C14.6556 13.8415 14.4716 14.2882 14.1036 14.6541C13.7356 15.02 13.2879 15.203 12.7604 15.203ZM4.56807 17.9166C4.2099 17.9166 3.90312 17.7889 3.64773 17.5335C3.39234 17.2781 3.26465 16.9714 3.26465 16.6132V4.85041C3.26465 4.49225 3.39234 4.18547 3.64773 3.93008C3.90312 3.6747 4.2099 3.54702 4.56807 3.54702H5.97834V1.98718H7.10546V3.54702H13.6225V1.98718H14.7229V3.54702H16.1279C16.486 3.54702 16.7928 3.6747 17.0482 3.93008C17.3036 4.18547 17.4313 4.49225 17.4313 4.85041V16.6132C17.4313 16.9714 17.3036 17.2781 17.0482 17.5335C16.7928 17.7889 16.486 17.9166 16.1279 17.9166H4.56807ZM4.56807 16.8696H16.1279C16.192 16.8696 16.2507 16.8429 16.3041 16.7895C16.3576 16.7361 16.3843 16.6773 16.3843 16.6132V8.48825H4.31163V16.6132C4.31163 16.6773 4.33834 16.7361 4.39177 16.7895C4.44519 16.8429 4.50395 16.8696 4.56807 16.8696ZM4.31163 7.44127H16.3843V4.85041C16.3843 4.78631 16.3576 4.72755 16.3041 4.67412C16.2507 4.6207 16.192 4.594 16.1279 4.594H4.56807C4.50395 4.594 4.44519 4.6207 4.39177 4.67412C4.33834 4.72755 4.31163 4.78631 4.31163 4.85041V7.44127Z" fill="#3272EC"/>
</svg>
