<svg width="21" height="20" viewBox="0 0 21 20" fill="none" xmlns="http://www.w3.org/2000/svg">
<path d="M3.47862 15.78V15.6261V16.0364V6.46373V15.78ZM3.73506 17.0834C3.37689 17.0834 3.07011 16.9557 2.81472 16.7003C2.55934 16.4449 2.43164 16.1381 2.43164 15.78V6.72016C2.43164 6.362 2.55934 6.05522 2.81472 5.79983C3.07011 5.54444 3.37689 5.41675 3.73506 5.41675H7.43164V3.80352C7.43164 3.45025 7.55934 3.14471 7.81472 2.88687C8.07011 2.62904 8.37689 2.50012 8.73506 2.50012H11.9615C12.3197 2.50012 12.6265 2.62904 12.8818 2.88687C13.1372 3.14471 13.2649 3.45025 13.2649 3.80352V5.41675H16.9615C17.3197 5.41675 17.6265 5.54444 17.8819 5.79983C18.1372 6.05522 18.2649 6.362 18.2649 6.72016V10.7976C18.1036 10.6801 17.9376 10.5742 17.7668 10.4798C17.596 10.3854 17.4131 10.2975 17.218 10.2159V6.72016C17.218 6.64537 17.1939 6.58394 17.1458 6.53585C17.0977 6.48777 17.0363 6.46373 16.9615 6.46373H3.73506C3.66027 6.46373 3.59883 6.48777 3.55074 6.53585C3.50266 6.58394 3.47862 6.64537 3.47862 6.72016V15.78C3.47862 15.8547 3.50266 15.9162 3.55074 15.9643C3.59883 16.0124 3.66027 16.0364 3.73506 16.0364H10.3072C10.3492 16.223 10.3999 16.4031 10.4592 16.5767C10.5185 16.7503 10.5891 16.9192 10.671 17.0834H3.73506ZM8.47862 5.41675H12.218V3.80352C12.218 3.72873 12.1939 3.6673 12.1458 3.61923C12.0977 3.57114 12.0363 3.5471 11.9615 3.5471H8.73506C8.66027 3.5471 8.59883 3.57114 8.55074 3.61923C8.50266 3.6673 8.47862 3.72873 8.47862 3.80352V5.41675ZM15.3483 18.6795C14.3341 18.6795 13.4673 18.3198 12.7479 17.6005C12.0285 16.8811 11.6688 16.0143 11.6688 15.0001C11.6688 13.9858 12.0285 13.119 12.7479 12.3997C13.4673 11.6803 14.3341 11.3206 15.3483 11.3206C16.3625 11.3206 17.2293 11.6803 17.9487 12.3997C18.6681 13.119 19.0277 13.9858 19.0277 15.0001C19.0277 16.0143 18.6681 16.8811 17.9487 17.6005C17.2293 18.3198 16.3625 18.6795 15.3483 18.6795ZM15.3483 17.2698L17.5855 15.0326L17.1367 14.5839L15.6688 16.0572V12.7303H15.0331V16.0572L13.5598 14.5839L13.1111 15.0326L15.3483 17.2698Z" fill="#3272EC"/>
</svg>
