<svg width="21" height="20" viewBox="0 0 21 20" fill="none" xmlns="http://www.w3.org/2000/svg">
<path d="M6.45371 14.9893C6.09554 14.9893 5.78877 14.8616 5.53338 14.6062C5.27799 14.3509 5.15029 14.0441 5.15029 13.6859V11.4156H6.19727V13.6859C6.19727 13.75 6.22399 13.8088 6.27742 13.8622C6.33084 13.9156 6.3896 13.9423 6.45371 13.9423H16.7528C16.8169 13.9423 16.8757 13.9156 16.9291 13.8622C16.9825 13.8088 17.0093 13.75 17.0093 13.6859V4.59404H6.19727V7.12075H5.15029V3.38679C5.15029 3.02862 5.27799 2.72185 5.53338 2.46646C5.78877 2.21107 6.09554 2.08337 6.45371 2.08337H16.7528C17.111 2.08337 17.4178 2.21107 17.6731 2.46646C17.9285 2.72185 18.0562 3.02862 18.0562 3.38679V13.6859C18.0562 14.0441 17.9285 14.3509 17.6731 14.6062C17.4178 14.8616 17.111 14.9893 16.7528 14.9893H6.45371ZM3.94306 17.5C3.58488 17.5 3.27811 17.3723 3.02273 17.1169C2.76734 16.8615 2.63965 16.5547 2.63965 16.1966V4.85046H3.68663V16.1966C3.68663 16.2607 3.71334 16.3194 3.76677 16.3729C3.82019 16.4263 3.87895 16.453 3.94306 16.453H15.2891V17.5H3.94306ZM10.7379 12.5272L10.0087 11.7981L11.9863 9.79167H5.15029V8.74469H11.9863L10.0087 6.73825L10.7379 6.0091L13.997 9.26819L10.7379 12.5272Z" fill="#3272EC"/>
</svg>
