<svg width="21" height="20" viewBox="0 0 21 20" fill="none" xmlns="http://www.w3.org/2000/svg">
<path d="M4.31163 14.6644V16.0363V3.96361V14.6644ZM4.56807 17.0833C4.21105 17.0833 3.90456 16.9553 3.64861 16.6993C3.39263 16.4433 3.26465 16.1368 3.26465 15.7798V4.22004C3.26465 3.86303 3.39263 3.55654 3.64861 3.30059C3.90456 3.04461 4.21105 2.91663 4.56807 2.91663H16.1279C16.4849 2.91663 16.7914 3.04461 17.0473 3.30059C17.3033 3.55654 17.4313 3.86303 17.4313 4.22004V6.83171H16.3843V4.22004C16.3843 4.14525 16.3603 4.08381 16.3122 4.03573C16.2641 3.98765 16.2026 3.96361 16.1279 3.96361H4.56807C4.49327 3.96361 4.43184 3.98765 4.38375 4.03573C4.33567 4.08381 4.31163 4.14525 4.31163 4.22004V15.7798C4.31163 15.8546 4.33567 15.9161 4.38375 15.9641C4.43184 16.0122 4.49327 16.0363 4.56807 16.0363H16.1279C16.2026 16.0363 16.2641 16.0122 16.3122 15.9641C16.3603 15.9161 16.3843 15.8546 16.3843 15.7798V13.1767H17.4313V15.7798C17.4313 16.1368 17.3033 16.4433 17.0473 16.6993C16.7914 16.9553 16.4849 17.0833 16.1279 17.0833H4.56807ZM11.6174 13.6174C11.2218 13.6174 10.8822 13.4772 10.5989 13.1966C10.3155 12.9161 10.1739 12.5778 10.1739 12.1815V7.82688C10.1739 7.43068 10.3155 7.09232 10.5989 6.81179C10.8822 6.53127 11.2218 6.391 11.6174 6.391H16.8373C17.2373 6.391 17.5789 6.53127 17.8622 6.81179C18.1454 7.09232 18.287 7.43068 18.287 7.82688V12.1815C18.287 12.5778 18.1454 12.9161 17.8622 13.1966C17.5789 13.4772 17.2373 13.6174 16.8373 13.6174H11.6174ZM16.9836 12.5705C17.0549 12.5705 17.1154 12.5464 17.1653 12.4983C17.2151 12.4503 17.2401 12.3888 17.2401 12.314V7.6944C17.2401 7.62317 17.2151 7.56263 17.1653 7.51277C17.1154 7.46291 17.0549 7.43798 16.9836 7.43798H11.4773C11.406 7.43798 11.3455 7.46291 11.2956 7.51277C11.2457 7.56263 11.2208 7.62317 11.2208 7.6944V12.314C11.2208 12.3888 11.2457 12.4503 11.2956 12.4983C11.3455 12.5464 11.406 12.5705 11.4773 12.5705H16.9836ZM13.8085 11.2895C14.1649 11.2895 14.4684 11.1633 14.719 10.9109C14.9695 10.6585 15.0948 10.352 15.0948 9.9914C15.0948 9.63259 14.9678 9.32939 14.714 9.08179C14.4602 8.83421 14.1573 8.71042 13.8052 8.71042C13.4487 8.71042 13.1438 8.83421 12.8904 9.08179C12.637 9.32939 12.5104 9.63259 12.5104 9.9914C12.5104 10.352 12.6366 10.6585 12.889 10.9109C13.1414 11.1633 13.4479 11.2895 13.8085 11.2895Z" fill="#3272EC"/>
</svg>
