<svg width="21" height="20" viewBox="0 0 21 20" fill="none" xmlns="http://www.w3.org/2000/svg">
<path d="M7.21409 14.6902H13.4812V13.6432H7.21409V14.6902ZM7.21409 11.2554H13.4812V10.2084H7.21409V11.2554ZM5.40107 17.9167C5.04291 17.9167 4.73613 17.789 4.48074 17.5336C4.22535 17.2782 4.09766 16.9714 4.09766 16.6133V3.38682C4.09766 3.02866 4.22535 2.72188 4.48074 2.46649C4.73613 2.2111 5.04291 2.0834 5.40107 2.0834H12.4342L16.5976 6.24682V16.6133C16.5976 16.9714 16.4699 17.2782 16.2145 17.5336C15.9591 17.789 15.6524 17.9167 15.2942 17.9167H5.40107ZM11.9107 6.73934V3.13038H5.40107C5.33696 3.13038 5.2782 3.1571 5.22478 3.21053C5.17135 3.26395 5.14464 3.32271 5.14464 3.38682V16.6133C5.14464 16.6774 5.17135 16.7362 5.22478 16.7896C5.2782 16.843 5.33696 16.8697 5.40107 16.8697H15.2942C15.3583 16.8697 15.4171 16.843 15.4705 16.7896C15.5239 16.7362 15.5506 16.6774 15.5506 16.6133V6.73934H11.9107Z" fill="#3272EC"/>
</svg>
