<svg width="21" height="20" viewBox="0 0 21 20" fill="none" xmlns="http://www.w3.org/2000/svg">
<g clip-path="url(#clip0_309_18882)">
<mask id="mask0_309_18882" style="mask-type:luminance" maskUnits="userSpaceOnUse" x="0" y="0" width="21" height="20">
<path d="M20.2285 0H0.228516V20H20.2285V0Z" fill="white"/>
</mask>
<g mask="url(#mask0_309_18882)">
<path d="M17.8862 13.8167C17.5529 11.9167 15.9696 10.5917 14.0279 10.5917H13.9862C12.1612 10.6 10.5446 11.975 10.2279 13.7917C9.91124 15.6917 11.0112 17.5083 12.8446 18.125C13.0946 18.2 13.3362 18.2583 13.6362 18.325H14.5362C14.5362 18.325 14.5862 18.2917 14.6112 18.2833C14.6279 18.2833 14.6446 18.2667 14.6612 18.2667C15.6946 18.1 16.6029 17.5417 17.2112 16.6917C17.8112 15.85 18.0446 14.8333 17.8696 13.825L17.8862 13.8167ZM14.0446 11.6417C15.5946 11.6417 16.8529 12.9 16.8612 14.45C16.8612 16 15.6112 17.2667 14.0696 17.2667H14.0529C13.3112 17.2667 12.6112 16.975 12.0862 16.4583C11.5529 15.925 11.2529 15.2083 11.2529 14.4417C11.2529 12.9083 12.5029 11.65 14.0279 11.6417H14.0446Z" fill="#3272EC"/>
<path d="M13.0952 5.30838C13.0952 5.11672 13.0452 4.96672 12.9368 4.85005C12.8202 4.73338 12.6618 4.67505 12.4452 4.67505H7.98685C7.58685 4.67505 7.35352 4.90005 7.35352 5.27505C7.35352 5.45838 7.40352 5.60838 7.51185 5.70838C7.62018 5.81672 7.77018 5.86672 7.97018 5.86672H7.98685C8.52018 5.86672 9.04518 5.86672 9.57852 5.86672H10.2118H10.8452C11.3785 5.86672 11.9035 5.86672 12.4368 5.86672C12.9702 5.88338 13.0785 5.56672 13.0868 5.30005L13.0952 5.30838Z" fill="#3272EC"/>
<path d="M10.6283 7.98335H10.02H9.41165C8.88665 7.98335 8.35332 7.98335 7.82832 7.98335C7.38665 7.98335 7.16165 8.17502 7.15332 8.55835C7.15332 8.75002 7.20332 8.90002 7.30332 9.00002C7.45332 9.15835 7.67832 9.17502 7.83665 9.17502C9.28665 9.17502 10.7367 9.17502 12.1867 9.17502C12.345 9.17502 12.57 9.15835 12.7283 9.00002C12.8283 8.90002 12.8867 8.75002 12.8867 8.57502C12.8867 8.39169 12.8367 8.25002 12.7367 8.15002C12.5867 8.00002 12.3533 7.97502 12.1867 7.98335C11.67 7.98335 11.1533 7.98335 10.6367 7.98335H10.6283Z" fill="#3272EC"/>
<path d="M10.053 11.5917C9.97799 11.5167 9.84466 11.4333 9.61966 11.4333H7.95299C7.76966 11.4333 7.62799 11.4833 7.51966 11.5917C7.41133 11.7 7.36133 11.8417 7.36133 12.025C7.36133 12.2167 7.41966 12.3583 7.51966 12.4667C7.62799 12.5667 7.76133 12.6083 7.95299 12.6167C8.13633 12.6167 8.31966 12.6167 8.50299 12.6167H8.77799H9.03633C9.22799 12.6167 9.41966 12.6167 9.61133 12.6167H9.61966C9.83633 12.6167 9.96966 12.5333 10.0447 12.4583C10.153 12.35 10.2113 12.2 10.2113 12.025C10.2113 11.85 10.153 11.6917 10.0447 11.5917H10.053Z" fill="#3272EC"/>
<path d="M6.59518 7.98342C6.59518 7.98342 6.52852 7.98342 6.49518 7.96676C6.37852 7.95009 6.23685 7.92509 6.11185 8.00009C5.93685 8.10842 5.77852 8.24176 5.61185 8.38342C5.59518 8.40009 5.57852 8.40842 5.56185 8.42509C5.52018 8.37509 5.47852 8.34175 5.40352 8.32509C5.28685 8.29175 5.17018 8.29175 5.07018 8.30009H4.72852L4.75352 8.52509C4.75352 8.55842 4.75352 8.59175 4.75352 8.63342C4.75352 8.74175 4.75352 8.87509 4.82852 9.00009C4.94518 9.19176 5.12018 9.34176 5.25352 9.42509C5.32852 9.47509 5.43685 9.50842 5.54518 9.50842C5.63685 9.50842 5.72018 9.49175 5.78685 9.44175C6.15352 9.17509 6.44518 8.95009 6.69518 8.70842C6.81185 8.60009 6.80352 8.44176 6.79518 8.30842C6.79518 8.27509 6.79518 8.23342 6.79518 8.20842V8.00009L6.59518 7.99176V7.98342Z" fill="#3272EC"/>
<path d="M14.0288 15.2084C14.3621 15.3918 14.6871 15.5918 15.0204 15.7834L15.1871 15.8834C15.3288 15.9668 15.4538 16.0084 15.5704 16.0084C15.6121 16.0084 15.6454 16.0084 15.6871 15.9918C15.8204 15.9584 15.9288 15.8668 16.0038 15.7251C16.1204 15.5251 16.1621 15.2251 15.7288 14.9668L15.4538 14.8084C15.2204 14.6751 14.9871 14.5418 14.7704 14.3834C14.7121 14.3418 14.6538 14.2334 14.6454 14.1668C14.6204 13.8001 14.6288 13.4251 14.6371 13.0584V12.8668C14.6371 12.7168 14.6288 12.4918 14.4871 12.3501C14.2954 12.1584 13.9288 12.1668 13.7371 12.3584C13.6204 12.4751 13.5704 12.6501 13.5788 12.8918C13.5788 13.0751 13.5788 13.2584 13.5788 13.4334V13.6834C13.5788 13.7584 13.5788 13.8334 13.5788 13.9168C13.5788 14.0751 13.5788 14.2334 13.5788 14.3918C13.5454 14.7501 13.6954 15.0168 14.0371 15.2001L14.0288 15.2084Z" fill="#3272EC"/>
<path d="M5.29544 11.1918H6.20378C6.41211 11.1918 6.58711 11.3584 6.58711 11.5751V12.4834C6.58711 12.6918 6.42044 12.8668 6.20378 12.8668H5.29544C5.08711 12.8668 4.91211 12.7001 4.91211 12.4834V11.5751C4.91211 11.3668 5.07878 11.1918 5.29544 11.1918Z" fill="#3272EC"/>
<path d="M5.29544 4.44177H6.20378C6.41211 4.44177 6.58711 4.60844 6.58711 4.82511V5.73344C6.58711 5.94177 6.42044 6.11677 6.20378 6.11677H5.29544C5.08711 6.11677 4.91211 5.95011 4.91211 5.73344V4.82511C4.91211 4.61677 5.07878 4.44177 5.29544 4.44177Z" fill="#3272EC"/>
<path d="M9.41999 16.2167H3.91165C3.75332 16.2167 3.72832 16.1917 3.72832 16.1917C3.72832 16.1917 3.70332 16.1667 3.70332 16.0167C3.71165 11.7 3.71165 7.37505 3.70332 3.05838C3.70332 2.92505 3.77276 2.85838 3.91165 2.85838C7.46999 2.85838 11.0283 2.85838 14.5783 2.85838C14.7533 2.85838 14.7867 2.89172 14.7867 2.89172C14.7867 2.89172 14.82 2.93338 14.8117 3.10838C14.8117 4.35005 14.8117 5.60005 14.8117 6.84172V8.76672C14.8117 9.09172 15.0783 9.36671 15.4117 9.36671C15.745 9.36671 16.0117 9.10005 16.0117 8.76672V8.59172C16.0117 7.82505 16.0117 7.05838 16.0117 6.28338C16.0117 5.21672 16.0117 4.14172 16.0117 3.07505C16.02 2.38338 15.7617 1.94172 15.195 1.69172L3.46999 1.67505H3.40332C2.81165 1.89172 2.52832 2.31672 2.52832 3.00005C2.52832 7.36671 2.52832 11.7334 2.52832 16.1C2.52832 16.9834 2.94499 17.4 3.83665 17.4084H9.41999C9.75332 17.4084 10.02 17.1417 10.02 16.8084C10.02 16.475 9.75332 16.2167 9.41999 16.2167Z" fill="#3272EC"/>
</g>
</g>
<defs>
<clipPath id="clip0_309_18882">
<rect width="20" height="20" fill="white" transform="translate(0.62207)"/>
</clipPath>
</defs>
</svg>
