<svg width="21" height="20" viewBox="0 0 21 20" fill="none" xmlns="http://www.w3.org/2000/svg">
<g clip-path="url(#clip0_1441_12873)">
<mask id="mask0_1441_12873" style="mask-type:luminance" maskUnits="userSpaceOnUse" x="0" y="0" width="21" height="20">
<path d="M20.3477 0H0.347656V20H20.3477V0Z" fill="white"/>
</mask>
<g mask="url(#mask0_1441_12873)">
<path d="M18.0054 13.8166C17.6721 11.9166 16.0887 10.5916 14.1471 10.5916H14.1054C12.2804 10.6 10.6637 11.975 10.3471 13.7916C10.0304 15.6916 11.1304 17.5083 12.9637 18.125C13.2137 18.2 13.4554 18.2583 13.7554 18.325H14.6554C14.6554 18.325 14.7054 18.2916 14.7304 18.2833C14.7471 18.2833 14.7637 18.2666 14.7804 18.2666C15.8137 18.1 16.7221 17.5416 17.3304 16.6916C17.9304 15.85 18.1637 14.8333 17.9887 13.825L18.0054 13.8166ZM14.1637 11.6416C15.7137 11.6416 16.9721 12.9 16.9804 14.45C16.9804 16 15.7304 17.2666 14.1887 17.2666H14.1721C13.4304 17.2666 12.7304 16.975 12.2054 16.4583C11.6721 15.925 11.3721 15.2083 11.3721 14.4416C11.3721 12.9083 12.6221 11.65 14.1471 11.6416H14.1637Z" fill="white"/>
<path d="M13.2143 5.30832C13.2143 5.11665 13.1643 4.96665 13.056 4.84999C12.9393 4.73332 12.781 4.67499 12.5643 4.67499H8.10599C7.70599 4.67499 7.47266 4.89999 7.47266 5.27499C7.47266 5.45832 7.52266 5.60832 7.63099 5.70832C7.73932 5.81665 7.88932 5.86665 8.08932 5.86665H8.10599C8.63932 5.86665 9.16432 5.86665 9.69766 5.86665H10.331H10.9643C11.4977 5.86665 12.0227 5.86665 12.556 5.86665C13.0893 5.88332 13.1977 5.56665 13.206 5.29999L13.2143 5.30832Z" fill="white"/>
<path d="M10.7475 7.98332H10.1391H9.53079C9.00579 7.98332 8.47246 7.98332 7.94746 7.98332C7.50579 7.98332 7.28079 8.17499 7.27246 8.55832C7.27246 8.74999 7.32246 8.89999 7.42246 8.99999C7.57246 9.15832 7.79746 9.17499 7.95579 9.17499C9.40579 9.17499 10.8558 9.17499 12.3058 9.17499C12.4641 9.17499 12.6891 9.15832 12.8475 8.99999C12.9475 8.89999 13.0058 8.74999 13.0058 8.57499C13.0058 8.39165 12.9558 8.24999 12.8558 8.14999C12.7058 7.99999 12.4725 7.97499 12.3058 7.98332C11.7891 7.98332 11.2725 7.98332 10.7558 7.98332H10.7475Z" fill="white"/>
<path d="M10.1721 11.5917C10.0971 11.5167 9.9638 11.4333 9.7388 11.4333H8.07214C7.8888 11.4333 7.74714 11.4833 7.6388 11.5917C7.53047 11.7 7.48047 11.8417 7.48047 12.025C7.48047 12.2167 7.5388 12.3583 7.6388 12.4667C7.74714 12.5667 7.88047 12.6083 8.07214 12.6167C8.25547 12.6167 8.4388 12.6167 8.62214 12.6167H8.89714H9.15547C9.34713 12.6167 9.5388 12.6167 9.73047 12.6167H9.7388C9.95547 12.6167 10.0888 12.5333 10.1638 12.4583C10.2721 12.35 10.3305 12.2 10.3305 12.025C10.3305 11.85 10.2721 11.6917 10.1638 11.5917H10.1721Z" fill="white"/>
<path d="M6.71432 7.98333C6.71432 7.98333 6.64766 7.98333 6.61432 7.96666C6.49766 7.95 6.35599 7.925 6.23099 8C6.05599 8.10833 5.89766 8.24166 5.73099 8.38333C5.71432 8.4 5.69766 8.40833 5.68099 8.425C5.63932 8.375 5.59766 8.34166 5.52266 8.325C5.40599 8.29166 5.28932 8.29166 5.18932 8.3H4.84766L4.87266 8.525C4.87266 8.55833 4.87266 8.59166 4.87266 8.63333C4.87266 8.74166 4.87266 8.875 4.94766 9C5.06432 9.19166 5.23932 9.34166 5.37266 9.425C5.44766 9.475 5.55599 9.50833 5.66432 9.50833C5.75599 9.50833 5.83932 9.49166 5.90599 9.44166C6.27266 9.175 6.56432 8.95 6.81432 8.70833C6.93099 8.6 6.92266 8.44166 6.91432 8.30833C6.91432 8.275 6.91432 8.23333 6.91432 8.20833V8L6.71432 7.99166V7.98333Z" fill="white"/>
<path d="M14.1479 15.2083C14.4812 15.3916 14.8062 15.5916 15.1396 15.7833L15.3062 15.8833C15.4479 15.9666 15.5729 16.0083 15.6896 16.0083C15.7312 16.0083 15.7646 16.0083 15.8062 15.9916C15.9396 15.9583 16.0479 15.8666 16.1229 15.725C16.2396 15.525 16.2812 15.225 15.8479 14.9666L15.5729 14.8083C15.3396 14.675 15.1062 14.5416 14.8896 14.3833C14.8312 14.3416 14.7729 14.2333 14.7646 14.1666C14.7396 13.8 14.7479 13.425 14.7562 13.0583V12.8666C14.7562 12.7166 14.7479 12.4916 14.6062 12.35C14.4146 12.1583 14.0479 12.1666 13.8562 12.3583C13.7396 12.475 13.6896 12.65 13.6979 12.8916C13.6979 13.075 13.6979 13.2583 13.6979 13.4333V13.6833C13.6979 13.7583 13.6979 13.8333 13.6979 13.9166C13.6979 14.075 13.6979 14.2333 13.6979 14.3916C13.6646 14.75 13.8146 15.0166 14.1562 15.2L14.1479 15.2083Z" fill="white"/>
<path d="M5.41458 11.1917H6.32292C6.53125 11.1917 6.70625 11.3583 6.70625 11.575V12.4833C6.70625 12.6916 6.53958 12.8666 6.32292 12.8666H5.41458C5.20625 12.8666 5.03125 12.7 5.03125 12.4833V11.575C5.03125 11.3667 5.19792 11.1917 5.41458 11.1917Z" fill="white"/>
<path d="M5.41458 4.44165H6.32292C6.53125 4.44165 6.70625 4.60832 6.70625 4.82498V5.73332C6.70625 5.94165 6.53958 6.11665 6.32292 6.11665H5.41458C5.20625 6.11665 5.03125 5.94998 5.03125 5.73332V4.82498C5.03125 4.61665 5.19792 4.44165 5.41458 4.44165Z" fill="white"/>
<path d="M9.53913 16.2167H4.03079C3.87246 16.2167 3.84746 16.1917 3.84746 16.1917C3.84746 16.1917 3.82246 16.1667 3.82246 16.0167C3.83079 11.7 3.83079 7.37499 3.82246 3.05832C3.82246 2.92499 3.89191 2.85832 4.03079 2.85832C7.58913 2.85832 11.1475 2.85832 14.6975 2.85832C14.8725 2.85832 14.9058 2.89165 14.9058 2.89165C14.9058 2.89165 14.9391 2.93332 14.9308 3.10832C14.9308 4.34999 14.9308 5.59999 14.9308 6.84165V8.76665C14.9308 9.09165 15.1975 9.36665 15.5308 9.36665C15.8641 9.36665 16.1308 9.09999 16.1308 8.76665V8.59165C16.1308 7.82499 16.1308 7.05832 16.1308 6.28332C16.1308 5.21665 16.1308 4.14165 16.1308 3.07499C16.1391 2.38332 15.8808 1.94165 15.3141 1.69165L3.58913 1.67499H3.52246C2.93079 1.89165 2.64746 2.31665 2.64746 2.99999C2.64746 7.36665 2.64746 11.7333 2.64746 16.1C2.64746 16.9833 3.06413 17.4 3.95579 17.4083H9.53913C9.87246 17.4083 10.1391 17.1417 10.1391 16.8083C10.1391 16.475 9.87246 16.2167 9.53913 16.2167Z" fill="white"/>
</g>
</g>
<defs>
<clipPath id="clip0_1441_12873">
<rect width="20" height="20" fill="white" transform="translate(0.742188)"/>
</clipPath>
</defs>
</svg>
