<svg width="21" height="20" viewBox="0 0 21 20" fill="none" xmlns="http://www.w3.org/2000/svg">
<path d="M5.1681 17.9167C4.62948 17.9167 4.17253 17.7291 3.79727 17.3538C3.42201 16.9785 3.23438 16.5229 3.23438 15.9867V13.8516H5.8049V2.24368L6.95702 3.23727L8.12519 2.24368L9.29333 3.23727L10.4615 2.24368L11.6296 3.23727L12.7995 2.24368L13.9694 3.23727L15.1392 2.24368L16.3091 3.23727L17.463 2.24368V15.983C17.463 16.5216 17.2753 16.9785 16.9001 17.3538C16.5248 17.7291 16.0679 17.9167 15.5292 17.9167H5.1681ZM15.5319 16.8697C15.7869 16.8697 15.998 16.7861 16.1652 16.6189C16.3324 16.4517 16.416 16.2397 16.416 15.983V3.96372H6.85187V13.8516H14.6478V15.983C14.6478 16.2397 14.7314 16.4517 14.8986 16.6189C15.0658 16.7861 15.2769 16.8697 15.5319 16.8697ZM7.97796 7.06629V6.01931H12.7055V7.06629H7.97796ZM7.97796 9.71264V8.66566H12.7055V9.71264H7.97796ZM14.5688 7.17848C14.3968 7.17848 14.2478 7.11553 14.1219 6.98964C13.996 6.86375 13.9331 6.7148 13.9331 6.54279C13.9331 6.37079 13.996 6.22184 14.1219 6.09596C14.2478 5.97007 14.3968 5.90712 14.5688 5.90712C14.7408 5.90712 14.8897 5.97007 15.0156 6.09596C15.1415 6.22184 15.2044 6.37079 15.2044 6.54279C15.2044 6.7148 15.1415 6.86375 15.0156 6.98964C14.8897 7.11553 14.7408 7.17848 14.5688 7.17848ZM14.5688 9.77141C14.3968 9.77141 14.2478 9.70847 14.1219 9.58258C13.996 9.45669 13.9331 9.30775 13.9331 9.13575C13.9331 8.96373 13.996 8.81478 14.1219 8.68889C14.2478 8.563 14.3968 8.50006 14.5688 8.50006C14.7408 8.50006 14.8897 8.563 15.0156 8.68889C15.1415 8.81478 15.2044 8.96373 15.2044 9.13575C15.2044 9.30775 15.1415 9.45669 15.0156 9.58258C14.8897 9.70847 14.7408 9.77141 14.5688 9.77141ZM5.15575 16.8697H13.6008V14.8986H4.28135V15.983C4.28135 16.2397 4.36565 16.4517 4.53425 16.6189C4.70283 16.7861 4.91 16.8697 5.15575 16.8697Z" fill="#3272EC"/>
</svg>
