<svg width="21" height="20" viewBox="0 0 21 20" fill="none" xmlns="http://www.w3.org/2000/svg">
<path d="M9.27691 12.3637L9.34764 12.4345L9.41838 12.3637L12.5644 9.21674C12.6395 9.14161 12.7414 9.0994 12.8477 9.0994C12.9539 9.0994 13.0558 9.14161 13.1309 9.21674C13.2061 9.29187 13.2483 9.39378 13.2483 9.50003C13.2483 9.60628 13.2061 9.70819 13.1309 9.78332L9.63095 13.2833L9.63086 13.2834C9.5937 13.3207 9.54956 13.3502 9.50096 13.3704C9.45237 13.3905 9.40027 13.4009 9.34766 13.4009C9.29504 13.4009 9.24295 13.3905 9.19435 13.3704C9.14575 13.3502 9.10161 13.3207 9.06446 13.2834L9.06437 13.2833L7.56437 11.7833C7.52716 11.7461 7.49765 11.702 7.47752 11.6533C7.45739 11.6047 7.44702 11.5526 7.44702 11.5C7.44702 11.4474 7.45739 11.3953 7.47752 11.3467C7.49765 11.2981 7.52716 11.2539 7.56437 11.2167C7.60157 11.1795 7.64573 11.15 7.69434 11.1299C7.74295 11.1098 7.79504 11.0994 7.84766 11.0994C7.90027 11.0994 7.95237 11.1098 8.00097 11.1299C8.04958 11.15 8.09374 11.1795 8.13095 11.2167L9.27691 12.3637ZM8.8476 2.10003H8.84766L11.8477 2.10003L11.8477 2.10003C12.1373 2.09988 12.4199 2.18956 12.6564 2.35672C12.893 2.52388 13.0718 2.76029 13.1684 3.03336L13.1919 3.10003H13.2627H14.8477C15.219 3.10003 15.5751 3.24753 15.8376 3.51008C16.1002 3.77263 16.2477 4.12873 16.2477 4.50003V16.5C16.2477 16.8713 16.1002 17.2274 15.8376 17.49C15.5751 17.7525 15.219 17.9 14.8477 17.9H5.84766C5.47635 17.9 5.12026 17.7525 4.85771 17.49C4.59516 17.2274 4.44766 16.8713 4.44766 16.5V4.50003C4.44766 4.12873 4.59516 3.77263 4.85771 3.51008C5.12026 3.24753 5.47635 3.10003 5.84766 3.10003H7.43266H7.50337L7.52694 3.03336C7.62348 2.76029 7.80235 2.52388 8.03888 2.35672C8.27541 2.18956 8.55797 2.09988 8.8476 2.10003ZM7.52694 3.9667L7.50337 3.90003H7.43266H5.84766C5.68853 3.90003 5.53591 3.96325 5.42339 4.07577C5.31087 4.18829 5.24766 4.3409 5.24766 4.50003V16.5C5.24766 16.6592 5.31087 16.8118 5.42339 16.9243C5.53591 17.0368 5.68853 17.1 5.84766 17.1H14.8477C15.0068 17.1 15.1594 17.0368 15.2719 16.9243C15.3844 16.8118 15.4477 16.6592 15.4477 16.5V4.50003C15.4477 4.3409 15.3844 4.18829 15.2719 4.07577C15.1594 3.96324 15.0068 3.90003 14.8477 3.90003H13.2627H13.1919L13.1684 3.9667C13.0718 4.23977 12.893 4.47618 12.6564 4.64334C12.4199 4.8105 12.1373 4.90018 11.8477 4.90003H11.8477H8.84766H8.8476C8.55797 4.90018 8.27541 4.8105 8.03888 4.64334C7.80235 4.47618 7.62348 4.23977 7.52694 3.9667ZM8.42339 3.07577C8.31087 3.18829 8.24766 3.3409 8.24766 3.50003C8.24766 3.65916 8.31087 3.81177 8.42339 3.92429C8.53591 4.03682 8.68853 4.10003 8.84766 4.10003H11.8477C12.0068 4.10003 12.1594 4.03682 12.2719 3.92429C12.3844 3.81177 12.4477 3.65916 12.4477 3.50003C12.4477 3.3409 12.3844 3.18829 12.2719 3.07577C12.1594 2.96324 12.0068 2.90003 11.8477 2.90003H8.84766C8.68853 2.90003 8.53591 2.96324 8.42339 3.07577Z" fill="#3272EC" stroke="#3272EC" stroke-width="0.2"/>
</svg>
