<svg width="21" height="20" viewBox="0 0 21 20" fill="none" xmlns="http://www.w3.org/2000/svg">
<path d="M9.96839 15.5123H11.0154V14.679H12.26C12.4086 14.679 12.533 14.6289 12.6332 14.5286C12.7334 14.4285 12.7835 14.3041 12.7835 14.1555V11.554C12.7835 11.4054 12.7334 11.281 12.6332 11.1808C12.533 11.0806 12.4086 11.0305 12.26 11.0305H9.2472V9.47596H12.7835V8.42898H11.0154V7.59565H9.96839V8.42898H8.72372C8.57512 8.42898 8.45073 8.47908 8.35053 8.57929C8.25032 8.67949 8.20022 8.80388 8.20022 8.95248V11.554C8.20022 11.7026 8.25032 11.827 8.35053 11.9271C8.45073 12.0274 8.57512 12.0775 8.72372 12.0775H11.7366V13.632H8.20022V14.679H9.96839V15.5123ZM5.40107 17.9167C5.04291 17.9167 4.73613 17.789 4.48074 17.5336C4.22535 17.2782 4.09766 16.9714 4.09766 16.6132V3.38679C4.09766 3.02862 4.22535 2.72185 4.48074 2.46646C4.73613 2.21107 5.04291 2.08337 5.40107 2.08337H12.4342L16.5976 6.24679V16.6132C16.5976 16.9714 16.4699 17.2782 16.2145 17.5336C15.9591 17.789 15.6524 17.9167 15.2942 17.9167H5.40107ZM11.7077 6.35898V3.13035H5.40107C5.33696 3.13035 5.2782 3.15707 5.22478 3.2105C5.17135 3.26392 5.14464 3.32268 5.14464 3.38679V16.6132C5.14464 16.6774 5.17135 16.7361 5.22478 16.7895C5.2782 16.843 5.33696 16.8697 5.40107 16.8697H15.2942C15.3583 16.8697 15.4171 16.843 15.4705 16.7895C15.5239 16.7361 15.5506 16.6774 15.5506 16.6132V6.35898H11.7077Z" fill="#3272EC"/>
</svg>
