<svg width="21" height="20" viewBox="0 0 21 20" fill="none" xmlns="http://www.w3.org/2000/svg">
<g clip-path="url(#clip0_309_18744)">
<path d="M3.21973 13.7901C3.21973 12.7204 3.21973 12.1855 3.46051 11.7926C3.59524 11.5727 3.7801 11.3878 3.99996 11.2531C4.39288 11.0123 4.92776 11.0123 5.9975 11.0123C7.06725 11.0123 7.60213 11.0123 7.99505 11.2531C8.21491 11.3878 8.39977 11.5727 8.5345 11.7926C8.77528 12.1855 8.77528 12.7204 8.77528 13.7901C8.77528 14.8599 8.77528 15.3947 8.5345 15.7877C8.39977 16.0075 8.21491 16.1924 7.99505 16.3271C7.60213 16.5679 7.06725 16.5679 5.9975 16.5679C4.92776 16.5679 4.39288 16.5679 3.99996 16.3271C3.7801 16.1924 3.59524 16.0075 3.46051 15.7877C3.21973 15.3947 3.21973 14.8599 3.21973 13.7901Z" stroke="#3272EC" stroke-width="1.5"/>
<path d="M11.5527 13.7901C11.5527 12.7204 11.5527 12.1855 11.7935 11.7926C11.9282 11.5727 12.1131 11.3878 12.333 11.2531C12.7259 11.0123 13.2608 11.0123 14.3305 11.0123C15.4003 11.0123 15.9351 11.0123 16.3281 11.2531C16.5479 11.3878 16.7328 11.5727 16.8675 11.7926C17.1083 12.1855 17.1083 12.7204 17.1083 13.7901C17.1083 14.8599 17.1083 15.3947 16.8675 15.7877C16.7328 16.0075 16.5479 16.1924 16.3281 16.3271C15.9351 16.5679 15.4003 16.5679 14.3305 16.5679C13.2608 16.5679 12.7259 16.5679 12.333 16.3271C12.1131 16.1924 11.9282 16.0075 11.7935 15.7877C11.5527 15.3947 11.5527 14.8599 11.5527 13.7901Z" stroke="#3272EC" stroke-width="1.5"/>
<path d="M3.21973 5.45673C3.21973 4.38698 3.21973 3.85211 3.46051 3.45919C3.59524 3.23932 3.7801 3.05447 3.99996 2.91974C4.39288 2.67896 4.92776 2.67896 5.9975 2.67896C7.06725 2.67896 7.60213 2.67896 7.99505 2.91974C8.21491 3.05447 8.39977 3.23932 8.5345 3.45919C8.77528 3.85211 8.77528 4.38698 8.77528 5.45673C8.77528 6.52648 8.77528 7.06136 8.5345 7.45428C8.39977 7.67414 8.21491 7.85899 7.99505 7.99373C7.60213 8.23451 7.06725 8.23451 5.9975 8.23451C4.92776 8.23451 4.39288 8.23451 3.99996 7.99373C3.7801 7.85899 3.59524 7.67414 3.46051 7.45428C3.21973 7.06136 3.21973 6.52648 3.21973 5.45673Z" stroke="#3272EC" stroke-width="1.5"/>
<path d="M11.5527 5.45673C11.5527 4.38698 11.5527 3.85211 11.7935 3.45919C11.9282 3.23932 12.1131 3.05447 12.333 2.91974C12.7259 2.67896 13.2608 2.67896 14.3305 2.67896C15.4003 2.67896 15.9351 2.67896 16.3281 2.91974C16.5479 3.05447 16.7328 3.23932 16.8675 3.45919C17.1083 3.85211 17.1083 4.38698 17.1083 5.45673C17.1083 6.52648 17.1083 7.06136 16.8675 7.45428C16.7328 7.67414 16.5479 7.85899 16.3281 7.99373C15.9351 8.23451 15.4003 8.23451 14.3305 8.23451C13.2608 8.23451 12.7259 8.23451 12.333 7.99373C12.1131 7.85899 11.9282 7.67414 11.7935 7.45428C11.5527 7.06136 11.5527 6.52648 11.5527 5.45673Z" stroke="#3272EC" stroke-width="1.5"/>
</g>
<defs>
<clipPath id="clip0_309_18744">
<rect width="16.6667" height="16.6667" fill="white" transform="translate(1.83105 1.29004)"/>
</clipPath>
</defs>
</svg>
