<svg width="21" height="20" viewBox="0 0 21 20" fill="none" xmlns="http://www.w3.org/2000/svg">
<path d="M9.15777 12.3637L9.2285 12.4345L9.29924 12.3637L12.4452 9.21671C12.5204 9.14158 12.6223 9.09937 12.7285 9.09937C12.8348 9.09937 12.9367 9.14158 13.0118 9.21671C13.0869 9.29184 13.1291 9.39375 13.1291 9.5C13.1291 9.60625 13.0869 9.70816 13.0118 9.78329L9.51181 13.2833L9.51172 13.2834C9.47456 13.3206 9.43042 13.3502 9.38182 13.3703C9.33323 13.3905 9.28113 13.4009 9.22852 13.4009C9.1759 13.4009 9.12381 13.3905 9.07521 13.3703C9.02661 13.3502 8.98247 13.3206 8.94532 13.2834L8.94523 13.2833L7.44523 11.7833C7.40802 11.7461 7.37851 11.7019 7.35838 11.6533C7.33825 11.6047 7.32788 11.5526 7.32788 11.5C7.32788 11.4474 7.33825 11.3953 7.35838 11.3467C7.37851 11.2981 7.40802 11.2539 7.44523 11.2167C7.48243 11.1795 7.52659 11.15 7.5752 11.1299C7.62381 11.1097 7.6759 11.0994 7.72852 11.0994C7.78113 11.0994 7.83322 11.1097 7.88183 11.1299C7.93044 11.15 7.9746 11.1795 8.01181 11.2167L9.15777 12.3637ZM8.72846 2.1H8.72852L11.7285 2.1L11.7286 2.1C12.0182 2.09985 12.3008 2.18953 12.5373 2.35669C12.7738 2.52385 12.9527 2.76026 13.0492 3.03333L13.0728 3.1H13.1435H14.7285C15.0998 3.1 15.4559 3.2475 15.7185 3.51005C15.981 3.7726 16.1285 4.1287 16.1285 4.5V16.5C16.1285 16.8713 15.981 17.2274 15.7185 17.4899C15.4559 17.7525 15.0998 17.9 14.7285 17.9H5.72852C5.35721 17.9 5.00112 17.7525 4.73857 17.4899C4.47602 17.2274 4.32852 16.8713 4.32852 16.5V4.5C4.32852 4.1287 4.47602 3.7726 4.73857 3.51005C5.00112 3.2475 5.35721 3.1 5.72852 3.1H7.31352H7.38423L7.4078 3.03333C7.50434 2.76026 7.68321 2.52385 7.91974 2.35669C8.15627 2.18953 8.43883 2.09985 8.72846 2.1ZM7.4078 3.96667L7.38423 3.9H7.31352H5.72852C5.56939 3.9 5.41677 3.96321 5.30425 4.07574C5.19173 4.18826 5.12852 4.34087 5.12852 4.5V16.5C5.12852 16.6591 5.19173 16.8117 5.30425 16.9243C5.41677 17.0368 5.56939 17.1 5.72852 17.1H14.7285C14.8876 17.1 15.0403 17.0368 15.1528 16.9243C15.2653 16.8117 15.3285 16.6591 15.3285 16.5V4.5C15.3285 4.34087 15.2653 4.18826 15.1528 4.07574C15.0403 3.96321 14.8876 3.9 14.7285 3.9H13.1435H13.0728L13.0492 3.96667C12.9527 4.23974 12.7738 4.47615 12.5373 4.64331C12.3008 4.81047 12.0182 4.90015 11.7286 4.9H11.7285H8.72852H8.72846C8.43883 4.90015 8.15627 4.81047 7.91974 4.64331C7.68321 4.47615 7.50434 4.23974 7.4078 3.96667ZM8.30425 3.07574C8.19173 3.18826 8.12852 3.34087 8.12852 3.5C8.12852 3.65913 8.19173 3.81174 8.30425 3.92426C8.41677 4.03679 8.56939 4.1 8.72852 4.1H11.7285C11.8876 4.1 12.0403 4.03679 12.1528 3.92426C12.2653 3.81174 12.3285 3.65913 12.3285 3.5C12.3285 3.34087 12.2653 3.18826 12.1528 3.07574C12.0403 2.96321 11.8876 2.9 11.7285 2.9H8.72852C8.56939 2.9 8.41677 2.96321 8.30425 3.07574Z" fill="#3272EC" stroke="#3272EC" stroke-width="0.2"/>
</svg>
