<svg width="21" height="20" viewBox="0 0 21 20" fill="none" xmlns="http://www.w3.org/2000/svg">
<path d="M7.09495 14.6902H13.362V13.6432H7.09495V14.6902ZM7.09495 11.2554H13.362V10.2084H7.09495V11.2554ZM5.28193 17.9167C4.92377 17.9167 4.61699 17.789 4.3616 17.5336C4.10621 17.2782 3.97852 16.9714 3.97852 16.6132V3.38679C3.97852 3.02862 4.10621 2.72185 4.3616 2.46646C4.61699 2.21107 4.92377 2.08337 5.28193 2.08337H12.3151L16.4785 6.24679V16.6132C16.4785 16.9714 16.3508 17.2782 16.0954 17.5336C15.84 17.789 15.5332 17.9167 15.1751 17.9167H5.28193ZM11.7916 6.73931V3.13035H5.28193C5.21782 3.13035 5.15906 3.15707 5.10564 3.2105C5.05221 3.26392 5.02549 3.32268 5.02549 3.38679V16.6132C5.02549 16.6774 5.05221 16.7361 5.10564 16.7895C5.15906 16.843 5.21782 16.8697 5.28193 16.8697H15.1751C15.2392 16.8697 15.2979 16.843 15.3513 16.7895C15.4048 16.7361 15.4315 16.6774 15.4315 16.6132V6.73931H11.7916Z" fill="#3272EC"/>
</svg>
