<svg width="21" height="20" viewBox="0 0 21 20" fill="none" xmlns="http://www.w3.org/2000/svg">
<path d="M9.30476 14.9647L6.67445 12.3483L7.4148 11.6079L9.30476 13.4754L12.9789 9.79593L13.7246 10.5448L9.30476 14.9647ZM4.44795 17.9166C4.08978 17.9166 3.783 17.7889 3.52761 17.5335C3.27223 17.2781 3.14453 16.9714 3.14453 16.6132V4.85041C3.14453 4.49225 3.27223 4.18547 3.52761 3.93008C3.783 3.6747 4.08978 3.54702 4.44795 3.54702H5.85822V1.98718H6.98534V3.54702H13.5024V1.98718H14.6028V3.54702H16.0077C16.3659 3.54702 16.6727 3.6747 16.9281 3.93008C17.1835 4.18547 17.3112 4.49225 17.3112 4.85041V16.6132C17.3112 16.9714 17.1835 17.2781 16.9281 17.5335C16.6727 17.7889 16.3659 17.9166 16.0077 17.9166H4.44795ZM4.44795 16.8696H16.0077C16.0718 16.8696 16.1306 16.8429 16.184 16.7895C16.2375 16.7361 16.2642 16.6773 16.2642 16.6132V8.48825H4.19151V16.6132C4.19151 16.6773 4.21823 16.7361 4.27166 16.7895C4.32507 16.8429 4.38384 16.8696 4.44795 16.8696ZM4.19151 7.44127H16.2642V4.85041C16.2642 4.78631 16.2375 4.72755 16.184 4.67412C16.1306 4.6207 16.0718 4.594 16.0077 4.594H4.44795C4.38384 4.594 4.32507 4.6207 4.27166 4.67412C4.21823 4.72755 4.19151 4.78631 4.19151 4.85041V7.44127Z" fill="#3272EC"/>
</svg>
