<svg width="21" height="20" viewBox="0 0 21 20" fill="none" xmlns="http://www.w3.org/2000/svg">
<path d="M5.04701 17.9167C4.50839 17.9167 4.05144 17.729 3.67618 17.3538C3.30091 16.9785 3.11328 16.5228 3.11328 15.9867V13.8515H5.6838V2.24365L6.83593 3.23724L8.00409 2.24365L9.17224 3.23724L10.3404 2.24365L11.5086 3.23724L12.6784 2.24365L13.8483 3.23724L15.0182 2.24365L16.188 3.23724L17.3419 2.24365V15.9829C17.3419 16.5216 17.1542 16.9785 16.779 17.3538C16.4037 17.729 15.9468 17.9167 15.4081 17.9167H5.04701ZM15.4108 16.8697C15.6658 16.8697 15.8769 16.7861 16.0441 16.6189C16.2113 16.4517 16.2949 16.2397 16.2949 15.9829V3.96369H6.73078V13.8515H14.5267V15.9829C14.5267 16.2397 14.6103 16.4517 14.7775 16.6189C14.9447 16.7861 15.1558 16.8697 15.4108 16.8697ZM7.85686 7.06626V6.01928H12.5844V7.06626H7.85686ZM7.85686 9.71261V8.66563H12.5844V9.71261H7.85686ZM14.4477 7.17845C14.2757 7.17845 14.1267 7.1155 14.0008 6.98961C13.8749 6.86372 13.812 6.71477 13.812 6.54276C13.812 6.37076 13.8749 6.22181 14.0008 6.09592C14.1267 5.97004 14.2757 5.90709 14.4477 5.90709C14.6197 5.90709 14.7686 5.97004 14.8945 6.09592C15.0204 6.22181 15.0833 6.37076 15.0833 6.54276C15.0833 6.71477 15.0204 6.86372 14.8945 6.98961C14.7686 7.1155 14.6197 7.17845 14.4477 7.17845ZM14.4477 9.77138C14.2757 9.77138 14.1267 9.70844 14.0008 9.58255C13.8749 9.45666 13.812 9.30772 13.812 9.13572C13.812 8.9637 13.8749 8.81475 14.0008 8.68886C14.1267 8.56297 14.2757 8.50003 14.4477 8.50003C14.6197 8.50003 14.7686 8.56297 14.8945 8.68886C15.0204 8.81475 15.0833 8.9637 15.0833 9.13572C15.0833 9.30772 15.0204 9.45666 14.8945 9.58255C14.7686 9.70844 14.6197 9.77138 14.4477 9.77138ZM5.03466 16.8697H13.4797V14.8985H4.16026V15.9829C4.16026 16.2397 4.24456 16.4517 4.41316 16.6189C4.58174 16.7861 4.78891 16.8697 5.03466 16.8697Z" fill="#3272EC"/>
</svg>
