<svg width="21" height="20" viewBox="0 0 21 20" fill="none" xmlns="http://www.w3.org/2000/svg">
<path d="M9.84924 15.5123H10.8962V14.679H12.1409C12.2895 14.679 12.4139 14.6289 12.5141 14.5286C12.6143 14.4285 12.6644 14.3041 12.6644 14.1555V11.554C12.6644 11.4054 12.6143 11.281 12.5141 11.1808C12.4139 11.0806 12.2895 11.0305 12.1409 11.0305H9.12806V9.47596H12.6644V8.42898H10.8962V7.59565H9.84924V8.42898H8.60458C8.45598 8.42898 8.33159 8.47908 8.23139 8.57929C8.13118 8.67949 8.08108 8.80388 8.08108 8.95248V11.554C8.08108 11.7026 8.13118 11.827 8.23139 11.9271C8.33159 12.0274 8.45598 12.0775 8.60458 12.0775H11.6174V13.632H8.08108V14.679H9.84924V15.5123ZM5.28193 17.9167C4.92377 17.9167 4.61699 17.789 4.3616 17.5336C4.10621 17.2782 3.97852 16.9714 3.97852 16.6132V3.38679C3.97852 3.02862 4.10621 2.72185 4.3616 2.46646C4.61699 2.21107 4.92377 2.08337 5.28193 2.08337H12.3151L16.4785 6.24679V16.6132C16.4785 16.9714 16.3508 17.2782 16.0954 17.5336C15.84 17.789 15.5332 17.9167 15.1751 17.9167H5.28193ZM11.5886 6.35898V3.13035H5.28193C5.21782 3.13035 5.15906 3.15707 5.10564 3.2105C5.05221 3.26392 5.02549 3.32268 5.02549 3.38679V16.6132C5.02549 16.6774 5.05221 16.7361 5.10564 16.7895C5.15906 16.843 5.21782 16.8697 5.28193 16.8697H15.1751C15.2392 16.8697 15.2979 16.843 15.3513 16.7895C15.4048 16.7361 15.4315 16.6774 15.4315 16.6132V6.35898H11.5886Z" fill="#3272EC"/>
</svg>
