<svg width="21" height="20" viewBox="0 0 21 20" fill="none" xmlns="http://www.w3.org/2000/svg">
<g clip-path="url(#clip0_455_10992)">
<mask id="mask0_455_10992" style="mask-type:luminance" maskUnits="userSpaceOnUse" x="0" y="0" width="21" height="20">
<path d="M20.6221 0H0.62207V20H20.6221V0Z" fill="white"/>
</mask>
<g mask="url(#mask0_455_10992)">
<path d="M17.6805 13.925C17.4721 13.9833 17.2721 14.05 17.0721 14.125L16.8388 14.2083C16.0305 14.4833 15.1888 14.5917 14.3805 14.6667C14.3305 13.9417 13.9221 13.4417 13.1388 13.1417C12.7721 13 12.4055 12.825 12.0305 12.65C11.0555 12.1833 10.1555 11.9417 9.2638 11.9C8.6388 11.8667 8.03047 11.875 7.38047 11.8833C7.15547 11.8833 6.92214 11.8833 6.69714 11.8833C6.50547 11 6.1638 10.7833 5.1138 10.7833H4.54714C4.04714 10.7833 3.5388 10.7833 3.0388 10.7833C2.22214 10.7833 1.7388 11.275 1.73047 12.075C1.73047 13.7167 1.73047 15.3667 1.73047 17.0083C1.73047 17.8167 2.22214 18.3 3.0388 18.3083C3.30547 18.3083 3.5638 18.3083 3.83047 18.3083C4.09714 18.3083 4.37214 18.3083 4.64714 18.3083H5.18047C6.23047 18.3083 6.63047 17.9417 6.7138 16.9C6.74714 16.9 6.77214 16.9167 6.80547 16.925C7.02214 16.975 7.22214 17.025 7.4138 17.0917C7.64714 17.1833 7.87214 17.2833 8.09714 17.3833C8.42214 17.5333 8.75547 17.6833 9.10547 17.7917C12.2971 18.8 15.4638 18.3083 18.7638 16.3C19.3221 15.9583 19.5221 15.2583 19.2388 14.6417C18.9721 14.05 18.3138 13.75 17.6721 13.925H17.6805ZM13.4138 14.8333C13.3721 15.0917 13.1721 15.2833 12.9138 15.3083C12.8138 15.3167 12.6721 15.2917 12.5388 15.2417C12.3721 15.175 12.2055 15.1 12.0388 15.025C11.8055 14.9167 11.5721 14.8167 11.3388 14.7333C11.1471 14.6667 10.8138 14.7167 10.6888 14.9C10.5888 15.0417 10.5971 15.175 10.6221 15.2583C10.6638 15.4 10.7805 15.525 10.9805 15.6083L11.3555 15.775C11.6721 15.9167 11.9888 16.0667 12.3138 16.1917C12.8638 16.4 13.4055 16.2917 13.9221 15.8583C14.0555 15.75 14.1888 15.675 14.2805 15.6667C15.3471 15.5583 16.6055 15.375 17.8555 14.8833C18.0971 14.7917 18.2805 14.8417 18.3805 15.0417C18.4721 15.2333 18.4138 15.4167 18.2221 15.5333C15.4888 17.175 12.8971 17.7 10.2971 17.125C9.77214 17.0083 9.24714 16.8 8.74714 16.6C8.47214 16.4917 8.19714 16.3833 7.92214 16.2833C7.64714 16.1833 7.3638 16.1 7.05547 16.0083L6.7388 15.9167V12.95C8.33047 12.6667 9.78047 12.7833 11.1471 13.3167C11.7388 13.55 12.3221 13.825 12.8971 14.0917L13.0555 14.1667C13.3305 14.3 13.4638 14.5417 13.4221 14.8333H13.4138ZM5.75547 16.875C5.75547 17.275 5.68047 17.35 5.30547 17.35C4.55547 17.35 3.80547 17.35 3.0638 17.35C2.7388 17.35 2.6888 17.2917 2.6888 16.9583C2.6888 16.3833 2.6888 15.8167 2.6888 15.2417V14.525V13.7583C2.6888 13.2167 2.6888 12.675 2.6888 12.125C2.6888 11.7917 2.7388 11.7417 3.0638 11.7417C3.5638 11.7417 4.0638 11.7417 4.5638 11.7417H5.3138C5.5138 11.7417 5.6388 11.7667 5.69714 11.8333C5.75547 11.8917 5.77214 12.025 5.7638 12.225C5.74714 12.4667 5.75547 12.7167 5.7638 12.9583V16.8583L5.75547 16.875Z" fill="#3272EC"/>
<path d="M17.8725 6.41667C16.9892 6.14167 16.0892 6.16667 15.1975 6.47501C15.1475 6.49167 15.0475 6.47501 14.9808 6.45001C13.2892 5.64167 11.5892 5.64167 9.91416 6.46667C9.83916 6.50834 9.75583 6.50834 9.73083 6.50001C9.08083 6.26667 8.3725 6.20834 7.55583 6.32501C6.3225 6.50001 5.61416 7.25834 5.5225 8.50834C5.48916 8.95001 5.5975 9.31667 5.83916 9.57501C6.0725 9.83334 6.4225 9.96667 6.85583 9.97501C7.08083 9.97501 7.30583 9.97501 7.53083 9.97501C7.88083 9.97501 8.2225 9.97501 8.5725 9.98334C8.63083 9.98334 8.73083 10.0417 8.7475 10.075C9.08916 10.625 9.58083 10.9083 10.2308 10.9083C10.7392 10.9083 11.2475 10.9083 11.7558 10.9083H12.4392H14.7225C15.3225 10.9083 15.7975 10.6417 16.1475 10.1083C16.1892 10.05 16.2975 9.98334 16.3475 9.98334C16.6892 9.96667 17.0392 9.97501 17.3808 9.97501C17.6308 9.97501 17.8808 9.97501 18.1308 9.97501C18.7725 9.96667 19.2558 9.57501 19.3725 8.99167C19.5975 7.87501 18.9308 6.74167 17.8642 6.41667H17.8725ZM14.6142 9.46667C14.5808 9.29167 14.4225 9.00001 14.1975 8.96667C14.0225 8.93334 13.9058 8.99167 13.8475 9.05001C13.7308 9.14167 13.6725 9.30834 13.6725 9.51667V9.93334H11.2642C11.2642 9.76667 11.2808 9.60001 11.2392 9.43334C11.2058 9.28334 11.0892 9.18334 10.9975 9.10001C10.9642 9.07501 10.9392 9.04167 10.9142 9.01667L10.7475 8.83334L10.5892 9.02501C10.5892 9.02501 10.5392 9.08334 10.5142 9.10834C10.4308 9.19167 10.3308 9.30001 10.3058 9.44167C10.2725 9.60834 10.2808 9.77501 10.2892 9.92501C10.0642 9.95001 9.8725 9.91668 9.7475 9.80834C9.56416 9.65834 9.53083 9.38334 9.53083 9.18334C9.56416 7.79168 10.2225 7.05834 11.6058 6.88334C12.4642 6.77501 13.2058 6.81667 13.8808 7.00834C15.2142 7.39167 15.4308 8.54167 15.3725 9.44167C15.3725 9.57501 15.3142 9.67501 15.2225 9.75834C15.0892 9.86667 14.8975 9.92501 14.6308 9.92501C14.6308 9.77501 14.6392 9.62501 14.6058 9.46667H14.6142ZM7.46416 8.43334C7.38083 8.35001 7.2725 8.30834 7.0975 8.30834C6.9475 8.30834 6.8225 8.35834 6.73916 8.44167C6.61416 8.57501 6.61416 8.75834 6.6225 8.90834C6.6225 8.92501 6.6225 8.94167 6.6225 8.95834C6.48916 8.92501 6.46416 8.84167 6.46416 8.66667C6.45583 7.85834 6.81416 7.41667 7.5975 7.28334C8.1225 7.19167 8.58916 7.19167 9.03916 7.28334C9.0225 7.30834 9.01416 7.34167 8.9975 7.36667C8.88916 7.60001 8.78916 7.82501 8.7225 8.05834C8.65583 8.30001 8.61416 8.54168 8.58083 8.80001C8.58083 8.85834 8.56416 8.90834 8.55583 8.96667H7.58083C7.58083 8.96667 7.58083 8.90834 7.58083 8.88334C7.58083 8.73334 7.58083 8.55001 7.45583 8.41667L7.46416 8.43334ZM18.1975 8.43334C18.1058 8.34167 17.9808 8.30834 17.8058 8.31667C17.3558 8.35001 17.3642 8.75001 17.3725 8.91667C17.3725 8.94167 17.3725 8.95834 17.3725 8.98334H16.4058L15.9142 7.25834C16.4725 7.13334 17.0475 7.15001 17.5892 7.32501C18.1892 7.51667 18.5558 8.14167 18.4392 8.78334C18.4225 8.86667 18.3975 8.93334 18.3308 8.96667C18.3308 8.94167 18.3308 8.91667 18.3308 8.90001C18.3308 8.75001 18.3308 8.56667 18.1975 8.43334Z" fill="#3272EC"/>
<path d="M12.4556 5.56666C13.4806 5.56666 14.3223 4.69999 14.3389 3.63333C14.3389 3.09166 14.1473 2.59166 13.7723 2.21666C13.4223 1.85833 12.9556 1.65833 12.4556 1.65833C11.9723 1.65833 11.4973 1.84999 11.1473 2.20833C10.7723 2.58333 10.5723 3.09166 10.5723 3.63333C10.5723 4.69999 11.4223 5.56666 12.4556 5.56666ZM11.5306 3.61666C11.5306 3.06666 11.9389 2.61666 12.4473 2.61666H12.4556C12.6806 2.61666 12.8889 2.70833 13.0639 2.87499C13.2556 3.06666 13.3723 3.32499 13.3723 3.60833C13.3723 3.89999 13.2723 4.16666 13.0806 4.35833C12.9139 4.52499 12.6889 4.62499 12.4556 4.62499C11.9473 4.62499 11.5389 4.17499 11.5389 3.62499L11.5306 3.61666Z" fill="#3272EC"/>
<path d="M16.6225 6.14994C17.4391 6.14994 18.1141 5.46661 18.1141 4.63328C18.1141 3.79161 17.4475 3.10828 16.6308 3.10828C15.8225 3.10828 15.1558 3.79161 15.1475 4.62494C15.1475 5.02494 15.3058 5.42494 15.5891 5.70828C15.8725 5.99161 16.2391 6.14994 16.6308 6.14994H16.6225ZM16.0975 4.64161C16.0975 4.48328 16.1475 4.33328 16.2475 4.22494C16.3391 4.12494 16.4725 4.06661 16.6141 4.06661C16.7558 4.06661 16.8808 4.11661 16.9808 4.21661C17.0891 4.32494 17.1475 4.46661 17.1475 4.62494C17.1475 4.78328 17.0808 4.94161 16.9725 5.04994C16.8725 5.14994 16.7308 5.18328 16.6225 5.19994C16.3475 5.19994 16.1058 4.94994 16.0975 4.64994V4.64161Z" fill="#3272EC"/>
<path d="M8.25592 6.14162C8.25592 6.14162 8.28092 6.14162 8.28925 6.14162C8.67259 6.14162 9.03925 5.99162 9.32259 5.71662C9.60592 5.43329 9.77259 5.05829 9.78092 4.65829C9.79759 3.81662 9.14759 3.11662 8.33092 3.09996C7.95592 3.09162 7.57259 3.23329 7.28925 3.50829C6.99759 3.79162 6.82259 4.17496 6.82259 4.59162C6.80592 5.44162 7.43925 6.12496 8.26425 6.14162H8.25592ZM8.28925 5.19162C8.16425 5.19162 8.03092 5.12496 7.93092 5.02496C7.82259 4.90829 7.75592 4.75829 7.76425 4.60829C7.76425 4.30829 8.00592 4.05829 8.28925 4.05829C8.42259 4.05829 8.54759 4.10829 8.64759 4.20829C8.75592 4.31662 8.81425 4.45829 8.81425 4.62496C8.81425 4.79162 8.74759 4.94162 8.63925 5.04996C8.53925 5.14996 8.42259 5.20829 8.28925 5.19996V5.19162Z" fill="#3272EC"/>
<path d="M5.09758 16.1084C5.09758 16.6167 4.68092 17.025 4.18092 17.0167C3.68092 17.0167 3.26425 16.5917 3.27258 16.0917C3.27258 15.5917 3.69758 15.175 4.19758 15.1834C4.70592 15.1834 5.09758 15.6 5.09758 16.1084ZM4.08925 16.525C4.13925 16.525 4.19758 16.525 4.24758 16.525C4.34758 16.3834 4.51425 16.25 4.53925 16.0917C4.57258 15.8667 4.39758 15.6834 4.18092 15.7334C4.03925 15.7584 3.84758 15.95 3.83092 16.075C3.82258 16.2167 3.98925 16.375 4.08925 16.525Z" fill="#3272EC"/>
</g>
</g>
<defs>
<clipPath id="clip0_455_10992">
<rect width="20" height="20" fill="white" transform="translate(0.62207)"/>
</clipPath>
</defs>
</svg>
