<?xml version="1.0" encoding="utf-8"?>
<!-- Generator: Adobe Illustrator 27.8.0, SVG Export Plug-In . SVG Version: 6.00 Build 0)  -->
<svg version="1.1" id="Layer_1" xmlns="http://www.w3.org/2000/svg" xmlns:xlink="http://www.w3.org/1999/xlink" x="0px" y="0px"
	 width="24px" height="24px" viewBox="0 0 24 24" style="enable-background:new 0 0 24 24;" xml:space="preserve">
<style type="text/css">
	.st0{clip-path:url(#SVGID_00000039826290816349186780000011700349195840898692_);}
</style>
<path d="M5.4,19.3c0,0.6-0.5,1.1-1.1,1.1c-0.6,0-1.1-0.5-1.1-1.1c0-0.6,0.5-1.1,1.1-1.1C4.9,18.2,5.4,18.7,5.4,19.3z M4.2,19.8
	c0.1,0,0.1,0,0.2,0c0.1-0.2,0.3-0.3,0.4-0.5c0-0.3-0.2-0.5-0.4-0.4c-0.2,0-0.4,0.3-0.4,0.4C3.9,19.5,4.1,19.6,4.2,19.8z"/>
<g>
	<defs>
		<rect id="SVGID_1_" width="24" height="24"/>
	</defs>
	<clipPath id="SVGID_00000096762954326859953550000002286144207280980360_">
		<use xlink:href="#SVGID_1_"  style="overflow:visible;"/>
	</clipPath>
	<path style="clip-path:url(#SVGID_00000096762954326859953550000002286144207280980360_);" d="M7.1,14.5c1.1,0,2.2,0,3.3,0
		c1.1,0.1,2.2,0.4,3.2,0.9c0.4,0.2,0.9,0.4,1.3,0.6c0.8,0.3,1.4,0.9,1.3,1.9c1.1-0.1,2.2-0.2,3.3-0.6c0.3-0.1,0.7-0.2,1-0.3
		c0.7-0.2,1.3,0.1,1.6,0.7c0.3,0.6,0.1,1.3-0.5,1.7c-3.6,2.2-7.3,3-11.4,1.8c-0.7-0.2-1.3-0.6-2-0.8c-0.4-0.1-0.7-0.2-1.1-0.3
		c0,0.2-0.1,0.2-0.1,0.3c-0.1,1.1-0.5,1.5-1.6,1.5c-0.9,0-1.7,0-2.6,0c-0.8,0-1.3-0.5-1.3-1.3c0-2,0-3.9,0-5.9
		c0-0.8,0.5-1.3,1.3-1.3c0.8,0,1.7,0,2.5,0C6.6,13.2,6.9,13.4,7.1,14.5z M7.1,19.3c0.6,0.2,1.1,0.3,1.6,0.5c1,0.3,1.9,0.8,2.9,1
		c3.5,0.8,6.7-0.1,9.7-1.9c0.4-0.2,0.4-0.6,0.3-0.9c-0.2-0.3-0.5-0.5-0.9-0.3c-1.4,0.5-2.8,0.8-4.2,0.9c-0.2,0-0.4,0.2-0.6,0.3
		c-0.5,0.4-1.1,0.6-1.7,0.4c-0.5-0.2-1.1-0.5-1.6-0.7c-0.2-0.1-0.4-0.3-0.2-0.5c0.1-0.1,0.4-0.2,0.5-0.1c0.5,0.2,0.9,0.4,1.4,0.6
		c0.2,0.1,0.4,0.1,0.6,0.1c0.4,0,0.8-0.4,0.8-0.8c0.1-0.4-0.1-0.9-0.6-1.1c-0.8-0.4-1.5-0.7-2.3-1C10.9,15,9,14.9,7.1,15.3
		C7.1,16.7,7.1,18,7.1,19.3z M2.2,17.4c0,1,0,1.9,0,2.9c0,0.5,0.2,0.7,0.7,0.7c0.9,0,1.8,0,2.7,0c0.6,0,0.8-0.2,0.8-0.8
		c0-1.4,0-2.9,0-4.3c0-0.4,0-0.8,0-1.2c0-0.6-0.2-0.8-0.8-0.8c-0.9,0-1.8,0-2.7,0c-0.5,0-0.7,0.2-0.7,0.7
		C2.2,15.5,2.2,16.5,2.2,17.4z"/>
	<path style="clip-path:url(#SVGID_00000096762954326859953550000002286144207280980360_);" d="M14.2,12.8c-0.9,0-1.8,0-2.7,0
		c-0.7,0-1.2-0.3-1.6-0.9c-0.1-0.1-0.3-0.2-0.4-0.2c-0.7,0-1.4,0-2.1,0c-0.9,0-1.4-0.6-1.4-1.5C6.2,8.8,7,8,8.3,7.8
		C9.2,7.7,10,7.7,10.8,8c0.1,0,0.3,0,0.4-0.1c2-1,3.9-1,5.9,0c0.1,0.1,0.3,0.1,0.4,0c1-0.4,2-0.4,3.1-0.1c1.2,0.4,1.9,1.6,1.6,2.8
		c-0.1,0.6-0.6,1-1.3,1c-0.7,0-1.4,0-2.1,0c-0.2,0-0.4,0.1-0.4,0.3c-0.4,0.5-0.9,0.8-1.5,0.8C16,12.8,15.1,12.8,14.2,12.8z
		 M15.9,12.2c0-0.3,0-0.5,0-0.8c0-0.2,0.1-0.5,0.3-0.4c0.1,0,0.3,0.3,0.3,0.4c0,0.2,0,0.5,0,0.7c0.8,0.1,1.4-0.2,1.4-0.8
		c0.1-1.3-0.3-2.7-2-3.2C15,7.9,14.1,7.9,13.1,8c-1.8,0.2-2.7,1.2-2.7,3c0,0.9,0.5,1.3,1.4,1.1c0-0.2,0-0.5,0-0.7
		c0-0.1,0.2-0.3,0.3-0.4c0.1,0.1,0.3,0.2,0.3,0.4c0.1,0.2,0,0.5,0,0.8C13.7,12.2,14.7,12.2,15.9,12.2z M18,8.5
		c0.2,0.9,0.5,1.7,0.7,2.5c0.5,0,1,0,1.6,0c0.1-0.3-0.1-0.8,0.3-0.8c0.6,0,0.2,0.6,0.4,0.8c0.3,0,0.5-0.2,0.6-0.5
		c0.2-0.9-0.3-1.8-1.2-2C19.6,8.3,18.8,8.3,18,8.5z M7.4,11c0.1-0.3-0.2-0.8,0.4-0.8c0.5,0,0.2,0.5,0.4,0.8c0.5,0,1.1,0,1.6,0
		c0.1-0.4,0.1-0.9,0.2-1.3c0.1-0.4,0.3-0.8,0.5-1.2C9.7,8.4,9,8.4,8.3,8.5c-1.1,0.2-1.6,0.8-1.6,1.9C6.8,10.9,7,11,7.4,11z"/>
	<path style="clip-path:url(#SVGID_00000096762954326859953550000002286144207280980360_);" d="M14.2,2.2c1.1,0,2,1,2,2.1
		c0,1.2-0.9,2.1-2,2.1c-1.1,0-2-0.9-2-2.1C12.2,3.2,13.1,2.2,14.2,2.2z M12.8,4.3c0,0.8,0.6,1.4,1.3,1.4c0.8,0,1.4-0.7,1.4-1.5
		c0-0.8-0.6-1.4-1.4-1.4C13.4,2.9,12.8,3.6,12.8,4.3z"/>
	<path style="clip-path:url(#SVGID_00000096762954326859953550000002286144207280980360_);" d="M19.2,7.1c-0.8,0-1.5-0.7-1.5-1.6
		c0-0.9,0.7-1.6,1.5-1.6c0.8,0,1.5,0.7,1.5,1.6C20.7,6.4,20,7.1,19.2,7.1z M19.2,4.6c-0.5,0-0.9,0.4-0.9,0.9c0,0.5,0.4,0.9,0.9,0.9
		c0.5,0,0.9-0.4,0.9-0.9C20.1,5,19.7,4.6,19.2,4.6z"/>
	<path style="clip-path:url(#SVGID_00000096762954326859953550000002286144207280980360_);" d="M7.7,5.5C7.7,4.6,8.4,4,9.2,4
		c0.8,0,1.5,0.7,1.5,1.6c0,0.9-0.7,1.6-1.6,1.5C8.3,7.1,7.7,6.4,7.7,5.5z M10.1,5.5c0-0.5-0.4-0.9-0.9-0.9C8.7,4.6,8.3,5,8.3,5.5
		c0,0.5,0.4,0.9,0.9,1C9.7,6.5,10.1,6.1,10.1,5.5z"/>
</g>
</svg>
