<svg width="21" height="20" viewBox="0 0 21 20" fill="none" xmlns="http://www.w3.org/2000/svg">
<g clip-path="url(#clip0_309_18837)">
<path d="M17.9338 15C18.5582 15 19.0548 14.6071 19.5008 14.0576C20.4137 12.9329 18.9148 12.034 18.3432 11.5938C17.7621 11.1463 17.1133 10.8928 16.4554 10.8333M15.6221 9.16667C16.7727 9.16667 17.7054 8.23393 17.7054 7.08333C17.7054 5.93274 16.7727 5 15.6221 5" stroke="#3272EC" stroke-width="1.5" stroke-linecap="round"/>
<path d="M3.31004 15C2.68562 15 2.18897 14.6071 1.74303 14.0576C0.830152 12.9329 2.32897 12.034 2.90062 11.5938C3.48172 11.1463 4.13056 10.8928 4.78841 10.8333M5.20508 9.16667C4.05449 9.16667 3.12174 8.23393 3.12174 7.08333C3.12174 5.93274 4.05449 5 5.20508 5" stroke="#3272EC" stroke-width="1.5" stroke-linecap="round"/>
<path d="M7.35825 12.5927C6.50677 13.1192 4.27423 14.1943 5.63399 15.5396C6.29823 16.1968 7.03801 16.6667 7.9681 16.6667H13.2754C14.2055 16.6667 14.9453 16.1968 15.6095 15.5396C16.9693 14.1943 14.7367 13.1192 13.8852 12.5927C11.8885 11.3581 9.35496 11.3581 7.35825 12.5927Z" stroke="#3272EC" stroke-width="1.5" stroke-linecap="round" stroke-linejoin="round"/>
<path d="M13.5384 6.25004C13.5384 7.86087 12.2326 9.16671 10.6217 9.16671C9.01091 9.16671 7.70508 7.86087 7.70508 6.25004C7.70508 4.63921 9.01091 3.33337 10.6217 3.33337C12.2326 3.33337 13.5384 4.63921 13.5384 6.25004Z" stroke="#3272EC" stroke-width="1.5"/>
</g>
<defs>
<clipPath id="clip0_309_18837">
<rect width="20" height="20" fill="white" transform="translate(0.62207)"/>
</clipPath>
</defs>
</svg>
