<svg width="21" height="20" viewBox="0 0 21 20" fill="none" xmlns="http://www.w3.org/2000/svg">
<path d="M6.33359 14.9893C5.97543 14.9893 5.66865 14.8616 5.41326 14.6062C5.15787 14.3509 5.03018 14.0441 5.03018 13.6859V11.4156H6.07716V13.6859C6.07716 13.75 6.10387 13.8088 6.1573 13.8622C6.21072 13.9156 6.26948 13.9423 6.33359 13.9423H16.6327C16.6968 13.9423 16.7556 13.9156 16.809 13.8622C16.8624 13.8088 16.8891 13.75 16.8891 13.6859V4.59404H6.07716V7.12075H5.03018V3.38679C5.03018 3.02862 5.15787 2.72185 5.41326 2.46646C5.66865 2.21107 5.97543 2.08337 6.33359 2.08337H16.6327C16.9909 2.08337 17.2977 2.21107 17.553 2.46646C17.8084 2.72185 17.9361 3.02862 17.9361 3.38679V13.6859C17.9361 14.0441 17.8084 14.3509 17.553 14.6062C17.2977 14.8616 16.9909 14.9893 16.6327 14.9893H6.33359ZM3.82295 17.5C3.46477 17.5 3.15799 17.3723 2.90261 17.1169C2.64723 16.8615 2.51953 16.5547 2.51953 16.1966V4.85046H3.56651V16.1966C3.56651 16.2607 3.59323 16.3194 3.64666 16.3729C3.70007 16.4263 3.75884 16.453 3.82295 16.453H15.169V17.5H3.82295ZM10.6178 12.5273L9.88861 11.7981L11.8662 9.79167H5.03018V8.74469H11.8662L9.88861 6.73825L10.6178 6.0091L13.8768 9.26819L10.6178 12.5273Z" fill="#3272EC"/>
</svg>
