<svg width="21" height="20" viewBox="0 0 21 20" fill="none" xmlns="http://www.w3.org/2000/svg">
<path d="M4.19151 14.6644V16.0363V3.96361V14.6644ZM4.44795 17.0833C4.09093 17.0833 3.78445 16.9553 3.52849 16.6993C3.27252 16.4433 3.14453 16.1368 3.14453 15.7798V4.22004C3.14453 3.86303 3.27252 3.55654 3.52849 3.30059C3.78445 3.04461 4.09093 2.91663 4.44795 2.91663H16.0077C16.3648 2.91663 16.6712 3.04461 16.9272 3.30059C17.1832 3.55654 17.3112 3.86303 17.3112 4.22004V6.83171H16.2642V4.22004C16.2642 4.14525 16.2401 4.08381 16.1921 4.03573C16.144 3.98765 16.0825 3.96361 16.0077 3.96361H4.44795C4.37316 3.96361 4.31172 3.98765 4.26364 4.03573C4.21555 4.08381 4.19151 4.14525 4.19151 4.22004V15.7798C4.19151 15.8546 4.21555 15.9161 4.26364 15.9641C4.31172 16.0122 4.37316 16.0363 4.44795 16.0363H16.0077C16.0825 16.0363 16.144 16.0122 16.1921 15.9641C16.2401 15.9161 16.2642 15.8546 16.2642 15.7798V13.1767H17.3112V15.7798C17.3112 16.1368 17.1832 16.4433 16.9272 16.6993C16.6712 16.9553 16.3648 17.0833 16.0077 17.0833H4.44795ZM11.4973 13.6174C11.1016 13.6174 10.7621 13.4772 10.4788 13.1966C10.1954 12.9161 10.0537 12.5778 10.0537 12.1815V7.82688C10.0537 7.43068 10.1954 7.09232 10.4788 6.81179C10.7621 6.53127 11.1016 6.391 11.4973 6.391H16.7171C17.1172 6.391 17.4588 6.53127 17.7421 6.81179C18.0253 7.09232 18.1669 7.43068 18.1669 7.82688V12.1815C18.1669 12.5778 18.0253 12.9161 17.7421 13.1966C17.4588 13.4772 17.1172 13.6174 16.7171 13.6174H11.4973ZM16.8635 12.5705C16.9347 12.5705 16.9953 12.5464 17.0452 12.4983C17.095 12.4503 17.1199 12.3888 17.1199 12.314V7.6944C17.1199 7.62317 17.095 7.56263 17.0452 7.51277C16.9953 7.46291 16.9347 7.43798 16.8635 7.43798H11.3571C11.2859 7.43798 11.2254 7.46291 11.1755 7.51277C11.1256 7.56263 11.1007 7.62317 11.1007 7.6944V12.314C11.1007 12.3888 11.1256 12.4503 11.1755 12.4983C11.2254 12.5464 11.2859 12.5705 11.3571 12.5705H16.8635ZM13.6884 11.2895C14.0448 11.2895 14.3483 11.1633 14.5988 10.9109C14.8494 10.6585 14.9746 10.352 14.9746 9.9914C14.9746 9.63259 14.8477 9.32939 14.5939 9.08179C14.3401 8.83421 14.0371 8.71042 13.6851 8.71042C13.3286 8.71042 13.0237 8.83421 12.7703 9.08179C12.5169 9.32939 12.3902 9.63259 12.3902 9.9914C12.3902 10.352 12.5164 10.6585 12.7689 10.9109C13.0213 11.1633 13.3278 11.2895 13.6884 11.2895Z" fill="#3272EC"/>
</svg>
