<svg width="21" height="20" viewBox="0 0 21 20" fill="none" xmlns="http://www.w3.org/2000/svg">
<path d="M4.44795 17.9166C4.08978 17.9166 3.783 17.7889 3.52761 17.5335C3.27223 17.2781 3.14453 16.9714 3.14453 16.6132V4.85041C3.14453 4.49225 3.27223 4.18547 3.52761 3.93008C3.783 3.6747 4.08978 3.54702 4.44795 3.54702H5.85822V1.98718H6.98534V3.54702H13.5024V1.98718H14.6028V3.54702H16.0077C16.3659 3.54702 16.6727 3.6747 16.9281 3.93008C17.1835 4.18547 17.3112 4.49225 17.3112 4.85041V16.6132C17.3112 16.9714 17.1835 17.2781 16.9281 17.5335C16.6727 17.7889 16.3659 17.9166 16.0077 17.9166H4.44795ZM4.44795 16.8696H16.0077C16.0718 16.8696 16.1306 16.8429 16.184 16.7895C16.2375 16.7361 16.2642 16.6773 16.2642 16.6132V8.48825H4.19151V16.6132C4.19151 16.6773 4.21823 16.7361 4.27166 16.7895C4.32507 16.8429 4.38384 16.8696 4.44795 16.8696ZM4.19151 7.44127H16.2642V4.85041C16.2642 4.78631 16.2375 4.72755 16.184 4.67412C16.1306 4.6207 16.0718 4.594 16.0077 4.594H4.44795C4.38384 4.594 4.32507 4.6207 4.27166 4.67412C4.21823 4.72755 4.19151 4.78631 4.19151 4.85041V7.44127ZM10.2278 11.7307C10.0238 11.7307 9.84991 11.6589 9.70622 11.5152C9.56252 11.3715 9.49068 11.1976 9.49068 10.9936C9.49068 10.7895 9.56252 10.6156 9.70622 10.472C9.84991 10.3283 10.0238 10.2564 10.2278 10.2564C10.4319 10.2564 10.6058 10.3283 10.7495 10.472C10.8932 10.6156 10.965 10.7895 10.965 10.9936C10.965 11.1976 10.8932 11.3715 10.7495 11.5152C10.6058 11.6589 10.4319 11.7307 10.2278 11.7307ZM6.89451 11.7307C6.69045 11.7307 6.51658 11.6589 6.37289 11.5152C6.22919 11.3715 6.15734 11.1976 6.15734 10.9936C6.15734 10.7895 6.22919 10.6156 6.37289 10.472C6.51658 10.3283 6.69045 10.2564 6.89451 10.2564C7.09857 10.2564 7.27244 10.3283 7.41614 10.472C7.55983 10.6156 7.63168 10.7895 7.63168 10.9936C7.63168 11.1976 7.55983 11.3715 7.41614 11.5152C7.27244 11.6589 7.09857 11.7307 6.89451 11.7307ZM13.5612 11.7307C13.3571 11.7307 13.1832 11.6589 13.0396 11.5152C12.8959 11.3715 12.824 11.1976 12.824 10.9936C12.824 10.7895 12.8959 10.6156 13.0396 10.472C13.1832 10.3283 13.3571 10.2564 13.5612 10.2564C13.7652 10.2564 13.9391 10.3283 14.0828 10.472C14.2265 10.6156 14.2983 10.7895 14.2983 10.9936C14.2983 11.1976 14.2265 11.3715 14.0828 11.5152C13.9391 11.6589 13.7652 11.7307 13.5612 11.7307ZM10.2278 15C10.0238 15 9.84991 14.9281 9.70622 14.7844C9.56252 14.6407 9.49068 14.4669 9.49068 14.2628C9.49068 14.0588 9.56252 13.8849 9.70622 13.7412C9.84991 13.5975 10.0238 13.5256 10.2278 13.5256C10.4319 13.5256 10.6058 13.5975 10.7495 13.7412C10.8932 13.8849 10.965 14.0588 10.965 14.2628C10.965 14.4669 10.8932 14.6407 10.7495 14.7844C10.6058 14.9281 10.4319 15 10.2278 15ZM6.89451 15C6.69045 15 6.51658 14.9281 6.37289 14.7844C6.22919 14.6407 6.15734 14.4669 6.15734 14.2628C6.15734 14.0588 6.22919 13.8849 6.37289 13.7412C6.51658 13.5975 6.69045 13.5256 6.89451 13.5256C7.09857 13.5256 7.27244 13.5975 7.41614 13.7412C7.55983 13.8849 7.63168 14.0588 7.63168 14.2628C7.63168 14.4669 7.55983 14.6407 7.41614 14.7844C7.27244 14.9281 7.09857 15 6.89451 15ZM13.5612 15C13.3571 15 13.1832 14.9281 13.0396 14.7844C12.8959 14.6407 12.824 14.4669 12.824 14.2628C12.824 14.0588 12.8959 13.8849 13.0396 13.7412C13.1832 13.5975 13.3571 13.5256 13.5612 13.5256C13.7652 13.5256 13.9391 13.5975 14.0828 13.7412C14.2265 13.8849 14.2983 14.0588 14.2983 14.2628C14.2983 14.4669 14.2265 14.6407 14.0828 14.7844C13.9391 14.9281 13.7652 15 13.5612 15Z" fill="#3272EC"/>
</svg>
