<svg width="21" height="20" viewBox="0 0 21 20" fill="none" xmlns="http://www.w3.org/2000/svg">
<path d="M3.3585 15.78V15.6261V16.0364V6.46373V15.78ZM3.61494 17.0834C3.25677 17.0834 2.95 16.9557 2.69461 16.7003C2.43922 16.4449 2.31152 16.1381 2.31152 15.78V6.72016C2.31152 6.362 2.43922 6.05522 2.69461 5.79983C2.95 5.54444 3.25677 5.41675 3.61494 5.41675H7.31152V3.80352C7.31152 3.45025 7.43922 3.14471 7.69461 2.88687C7.95 2.62904 8.25677 2.50012 8.61494 2.50012H11.8414C12.1996 2.50012 12.5063 2.62904 12.7617 2.88687C13.0171 3.14471 13.1448 3.45025 13.1448 3.80352V5.41675H16.8414C17.1996 5.41675 17.5063 5.54444 17.7617 5.79983C18.0171 6.05522 18.1448 6.362 18.1448 6.72016V10.7976C17.9835 10.6801 17.8174 10.5742 17.6467 10.4798C17.4759 10.3854 17.293 10.2975 17.0978 10.2159V6.72016C17.0978 6.64537 17.0738 6.58394 17.0257 6.53585C16.9776 6.48777 16.9162 6.46373 16.8414 6.46373H3.61494C3.54015 6.46373 3.47871 6.48777 3.43063 6.53585C3.38254 6.58394 3.3585 6.64537 3.3585 6.72016V15.78C3.3585 15.8547 3.38254 15.9162 3.43063 15.9643C3.47871 16.0124 3.54015 16.0364 3.61494 16.0364H10.1871C10.2291 16.223 10.2798 16.4031 10.339 16.5767C10.3983 16.7503 10.4689 16.9192 10.5508 17.0834H3.61494ZM8.3585 5.41675H12.0978V3.80352C12.0978 3.72873 12.0738 3.6673 12.0257 3.61923C11.9776 3.57114 11.9162 3.5471 11.8414 3.5471H8.61494C8.54015 3.5471 8.47871 3.57114 8.43063 3.61923C8.38254 3.6673 8.3585 3.72873 8.3585 3.80352V5.41675ZM15.2282 18.6795C14.2139 18.6795 13.3471 18.3198 12.6278 17.6005C11.9084 16.8811 11.5487 16.0143 11.5487 15.0001C11.5487 13.9858 11.9084 13.119 12.6278 12.3997C13.3471 11.6803 14.2139 11.3206 15.2282 11.3206C16.2424 11.3206 17.1092 11.6803 17.8286 12.3997C18.5479 13.119 18.9076 13.9858 18.9076 15.0001C18.9076 16.0143 18.5479 16.8811 17.8286 17.6005C17.1092 18.3198 16.2424 18.6795 15.2282 18.6795ZM15.2282 17.2698L17.4653 15.0326L17.0166 14.5839L15.5487 16.0572V12.7303H14.913V16.0572L13.4397 14.5839L12.991 15.0326L15.2282 17.2698Z" fill="#3272EC"/>
</svg>
