<svg width="41" height="40" viewBox="0 0 41 40" fill="none" xmlns="http://www.w3.org/2000/svg">
<circle cx="20.7949" cy="20" r="20" fill="#3272EC"/>
<g clip-path="url(#clip0_878_11318)">
<path d="M29.9618 13.748L19.5026 24.2163L15.6159 20.3297L16.9084 19.0372L19.5026 21.6313L28.6693 12.4647L29.9618 13.748ZM20.7951 27.333C16.7526 27.333 13.4618 24.0422 13.4618 19.9997C13.4618 15.9572 16.7526 12.6663 20.7951 12.6663C22.2343 12.6663 23.5818 13.088 24.7184 13.8122L26.0476 12.483C24.5067 11.4089 22.6734 10.833 20.7951 10.833C15.7351 10.833 11.6284 14.9397 11.6284 19.9997C11.6284 25.0597 15.7351 29.1663 20.7951 29.1663C22.3809 29.1663 23.8751 28.763 25.1768 28.048L23.8018 26.673C22.8851 27.0947 21.8676 27.333 20.7951 27.333ZM27.2118 22.7497H24.4618V24.583H27.2118V27.333H29.0451V24.583H31.7951V22.7497H29.0451V19.9997H27.2118V22.7497Z" fill="white"/>
</g>
<defs>
<clipPath id="clip0_878_11318">
<rect width="22" height="22" fill="white" transform="translate(9.79492 9)"/>
</clipPath>
</defs>
</svg>
