<svg width="52" height="49" viewBox="0 0 52 49" fill="none" xmlns="http://www.w3.org/2000/svg">
<rect x="0.150391" width="51.6522" height="48.9563" rx="8" fill="#3272EC"/>
<path d="M19.1579 19.7369L16 20.2632C16.8579 16.3084 19.3495 15.0037 21.7895 15C23.3668 14.9974 24.9221 15.54 26 16.0526C27.0779 15.54 28.6316 15 30.2105 15C32.6374 15 35.1421 16.3084 36 20.2632L32.8421 19.7369C33.1363 20.8421 33.7832 22.7853 32.8421 24.4737C31.2737 23.0669 27.6474 20.9426 26 19.7369C24.3526 20.9426 20.7263 23.0669 19.1579 24.4737C18.2168 22.7858 18.8637 20.8421 19.1579 19.7369Z" stroke="white" stroke-width="1.7" stroke-linecap="round" stroke-linejoin="round"/>
<path d="M26.001 19.7374C25.6036 21.7842 25.0478 26.86 26.001 30.79" stroke="white" stroke-width="1.7" stroke-linecap="round" stroke-linejoin="round"/>
<path d="M19.6836 33.9479H32.3152C29.7957 31.5347 28.631 30.7926 25.9994 30.79C23.3678 30.7874 20.6794 32.57 19.6836 33.9479Z" stroke="white" stroke-width="1.7" stroke-linecap="round" stroke-linejoin="round"/>
</svg>
