<svg width="25" height="25" viewBox="0 0 25 25" fill="none" xmlns="http://www.w3.org/2000/svg">
<path d="M5.30664 22.8125C4.75664 22.8125 4.28564 22.6168 3.89364 22.2255C3.50231 21.8335 3.30664 21.3625 3.30664 20.8125V6.8125H5.30664V20.8125H16.3066V22.8125H5.30664ZM9.30664 18.8125C8.75664 18.8125 8.28597 18.6168 7.89464 18.2255C7.50264 17.8335 7.30664 17.3625 7.30664 16.8125V4.8125C7.30664 4.2625 7.50264 3.7915 7.89464 3.3995C8.28597 3.00817 8.75664 2.8125 9.30664 2.8125H18.3066C18.8566 2.8125 19.3276 3.00817 19.7196 3.3995C20.111 3.7915 20.3066 4.2625 20.3066 4.8125V16.8125C20.3066 17.3625 20.111 17.8335 19.7196 18.2255C19.3276 18.6168 18.8566 18.8125 18.3066 18.8125H9.30664Z" fill="#DCDCDC"/>
</svg>
