<svg width="53" height="50" viewBox="0 0 53 50" fill="none" xmlns="http://www.w3.org/2000/svg">
<rect x="0.529297" y="0.52182" width="51.6522" height="48.9563" rx="8" fill="#F59E0C"/>
<g clip-path="url(#clip0_0_124)">
<path d="M29.6827 33.478H29.3991C26.3499 33.478 23.3007 33.4786 20.2515 33.478C19.4008 33.478 18.8622 33.1124 18.6705 32.3986C18.6313 32.252 18.6225 32.0929 18.622 31.94C18.6189 30.2269 18.6044 28.5143 18.6246 26.8011C18.6416 25.3333 19.3466 24.2684 20.6739 23.6765C21.1475 23.4653 21.7038 23.4379 22.2233 23.3346C22.4671 23.2861 22.714 23.2525 22.9608 23.22C23.2692 23.1786 23.3559 23.2365 23.4727 23.5536C23.9726 24.9166 24.471 26.28 24.9699 27.643C25.2121 28.3046 25.4549 28.9657 25.6945 29.6278C25.773 29.8452 25.8846 30.0198 26.1454 30.0136C26.3928 30.0074 26.495 29.8359 26.5704 29.6288C27.3043 27.6197 28.0408 25.6117 28.7773 23.6037C28.9214 23.2107 28.9963 23.1647 29.4074 23.2308C29.9497 23.3181 30.4935 23.3961 31.0322 23.5019C32.0946 23.7116 32.8197 24.3634 33.3109 25.3029C33.6414 25.9355 33.676 26.6219 33.6368 27.315C33.6326 27.3858 33.5118 27.4808 33.4266 27.5108C32.28 27.9126 31.3519 28.6062 30.6526 29.5994C29.8743 30.7046 29.5634 31.9395 29.6708 33.2839C29.6749 33.3345 29.677 33.3851 29.6827 33.4791V33.478Z" fill="white"/>
<path d="M26.1242 14C28.2536 13.9933 29.9833 15.7131 29.9858 17.8389C29.9879 19.9636 28.2619 21.683 26.1289 21.6804C24.0072 21.6778 22.2905 19.9724 22.2801 17.8564C22.2698 15.7353 23.9927 14.0067 26.1242 14Z" fill="white"/>
<path d="M26.1351 22.689C26.3153 22.689 26.4966 22.6735 26.6748 22.6921C27.0472 22.7309 27.2083 23.0593 27.0291 23.3909C27.0208 23.4059 27.0136 23.4224 27.0012 23.4343C26.4925 23.9296 26.4966 24.5333 26.6288 25.1686C26.6707 25.37 26.6763 25.5787 26.7135 25.7811C26.7745 26.1122 26.7368 26.4215 26.5916 26.7288C26.4749 26.9762 26.4021 27.2443 26.2972 27.4979C26.2714 27.5604 26.2002 27.6383 26.1439 27.644C26.0922 27.6492 26.0034 27.5769 25.9801 27.519C25.8216 27.1203 25.6728 26.7175 25.5282 26.3136C25.5065 26.2537 25.5169 26.1783 25.5246 26.1117C25.5912 25.5312 25.6672 24.9512 25.724 24.3696C25.7353 24.2534 25.6981 24.1176 25.6413 24.0133C25.5308 23.8103 25.3852 23.6269 25.2633 23.4296C25.036 23.0614 25.2142 22.7133 25.6465 22.6828C25.8087 22.6715 25.9724 22.6808 26.1356 22.6808C26.1356 22.6833 26.1356 22.6854 26.1356 22.688L26.1351 22.689Z" fill="white"/>
<path d="M34.5587 28.9243C32.6049 28.9243 31.0209 30.5084 31.0209 32.4622C31.0209 34.416 32.6049 36 34.5587 36C36.5125 36 38.0965 34.416 38.0965 32.4622C38.0965 30.5084 36.5125 28.9243 34.5587 28.9243ZM35.9914 33.5214C36.1587 33.6908 36.1096 33.9346 35.8886 33.9811C35.8049 33.9992 35.6774 33.9491 35.6107 33.8861C35.2988 33.5932 35.0008 33.2854 34.6992 32.9817C34.6578 32.9399 34.6243 32.8908 34.5752 32.8309C34.5158 32.8862 34.4735 32.9234 34.4337 32.9626C34.1233 33.2725 33.8139 33.5844 33.5025 33.8928C33.3682 34.0255 33.2577 34.0379 33.1332 33.9444C32.9855 33.8339 32.9731 33.6728 33.1121 33.5312C33.4194 33.2183 33.7308 32.9089 34.0422 32.6001C34.0835 32.5587 34.1336 32.5267 34.2101 32.4663C34.0794 32.3459 33.9715 32.252 33.8697 32.1518C33.6218 31.908 33.3765 31.6616 33.1317 31.4142C32.9835 31.2645 32.9752 31.1359 33.0997 31.0098C33.2236 30.8833 33.3569 30.8885 33.5041 31.0336C33.8124 31.3383 34.1176 31.6461 34.4244 31.9524C34.4652 31.9932 34.5081 32.0314 34.5623 32.0826C34.7942 31.8491 35.0199 31.6219 35.2456 31.3956C35.3587 31.2815 35.4718 31.1679 35.5859 31.0548C35.7528 30.89 35.8845 30.8771 36.0136 31.0109C36.1386 31.14 36.1256 31.2686 35.9676 31.4277C35.666 31.7314 35.3633 32.034 35.0591 32.3356C35.0214 32.3728 34.9724 32.3981 34.9094 32.443C35.2946 32.8268 35.6453 33.1718 35.9914 33.5214Z" fill="white"/>
</g>
<defs>
<clipPath id="clip0_0_124">
<rect width="19.4822" height="22" fill="white" transform="translate(18.6143 14)"/>
</clipPath>
</defs>
</svg>
