<svg width="53" height="50" viewBox="0 0 53 50" fill="none" xmlns="http://www.w3.org/2000/svg">
<rect x="0.529785" y="0.52182" width="51.6522" height="48.9563" rx="8" fill="#22C55D"/>
<g clip-path="url(#clip0_0_137)">
<path d="M36.131 24.6963C35.919 24.2406 35.3362 24.0128 34.8594 24.2153C34.1971 24.4938 33.27 24.8735 32.6342 25.152V25.1267C32.2633 24.19 31.707 22.7976 30.3295 22.2659C29.9851 22.1393 29.4288 21.9115 29.4288 21.9115L29.1374 21.7849C29.1374 21.7849 28.952 21.709 28.846 21.6583C26.8593 20.8482 23.389 22.0128 22.7797 22.6204C22.4353 22.9495 21.2168 24.6204 20.7134 25.3292C20.6605 25.4052 20.634 25.4811 20.6075 25.5571H20.4485C20.2896 25.5824 20.1836 25.6583 20.1042 25.7849L19.6803 26.3672L18.8061 25.7849C18.6472 25.6836 18.4617 25.7343 18.3558 25.8609L16.5544 28.3925C16.4485 28.5444 16.5014 28.7216 16.6339 28.8229L20.475 31.3292C20.634 31.4305 20.8194 31.3798 20.9254 31.2533L22.7267 28.7216C22.8327 28.5697 22.7797 28.3925 22.6472 28.2912L21.7731 27.709L22.1969 27.1267C22.3294 26.9495 22.3294 26.6963 22.1969 26.5191L22.3559 26.3672C23.0711 25.3798 23.9453 24.19 24.1837 23.9115C24.3956 23.7849 24.8989 23.6077 25.5082 23.4558C24.6075 24.7722 23.8393 26.6204 23.7599 27.5571C23.6539 28.0381 23.6009 28.5697 23.5479 29.152C23.4685 30.1393 23.3625 31.2533 22.9386 31.9368C21.9585 33.5064 20.3691 35.0254 20.3426 35.0507C19.8922 35.4811 19.8922 36.1647 20.3426 36.5697C20.7929 37.0001 21.5082 37.0001 21.932 36.5697C22.0115 36.4938 23.7599 34.8482 24.8725 33.0254C25.5347 31.9621 25.6672 30.5697 25.7731 29.4305C26.5679 29.9368 27.8129 30.7469 28.2368 31.1773C28.1043 31.9115 27.4685 33.9115 26.8857 35.5824C26.7003 36.1393 27.0182 36.7722 27.601 36.9495C27.7069 36.9748 27.8394 37.0001 27.9454 37.0001C28.4222 37.0001 28.8725 36.7216 29.0315 36.2659C29.5878 34.6457 30.5414 31.7849 30.5149 30.9495C30.4885 30.1393 29.7202 29.4305 28.0513 28.2912C28.5811 27.076 29.3759 25.4052 30.1971 24.4685C30.462 24.8482 30.6474 25.3545 30.8328 25.7596C31.0448 26.2912 31.4156 27.2279 32.2103 27.2279C32.3428 27.2279 32.4753 27.2026 32.6342 27.152C33.1905 26.9748 35.4157 26.0128 35.6806 25.9115C36.131 25.709 36.3429 25.1773 36.131 24.6963ZM21.7201 26.8482L21.2962 27.4558L20.1042 26.671L20.5545 26.0634L20.581 26.0887C20.634 26.2912 20.7664 26.4938 20.9519 26.6204C21.1373 26.7469 21.3757 26.7976 21.5876 26.7722L21.7201 26.8482Z" fill="white"/>
<path d="M30.4249 21.3976C31.6684 21.3976 32.6766 20.4341 32.6766 19.2457C32.6766 18.0572 31.6684 17.0938 30.4249 17.0938C29.1813 17.0938 28.1732 18.0572 28.1732 19.2457C28.1732 20.4341 29.1813 21.3976 30.4249 21.3976Z" fill="white"/>
<path d="M23.0976 18.7722C24.7665 18.7722 26.1175 17.4811 26.1175 15.8862C26.1175 14.2912 24.7665 13.0001 23.0976 13.0001C21.4287 13.0001 20.0776 14.2659 20.0776 15.8609C20.0776 17.4558 21.4287 18.7722 23.0976 18.7722ZM23.0976 13.8355C24.2631 13.8355 25.2168 14.7469 25.2168 15.8609C25.2168 16.9748 24.2631 17.8862 23.0976 17.8862C21.932 17.8862 20.9783 16.9748 20.9783 15.8609C20.9783 14.7469 21.932 13.8355 23.0976 13.8355Z" fill="white"/>
<path d="M23.0976 16.19H24.0247C24.2102 16.19 24.3691 16.0381 24.3691 15.8608C24.3691 15.6836 24.2102 15.5317 24.0247 15.5317H23.4419V14.6203C23.4419 14.4431 23.283 14.2912 23.0976 14.2912C22.9121 14.2912 22.7532 14.4431 22.7532 14.6203V15.8862C22.7532 16.0381 22.9121 16.19 23.0976 16.19Z" fill="white"/>
</g>
<defs>
<clipPath id="clip0_0_137">
<rect width="19.7143" height="24" fill="white" transform="translate(16.4988 13.0001)"/>
</clipPath>
</defs>
</svg>
