<svg width="53" height="50" viewBox="0 0 53 50" fill="none" xmlns="http://www.w3.org/2000/svg">
<rect x="0.529785" y="0.52182" width="51.6522" height="48.9563" rx="8" fill="#EF4444"/>
<g clip-path="url(#clip0_0_113)">
<path d="M30.2471 25C31.3922 25.0354 32.3288 25.4878 33.0568 26.3572H34.4776C35.0572 26.3572 35.5449 26.2141 35.9407 25.9278C36.3366 25.6415 36.5345 25.2227 36.5345 24.6714C36.5345 22.1762 36.0962 20.9286 35.2198 20.9286C35.1773 20.9286 35.0236 21.0028 34.7585 21.1513C34.4935 21.2997 34.1489 21.4499 33.7248 21.6019C33.3007 21.7539 32.8801 21.8298 32.4631 21.8298C31.9895 21.8298 31.5194 21.7486 31.0529 21.586C31.0882 21.8475 31.1059 22.0808 31.1059 22.2858C31.1059 23.2683 30.8196 24.173 30.2471 25ZM18.8916 31.754C18.8916 32.6022 19.1496 33.2719 19.6656 33.7632C20.1816 34.2544 20.8673 34.5 21.7225 34.5H30.9893C31.8446 34.5 32.5302 34.2544 33.0462 33.7632C33.5622 33.2719 33.8202 32.6022 33.8202 31.754C33.8202 31.3793 33.8078 31.0135 33.7831 30.6566C33.7584 30.2996 33.7089 29.9144 33.6347 29.5009C33.5604 29.0874 33.4668 28.7039 33.3537 28.3505C33.2406 27.9971 33.0886 27.6525 32.8978 27.3167C32.7069 26.981 32.4878 26.6947 32.2404 26.4579C31.993 26.2211 31.6908 26.032 31.3339 25.8907C30.9769 25.7493 30.5828 25.6786 30.1517 25.6786C30.081 25.6786 29.929 25.7546 29.6958 25.9066C29.4625 26.0585 29.2045 26.2282 28.9218 26.4155C28.639 26.6028 28.2609 26.7725 27.7873 26.9244C27.3137 27.0764 26.8366 27.1524 26.3559 27.1524C25.8753 27.1524 25.3981 27.0764 24.9246 26.9244C24.451 26.7725 24.0728 26.6028 23.7901 26.4155C23.5073 26.2282 23.2493 26.0585 23.0161 25.9066C22.7828 25.7546 22.6308 25.6786 22.5602 25.6786C22.129 25.6786 21.7349 25.7493 21.378 25.8907C21.021 26.032 20.7188 26.2211 20.4714 26.4579C20.224 26.6947 20.0049 26.981 19.8141 27.3167C19.6232 27.6525 19.4712 27.9971 19.3581 28.3505C19.245 28.7039 19.1514 29.0874 19.0772 29.5009C19.003 29.9144 18.9535 30.2996 18.9287 30.6566C18.904 31.0135 18.8916 31.3793 18.8916 31.754ZM29.7488 18.2143C29.7488 18.9636 30.0138 19.6033 30.544 20.1334C31.0741 20.6635 31.7138 20.9286 32.4631 20.9286C33.2123 20.9286 33.852 20.6635 34.3821 20.1334C34.9123 19.6033 35.1773 18.9636 35.1773 18.2143C35.1773 17.4651 34.9123 16.8254 34.3821 16.2952C33.852 15.7651 33.2123 15.5 32.4631 15.5C31.7138 15.5 31.0741 15.7651 30.544 16.2952C30.0138 16.8254 29.7488 17.4651 29.7488 18.2143ZM22.2845 22.2858C22.2845 23.4096 22.6821 24.3692 23.4773 25.1644C24.2725 25.9596 25.232 26.3572 26.3559 26.3572C27.4798 26.3572 28.4393 25.9596 29.2345 25.1644C30.0297 24.3692 30.4273 23.4096 30.4273 22.2858C30.4273 21.1619 30.0297 20.2023 29.2345 19.4071C28.4393 18.6119 27.4798 18.2143 26.3559 18.2143C25.232 18.2143 24.2725 18.6119 23.4773 19.4071C22.6821 20.2023 22.2845 21.1619 22.2845 22.2858ZM16.1773 24.6714C16.1773 25.2227 16.3753 25.6415 16.7711 25.9278C17.1669 26.2141 17.6546 26.3572 18.2343 26.3572H19.655C20.3831 25.4878 21.3196 25.0354 22.4647 25C21.8922 24.173 21.6059 23.2683 21.6059 22.2858C21.6059 22.0808 21.6236 21.8475 21.6589 21.586C21.1924 21.7486 20.7224 21.8298 20.2488 21.8298C19.8317 21.8298 19.4112 21.7539 18.9871 21.6019C18.5629 21.4499 18.2184 21.2997 17.9533 21.1513C17.6882 21.0028 17.5345 20.9286 17.4921 20.9286C16.6156 20.9286 16.1773 22.1762 16.1773 24.6714ZM17.5345 18.2143C17.5345 18.9636 17.7996 19.6033 18.3297 20.1334C18.8598 20.6635 19.4995 20.9286 20.2488 20.9286C20.998 20.9286 21.6377 20.6635 22.1679 20.1334C22.698 19.6033 22.9631 18.9636 22.9631 18.2143C22.9631 17.4651 22.698 16.8254 22.1679 16.2952C21.6377 15.7651 20.998 15.5 20.2488 15.5C19.4995 15.5 18.8598 15.7651 18.3297 16.2952C17.7996 16.8254 17.5345 17.4651 17.5345 18.2143Z" fill="white"/>
</g>
<defs>
<clipPath id="clip0_0_113">
<rect width="20.3571" height="19" fill="white" transform="matrix(-1 0 0 1 36.5345 15.5)"/>
</clipPath>
</defs>
</svg>
