<svg width="53" height="50" viewBox="0 0 53 50" fill="none" xmlns="http://www.w3.org/2000/svg">
<rect x="0.529297" y="0.52182" width="51.6522" height="48.9563" rx="8" fill="#853DFE"/>
<g clip-path="url(#clip0_0_150)">
<path d="M19.6316 32.2336C19.6316 27.6404 19.6316 23.0472 19.6316 18.454C19.6402 18.4358 19.6531 18.4175 19.6563 18.3981C19.7134 18.0311 19.8878 17.7341 20.1752 17.4973C20.3905 17.3187 20.6446 17.2401 20.9084 17.1777H28.2472C28.2472 18.2625 28.2472 19.3462 28.2472 20.431C28.2472 20.826 28.4269 21.0057 28.821 21.0057C29.8469 21.0057 30.8739 21.0057 31.8999 21.0057C31.9559 21.0057 32.0118 21.0057 32.0753 21.0057C32.0753 21.8419 32.0775 22.6544 32.0721 23.4669C32.0721 23.5218 32.0291 23.5832 31.9903 23.6294C30.7943 25.0479 29.5971 26.4641 28.3989 27.8815C28.1513 28.1742 27.964 28.4992 27.8714 28.8705C27.7132 29.5087 27.5549 30.1479 27.4182 30.7915C27.3773 30.9841 27.3676 31.1983 27.4064 31.3909C27.5915 32.3208 28.5314 32.7911 29.427 32.4112C29.9847 32.1755 30.5434 31.943 31.0903 31.6847C31.3422 31.5663 31.5694 31.3942 31.7998 31.2349C31.8966 31.1682 31.9731 31.0713 32.0753 30.9723C32.0753 31.3264 32.0753 31.6589 32.0753 31.9925C32.0721 32.8997 31.4606 33.5078 30.5499 33.5099C30.0342 33.511 29.5186 33.5099 29.0029 33.5099C26.3923 33.5099 23.7816 33.5089 21.17 33.5099C20.6543 33.5099 20.2108 33.3453 19.9179 32.9116C19.7834 32.7114 19.7242 32.4607 19.6305 32.2336H19.6316ZM25.854 23.9082C27.0877 23.9082 28.3214 23.9082 29.5552 23.9082C29.9395 23.9082 30.1602 23.7338 30.1613 23.4304C30.1613 23.1269 29.9406 22.9504 29.5573 22.9504C27.0899 22.9504 24.6224 22.9504 22.1539 22.9504C22.1012 22.9504 22.0473 22.9471 21.9946 22.9525C21.7911 22.974 21.6469 23.0774 21.5769 23.2711C21.4595 23.5972 21.6975 23.905 22.0721 23.906C23.3327 23.9082 24.5934 23.906 25.8529 23.906L25.854 23.9082ZM24.8969 26.7795C25.3599 26.7795 25.8228 26.7795 26.2846 26.7795C26.7787 26.7795 27.274 26.7838 27.7681 26.7773C28.0437 26.7741 28.2461 26.5653 28.2461 26.3027C28.2461 26.0401 28.0458 25.8367 27.7702 25.8238C27.7175 25.8216 27.6637 25.8238 27.6109 25.8238C25.8346 25.8238 24.0583 25.8238 22.282 25.8238C22.1916 25.8238 22.1012 25.8206 22.0107 25.826C21.8062 25.8389 21.6576 25.94 21.5823 26.1305C21.4531 26.4523 21.6899 26.7784 22.057 26.7795C23.0033 26.7827 23.9507 26.7805 24.8969 26.7805V26.7795ZM24.434 20.049C24.2263 20.049 24.0196 20.049 23.8118 20.049C23.2218 20.049 22.6308 20.0457 22.0409 20.05C21.7556 20.0522 21.5478 20.261 21.5478 20.5279C21.5478 20.7948 21.7577 20.996 22.043 21.0046C22.0753 21.0046 22.1065 21.0046 22.1388 21.0046C23.66 21.0046 25.1812 21.0046 26.7023 21.0046C26.7551 21.0046 26.8089 21.0068 26.8616 21.0003C27.1652 20.9648 27.3579 20.671 27.2664 20.3847C27.1964 20.1663 27.0242 20.049 26.7637 20.0479C25.9875 20.0468 25.2113 20.0479 24.434 20.0479V20.049ZM23.9453 28.694C23.3284 28.694 22.7116 28.694 22.0947 28.694C21.7685 28.694 21.551 28.8845 21.5478 29.1675C21.5446 29.4559 21.7664 29.6497 22.1012 29.6507C22.4844 29.6507 22.8666 29.6507 23.2498 29.6507C24.1003 29.6507 24.9519 29.6507 25.8023 29.6507C26.0489 29.6507 26.2211 29.5431 26.2986 29.3483C26.4256 29.0255 26.1942 28.6983 25.8282 28.6951C25.2005 28.6908 24.5729 28.694 23.9453 28.694Z" fill="white"/>
<path d="M32.0656 29.4742C31.3249 28.8533 30.6015 28.2463 29.8651 27.6286C30.7468 26.5857 31.6231 25.5494 32.5113 24.5001C33.2444 25.1146 33.9711 25.7237 34.7106 26.3447C33.8279 27.3897 32.9516 28.426 32.0656 29.4742Z" fill="white"/>
<path d="M29.2537 28.3636C29.9879 28.9792 30.7124 29.5861 31.4423 30.1985C31.2539 30.4654 31.0289 30.6742 30.7339 30.8012C30.1741 31.0433 29.6143 31.2855 29.0556 31.5297C28.8597 31.6148 28.6713 31.618 28.5033 31.4759C28.3343 31.3328 28.3095 31.1455 28.3591 30.9389C28.5022 30.3459 28.6454 29.754 28.7854 29.16C28.8586 28.85 29.0233 28.5971 29.2547 28.3625L29.2537 28.3636Z" fill="white"/>
<path d="M29.2159 17.2606C29.4614 17.3208 29.6627 17.4327 29.835 17.5963C30.4206 18.1516 31.0073 18.708 31.593 19.2644C31.8169 19.4775 31.9773 19.7272 32.0376 20.0436H29.2159V17.2606Z" fill="white"/>
<path d="M35.3351 25.6172C34.588 24.9908 33.8645 24.3838 33.1335 23.7715C33.4005 23.4368 33.6589 23.1129 34.0809 22.9676C34.6256 22.7803 35.2888 22.9676 35.6613 23.4314C36.0348 23.8974 36.0693 24.5991 35.7366 25.0844C35.6139 25.2631 35.4761 25.431 35.3351 25.6172Z" fill="white"/>
</g>
<defs>
<clipPath id="clip0_0_150">
<rect width="16.3333" height="16.3333" fill="white" transform="translate(19.6315 17.1777)"/>
</clipPath>
</defs>
</svg>
