<svg width="25" height="25" viewBox="0 0 25 25" fill="none" xmlns="http://www.w3.org/2000/svg">
<path d="M14.4299 5.41649L17.3299 8.31649M7.12988 7.61649H4.12988C3.86467 7.61649 3.61031 7.72185 3.42278 7.90938C3.23524 8.09692 3.12988 8.35127 3.12988 8.61649V18.6165C3.12988 19.2165 3.52988 19.6165 4.12988 19.6165H15.1299C15.7299 19.6165 16.1299 19.2165 16.1299 18.6165V14.1165M18.5299 4.11649C18.7427 4.30417 18.9131 4.53499 19.0299 4.79361C19.1466 5.05224 19.207 5.33274 19.207 5.61649C19.207 5.90024 19.1466 6.18074 19.0299 6.43937C18.9131 6.69799 18.7427 6.92881 18.5299 7.11649L11.7299 13.9165L8.12988 14.6165L8.82988 11.0165L15.7299 4.21649C16.1037 3.85004 16.6064 3.64478 17.1299 3.64478C17.6534 3.64478 18.156 3.85004 18.5299 4.21649V4.11649Z" stroke="#3272EC" stroke-width="1.7" stroke-linecap="round" stroke-linejoin="round"/>
</svg>
