<svg width="21" height="19" viewBox="0 0 21 19" fill="none" xmlns="http://www.w3.org/2000/svg">
<path d="M9.84008 0.253C10.0231 0.0904881 10.2593 0.000732422 10.5041 0.000732422C10.7488 0.000732422 10.9851 0.0904881 11.1681 0.253L20.1681 8.253C20.3562 8.43172 20.4675 8.67657 20.4785 8.93582C20.4894 9.19508 20.3991 9.44844 20.2268 9.64238C20.0544 9.83632 19.8133 9.95566 19.5546 9.97518C19.2958 9.9947 19.0396 9.91288 18.8401 9.747L18.5041 9.45V17C18.5041 17.5304 18.2934 18.0391 17.9183 18.4142C17.5432 18.7893 17.0345 19 16.5041 19H4.50408C3.97364 19 3.46494 18.7893 3.08986 18.4142C2.71479 18.0391 2.50408 17.5304 2.50408 17V9.45L2.16808 9.747C1.96854 9.91288 1.71233 9.9947 1.45358 9.97518C1.19483 9.95566 0.953794 9.83632 0.7814 9.64238C0.609007 9.44844 0.518751 9.19508 0.5297 8.93582C0.540649 8.67657 0.651945 8.43172 0.840077 8.253L9.84008 0.253ZM4.50408 7.67V17H7.50408V12C7.50408 11.7348 7.60943 11.4804 7.79697 11.2929C7.98451 11.1054 8.23886 11 8.50408 11H12.5041C12.7693 11 13.0236 11.1054 13.2112 11.2929C13.3987 11.4804 13.5041 11.7348 13.5041 12V17H16.5041V7.671L10.5041 2.338L4.50408 7.67ZM11.5041 17V13H9.50408V17H11.5041Z" fill="#363636"/>
</svg>
