<svg width="52" height="49" viewBox="0 0 52 49" fill="none" xmlns="http://www.w3.org/2000/svg">
<rect x="0.150391" width="51.6522" height="48.9563" rx="8" fill="#FF8286"/>
<path d="M30.0909 26.7211L32.3091 28.0103L31.6273 29.1989L28.7273 27.5166V24.1429H30.0909V26.7211ZM36 26.8857C36 30.424 33.1545 33.2857 29.6364 33.2857C26.1182 33.2857 23.2727 30.424 23.2727 26.8857C23.2727 26.5749 23.3 26.2731 23.3455 25.9714H16V15H32.3636V21.1074C34.5091 22.1406 36 24.3349 36 26.8857ZM23.8909 24.1429C24.0545 23.8137 24.2273 23.5029 24.4364 23.2011C24.3545 23.2286 24.2727 23.2286 24.1818 23.2286C22.6727 23.2286 21.4545 22.0034 21.4545 20.4857C21.4545 18.968 22.6727 17.7429 24.1818 17.7429C25.6909 17.7429 26.9091 18.968 26.9091 20.4857C26.9091 20.7143 26.8727 20.9429 26.8182 21.1531C27.6727 20.7326 28.6273 20.4857 29.6364 20.4857C29.9455 20.4857 30.2455 20.5131 30.5455 20.5589V18.6571C30.0632 18.6571 29.6008 18.4645 29.2598 18.1216C28.9188 17.7786 28.7273 17.3135 28.7273 16.8286H19.6364C19.6364 17.8434 18.8273 18.6571 17.8182 18.6571V22.3143C18.3004 22.3143 18.7629 22.5069 19.1038 22.8499C19.4448 23.1928 19.6364 23.6579 19.6364 24.1429H23.8909ZM34.1818 26.8857C34.1818 24.3623 32.1455 22.3143 29.6364 22.3143C27.1273 22.3143 25.0909 24.3623 25.0909 26.8857C25.0909 29.4091 27.1273 31.4571 29.6364 31.4571C32.1455 31.4571 34.1818 29.4091 34.1818 26.8857Z" fill="white"/>
</svg>
