<svg width="41" height="40" viewBox="0 0 41 40" fill="none" xmlns="http://www.w3.org/2000/svg">
<circle cx="20.6748" cy="20" r="20" fill="#3272EC"/>
<path d="M20.6748 28C18.4415 28 16.5498 27.225 14.9998 25.675C13.4498 24.125 12.6748 22.2333 12.6748 20C12.6748 17.7667 13.4498 15.875 14.9998 14.325C16.5498 12.775 18.4415 12 20.6748 12C21.8248 12 22.9248 12.2373 23.9748 12.712C25.0248 13.1867 25.9248 13.866 26.6748 14.75V12H28.6748V19H21.6748V17H25.8748C25.3415 16.0667 24.6125 15.3333 23.6878 14.8C22.7631 14.2667 21.7588 14 20.6748 14C19.0081 14 17.5915 14.5833 16.4248 15.75C15.2581 16.9167 14.6748 18.3333 14.6748 20C14.6748 21.6667 15.2581 23.0833 16.4248 24.25C17.5915 25.4167 19.0081 26 20.6748 26C21.9581 26 23.1165 25.6333 24.1498 24.9C25.1831 24.1667 25.9081 23.2 26.3248 22H28.4248C27.9581 23.7667 27.0081 25.2083 25.5748 26.325C24.1415 27.4417 22.5081 28 20.6748 28Z" fill="white"/>
</svg>
