<svg width="25" height="26" viewBox="0 0 25 26" fill="none" xmlns="http://www.w3.org/2000/svg">
<path d="M12.5 2.96021C10.4913 2.96021 8.52768 3.55586 6.85749 4.67184C5.18731 5.78782 3.88556 7.37401 3.11685 9.22983C2.34815 11.0856 2.14702 13.1277 2.5389 15.0978C2.93079 17.068 3.89807 18.8776 5.31845 20.298C6.73883 21.7184 8.5485 22.6857 10.5186 23.0776C12.4887 23.4694 14.5308 23.2683 16.3866 22.4996C18.2424 21.7309 19.8286 20.4292 20.9446 18.759C22.0606 17.0888 22.6563 15.1252 22.6563 13.1165C22.6534 10.4237 21.5825 7.84209 19.6784 5.93804C17.7744 4.03399 15.1927 2.96305 12.5 2.96021ZM16.1777 15.6887C16.2503 15.7613 16.3079 15.8475 16.3472 15.9423C16.3865 16.0372 16.4067 16.1388 16.4067 16.2415C16.4067 16.3441 16.3865 16.4458 16.3472 16.5406C16.3079 16.6354 16.2503 16.7216 16.1777 16.7942C16.1052 16.8668 16.019 16.9244 15.9241 16.9636C15.8293 17.0029 15.7277 17.0231 15.625 17.0231C15.5224 17.0231 15.4207 17.0029 15.3259 16.9636C15.231 16.9244 15.1449 16.8668 15.0723 16.7942L12.5 14.2209L9.92774 16.7942C9.85515 16.8668 9.76898 16.9244 9.67414 16.9636C9.5793 17.0029 9.47766 17.0231 9.375 17.0231C9.27235 17.0231 9.1707 17.0029 9.07587 16.9636C8.98103 16.9244 8.89486 16.8668 8.82227 16.7942C8.74968 16.7216 8.69211 16.6354 8.65282 16.5406C8.61354 16.4458 8.59332 16.3441 8.59332 16.2415C8.59332 16.1388 8.61354 16.0372 8.65282 15.9423C8.69211 15.8475 8.74968 15.7613 8.82227 15.6887L11.3955 13.1165L8.82227 10.5442C8.67568 10.3976 8.59332 10.1988 8.59332 9.99146C8.59332 9.78414 8.67568 9.58531 8.82227 9.43872C8.96886 9.29213 9.16769 9.20977 9.375 9.20977C9.58232 9.20977 9.78115 9.29213 9.92774 9.43872L12.5 12.012L15.0723 9.43872C15.1449 9.36613 15.231 9.30856 15.3259 9.26927C15.4207 9.22999 15.5224 9.20977 15.625 9.20977C15.7277 9.20977 15.8293 9.22999 15.9241 9.26927C16.019 9.30856 16.1052 9.36613 16.1777 9.43872C16.2503 9.51131 16.3079 9.59748 16.3472 9.69232C16.3865 9.78716 16.4067 9.8888 16.4067 9.99146C16.4067 10.0941 16.3865 10.1958 16.3472 10.2906C16.3079 10.3854 16.2503 10.4716 16.1777 10.5442L13.6045 13.1165L16.1777 15.6887Z" fill="#FF0000"/>
</svg>
