<svg width="24" height="25" viewBox="0 0 24 25" fill="none" xmlns="http://www.w3.org/2000/svg">
<path d="M19 5.44849H18V3.44849H16V5.44849H8V3.44849H6V5.44849H5C3.89 5.44849 3 6.33849 3 7.44849V19.4485C3 19.9789 3.21071 20.4876 3.58579 20.8627C3.96086 21.2378 4.46957 21.4485 5 21.4485H19C20.1 21.4485 21 20.5485 21 19.4485V7.44849C21 6.91805 20.7893 6.40935 20.4142 6.03427C20.0391 5.6592 19.5304 5.44849 19 5.44849ZM19.5 19.9485H4.5V7.44849H19.5V19.9485ZM12 10.4485V12.4485H16V15.4485H12V17.4485L8 13.9485L12 10.4485Z" fill="#3272EC"/>
</svg>
