<svg width="52" height="49" viewBox="0 0 52 49" fill="none" xmlns="http://www.w3.org/2000/svg">
<rect x="0.150391" width="51.6522" height="48.9563" rx="8" fill="#F59E0C"/>
<path d="M16 22.1C16.4333 19.7667 17.5627 17.8333 19.388 16.3C21.2133 14.7667 23.359 14 25.825 14C27.0583 14 28.221 14.2 29.313 14.6C30.405 15 31.384 15.5667 32.25 16.3C32.0167 16.7333 31.8293 17.1043 31.688 17.413C31.5467 17.7217 31.4507 18.009 31.4 18.275C30.6667 17.575 29.825 17.021 28.875 16.613C27.925 16.205 26.9083 16.0007 25.825 16C24.1417 16 22.6333 16.471 21.3 17.413C19.9667 18.355 19 19.559 18.4 21.025C17.95 21.0083 17.5127 21.0917 17.088 21.275C16.6633 21.4583 16.3007 21.7333 16 22.1ZM25.825 34C23.3583 34 21.2127 33.2333 19.388 31.7C17.5633 30.1667 16.434 28.2333 16 25.9C16.2833 26.2667 16.6377 26.546 17.063 26.738C17.4883 26.93 17.934 27.0173 18.4 27C19 28.4667 19.9667 29.6667 21.3 30.6C22.6333 31.5333 24.1417 32 25.825 32C28.0417 32 29.9293 31.221 31.488 29.663C33.0467 28.105 33.8257 26.2173 33.825 24C33.825 23.7167 33.8123 23.4333 33.787 23.15C33.7617 22.8667 33.716 22.5833 33.65 22.3C33.8333 22.3667 34.021 22.4167 34.213 22.45C34.405 22.4833 34.609 22.5 34.825 22.5C34.975 22.5 35.125 22.4917 35.275 22.475C35.425 22.4583 35.5667 22.4333 35.7 22.4C35.7333 22.6667 35.7627 22.9293 35.788 23.188C35.8133 23.4467 35.8257 23.7173 35.825 24C35.825 25.3833 35.5623 26.6833 35.037 27.9C34.5117 29.1167 33.7993 30.175 32.9 31.075C32 31.975 30.9417 32.6877 29.725 33.213C28.5083 33.7383 27.2083 34.0007 25.825 34ZM22.225 23.6L24.325 21.5L22.2 19.375L21.15 20.425L22.225 21.475L21.15 22.55L22.225 23.6ZM34.825 21C34.275 21 33.8043 20.8043 33.413 20.413C33.0217 20.0217 32.8257 19.5507 32.825 19C32.825 18.55 32.95 18.071 33.2 17.563C33.45 17.055 33.9917 16.2007 34.825 15C35.6583 16.2 36.2 17.0543 36.45 17.563C36.7 18.0717 36.825 18.5507 36.825 19C36.825 19.55 36.6293 20.021 36.238 20.413C35.8467 20.805 35.3757 21.0007 34.825 21ZM29.45 23.625L30.525 22.55L29.45 21.475L30.5 20.425L29.45 19.375L27.325 21.5L29.45 23.625ZM25.825 25.5C25.3917 25.5 24.9707 25.55 24.562 25.65C24.1533 25.75 23.766 25.8917 23.4 26.075L19.825 24C19.825 23.7333 19.7583 23.4833 19.625 23.25C19.4917 23.0167 19.3083 22.8333 19.075 22.7C18.7083 22.5 18.3293 22.4543 17.938 22.563C17.5467 22.6717 17.2423 22.9007 17.025 23.25C16.825 23.6167 16.7793 23.996 16.888 24.388C16.9967 24.78 17.2257 25.084 17.575 25.3C17.8083 25.4333 18.0583 25.5 18.325 25.5C18.5917 25.5 18.8417 25.4333 19.075 25.3L22.05 27.025C21.7667 27.3083 21.5123 27.6127 21.287 27.938C21.0617 28.2633 20.8743 28.6173 20.725 29H22.375C22.725 28.4 23.2 27.9167 23.8 27.55C24.4 27.1833 25.075 27 25.825 27C26.575 27 27.25 27.1833 27.85 27.55C28.45 27.9167 28.925 28.4 29.275 29H30.925C30.525 27.9667 29.8707 27.125 28.962 26.475C28.0533 25.825 27.0077 25.5 25.825 25.5Z" fill="white"/>
</svg>
