<svg width="35" height="34" viewBox="0 0 35 34" fill="none" xmlns="http://www.w3.org/2000/svg">
<path d="M28.9872 9.02533V14.2578C28.9872 14.2578 25.4537 14.2753 25.4359 14.2578V9.02533H20.1089C20.1089 9.02533 20.1267 5.54283 20.1089 5.52533H25.4359V0.27533H28.9872V5.52533H34.3142V9.02533H28.9872ZM23.6602 16.0253V10.7753H18.3333V5.52533H4.12798C2.17475 5.52533 0.57666 7.10033 0.57666 9.02533V30.0253C0.57666 31.9503 2.17475 33.5253 4.12798 33.5253H25.4359C27.3891 33.5253 28.9872 31.9503 28.9872 30.0253V16.0253H23.6602ZM4.12798 30.0253L9.45496 23.0253L13.0063 28.2753L18.3333 21.2753L25.4359 30.0253H4.12798Z" fill="#3272EC"/>
</svg>
