<svg width="25" height="25" viewBox="0 0 25 25" fill="none" xmlns="http://www.w3.org/2000/svg">
<path d="M12.1773 16.1155C14.1098 16.1155 15.6764 14.5489 15.6764 12.6164C15.6764 10.6839 14.1098 9.11734 12.1773 9.11734C10.2448 9.11734 8.67822 10.6839 8.67822 12.6164C8.67822 14.5489 10.2448 16.1155 12.1773 16.1155Z" stroke="#3272EC" stroke-width="1.7"/>
<path d="M21.7275 11.3731C22.18 11.9236 22.4063 12.1977 22.4063 12.6164C22.4063 13.0352 22.18 13.3093 21.7275 13.8598C20.0712 15.8706 16.4182 19.6146 12.1773 19.6146C7.93636 19.6146 4.28331 15.8706 2.62707 13.8598C2.17452 13.3093 1.94824 13.0352 1.94824 12.6164C1.94824 12.1977 2.17452 11.9236 2.62707 11.3731C4.28331 9.36227 7.93636 5.61824 12.1773 5.61824C16.4182 5.61824 20.0712 9.36227 21.7275 11.3731Z" stroke="#3272EC" stroke-width="1.7"/>
</svg>
