<svg width="50" height="51" viewBox="0 0 50 51" fill="none" xmlns="http://www.w3.org/2000/svg">
<circle cx="24.8886" cy="25.7315" r="24.3768" fill="#3272EC" stroke="white"/>
<path d="M21.5153 25.9013H18.6873V28.7993H17.2033V25.9013H14.3753V24.5573H17.2033V21.6593H18.6873V24.5573H21.5153V25.9013ZM23.5714 21.5333V20.0773H26.4834V30.2833H24.8734V21.5333H23.5714ZM28.6759 25.0473C28.6759 23.4326 28.9466 22.1726 29.4879 21.2673C30.0386 20.3526 30.9813 19.8953 32.3159 19.8953C33.6506 19.8953 34.5886 20.3526 35.1299 21.2673C35.6806 22.1726 35.9559 23.4326 35.9559 25.0473C35.9559 26.6806 35.6806 27.9593 35.1299 28.8833C34.5886 29.7979 33.6506 30.2553 32.3159 30.2553C30.9813 30.2553 30.0386 29.7979 29.4879 28.8833C28.9466 27.9593 28.6759 26.6806 28.6759 25.0473ZM34.3879 25.0473C34.3879 24.2913 34.3366 23.6519 34.2339 23.1293C34.1406 22.6066 33.9446 22.1819 33.6459 21.8553C33.3473 21.5193 32.9039 21.3513 32.3159 21.3513C31.7279 21.3513 31.2846 21.5193 30.9859 21.8553C30.6873 22.1819 30.4866 22.6066 30.3839 23.1293C30.2906 23.6519 30.2439 24.2913 30.2439 25.0473C30.2439 25.8313 30.2906 26.4893 30.3839 27.0213C30.4773 27.5533 30.6733 27.9826 30.9719 28.3093C31.2799 28.6359 31.7279 28.7993 32.3159 28.7993C32.9039 28.7993 33.3473 28.6359 33.6459 28.3093C33.9539 27.9826 34.1546 27.5533 34.2479 27.0213C34.3413 26.4893 34.3879 25.8313 34.3879 25.0473Z" fill="white"/>
</svg>
